<svg id="Layer_1" data-name="Layer 1" xmlns="http://www.w3.org/2000/svg" xmlns:xlink="http://www.w3.org/1999/xlink" viewBox="0 0 423 301"><defs><style>.cls-1{fill:url(#linear-gradient);}.cls-2{fill:url(#linear-gradient-2);}.cls-3{fill:url(#linear-gradient-3);}.cls-4{fill:#f5f5f5;}.cls-32,.cls-5{fill:#fff;}.cls-15,.cls-6{fill:#6c63ff;}.cls-6{opacity:0.3;}.cls-16,.cls-20,.cls-26,.cls-32,.cls-6{isolation:isolate;}.cls-7{fill:url(#linear-gradient-4);}.cls-8{fill:url(#linear-gradient-5);}.cls-16,.cls-9{fill:#087fbd;}.cls-10{fill:url(#linear-gradient-6);}.cls-11{fill:url(#linear-gradient-7);}.cls-12{fill:#136088;}.cls-13,.cls-14{fill:none;stroke:#535461;stroke-miterlimit:10;}.cls-14{stroke-width:2px;}.cls-16{opacity:0.25;}.cls-17{fill:#575988;}.cls-18{fill:url(#linear-gradient-8);}.cls-19{fill:#2f2e4c;}.cls-20,.cls-32{opacity:0.1;}.cls-21{fill:#5f5d7e;}.cls-22,.cls-26{opacity:0.05;}.cls-23{fill:#fdc2cc;}.cls-24{fill:#fc6681;}.cls-25{fill:#865a61;}.cls-27{fill:#d39999;}.cls-28{fill:#f2f5fb;}.cls-29{fill:#dde0ed;}.cls-30{fill:#abb1d1;}.cls-31{fill:#d7666f;}</style><linearGradient id="linear-gradient" x1="55.94" y1="-1781.31" x2="55.94" y2="-1508.12" gradientTransform="matrix(1, 0, 0, -1, 0, -1484)" gradientUnits="userSpaceOnUse"><stop offset="0" stop-color="gray" stop-opacity="0.25"/><stop offset="0.54" stop-color="gray" stop-opacity="0.12"/><stop offset="1" stop-color="gray" stop-opacity="0.1"/></linearGradient><linearGradient id="linear-gradient-2" x1="167.54" y1="-1781.31" x2="167.54" y2="-1508.12" xlink:href="#linear-gradient"/><linearGradient id="linear-gradient-3" x1="278.04" y1="-1781.31" x2="278.04" y2="-1508.12" xlink:href="#linear-gradient"/><linearGradient id="linear-gradient-4" x1="431.28" y1="-1625.84" x2="431.28" y2="-1543.13" gradientTransform="matrix(1, 0, 0, -1, -156.2, -1536.65)" gradientUnits="userSpaceOnUse"><stop offset="0" stop-color="#b3b3b3" stop-opacity="0.25"/><stop offset="0.54" stop-color="#b3b3b3" stop-opacity="0.1"/><stop offset="1" stop-color="#b3b3b3" stop-opacity="0.05"/></linearGradient><linearGradient id="linear-gradient-5" x1="275.07" y1="-1523.19" x2="275.07" y2="-1507.14" gradientTransform="matrix(1, 0, 0, -1, 0, -1484)" gradientUnits="userSpaceOnUse"><stop offset="0" stop-opacity="0.12"/><stop offset="0.55" stop-opacity="0.09"/><stop offset="1" stop-opacity="0.02"/></linearGradient><linearGradient id="linear-gradient-6" x1="214.41" y1="-1792.34" x2="214.41" y2="-1709.05" xlink:href="#linear-gradient-4"/><linearGradient id="linear-gradient-7" x1="58.2" y1="-1689.34" x2="58.2" y2="-1673.18" gradientTransform="matrix(1, 0, 0, -1, 0, -1484)" gradientUnits="userSpaceOnUse"><stop offset="0.01" stop-opacity="0.12"/><stop offset="0.55" stop-opacity="0.09"/><stop offset="1" stop-opacity="0.05"/></linearGradient><linearGradient id="linear-gradient-8" x1="322" y1="-1821.72" x2="322" y2="-1620.45" gradientTransform="matrix(1, 0, 0, -1, -51.34, -1528.69)" gradientUnits="userSpaceOnUse"><stop offset="0" stop-color="gray" stop-opacity="0.25"/><stop offset="0.54" stop-color="gray" stop-opacity="0.12"/><stop offset="1" stop-color="gray" stop-opacity="0.1"/></linearGradient></defs><title>vector image </title><polygon class="cls-1" points="111.74 286.83 0.14 297.31 0.14 34.6 111.74 24.12 111.74 286.83"/><polygon class="cls-2" points="111.74 286.83 223.33 297.31 223.33 34.6 111.74 24.12 111.74 286.83"/><polygon class="cls-3" points="332.74 286.83 223.33 297.31 223.33 34.6 332.74 24.12 332.74 286.83"/><polygon class="cls-4" points="112.13 279.54 3.7 289.61 3.7 37.19 112.13 27.11 112.13 279.54"/><polygon class="cls-5" points="112.13 279.54 220.57 289.61 220.57 37.19 112.13 27.11 112.13 279.54"/><polygon class="cls-4" points="329 279.54 220.57 289.61 220.57 37.19 329 27.11 329 279.54"/><polygon class="cls-6" points="112.13 50.3 29.77 53.19 29.77 64.44 29.77 79.85 29.77 91.11 99.69 91.11 99.69 77.4 112.13 76.96 131.09 82.81 131.09 56.15 112.13 50.3"/><polygon class="cls-6" points="112.13 262.35 19.7 271.24 19.7 237.47 112.13 228.58 112.13 262.35"/><polygon class="cls-6" points="102.02 157.81 9.58 166.69 9.58 132.92 102.02 124.03 102.02 157.81"/><rect class="cls-6" x="166.65" y="236.28" width="40.29" height="30.81"/><rect class="cls-6" x="153.53" y="163.96" width="40.29" height="30.81"/><rect class="cls-6" x="170.02" y="67.66" width="40.29" height="30.81"/><polygon class="cls-6" points="313.6 252.87 250.79 258.2 250.79 217.32 313.6 211.99 313.6 252.87"/><polygon class="cls-6" points="306.1 108.98 243.29 114.31 243.29 73.43 306.1 68.1 306.1 108.98"/><path class="cls-7" d="M300.7,33c0,14.66-25.63,56.17-25.63,56.17S249.45,47.68,249.45,33,260.92,6.48,275.07,6.48,300.7,18.36,300.7,33Z"/><ellipse class="cls-8" cx="275.07" cy="31.17" rx="7.75" ry="8.02"/><path class="cls-9" d="M298.78,33.07c0,13.09-23.71,50.18-23.71,50.18s-23.71-37.09-23.71-50.18a23.71,23.71,0,0,1,47.42,0Z"/><circle class="cls-5" cx="275.07" cy="31.41" r="7.17"/><path class="cls-10" d="M84.59,199.13c0,14.76-26.39,56.56-26.39,56.56s-26.38-41.8-26.38-56.56a26.39,26.39,0,1,1,52.77,0Z"/><ellipse class="cls-11" cx="58.2" cy="197.26" rx="7.98" ry="8.08"/><path class="cls-9" d="M81.91,199c0,13.09-23.71,50.18-23.71,50.18S34.49,212.07,34.49,199a23.71,23.71,0,0,1,47.42,0Z"/><circle class="cls-5" cx="58.2" cy="197.32" r="7.17"/><path class="cls-9" d="M186.73,132.13c0,13.1-23.71,50.18-23.71,50.18s-23.71-37.08-23.71-50.18a23.71,23.71,0,1,1,47.42,0Z"/><circle class="cls-5" cx="163.02" cy="130.48" r="7.17"/><path class="cls-9" d="M93.91,23.24c0,13.09-23.72,50.18-23.72,50.18S46.48,36.33,46.48,23.24a23.72,23.72,0,1,1,47.43,0v0Z"/><circle class="cls-5" cx="70.19" cy="21.58" r="7.17"/><path class="cls-12" d="M343.62,253s-18.83,11.36,15.88,28.84c0,0,7.65-14.2-.8-25.77a11.41,11.41,0,0,0-14.8-3.24Z"/><path class="cls-13" d="M343.84,252.74S360,265.07,359.5,281.82"/><path class="cls-9" d="M126.15,256.32S107.32,267.68,142,285.17c0,0,7.65-14.21-.8-25.78a11.42,11.42,0,0,0-14.8-3.24Z"/><path class="cls-13" d="M126.37,256.08s16.12,12.33,15.66,29.09"/><path class="cls-14" d="M360.43,283.43s-5.9-20.05,1.11-34.78a31.61,31.61,0,0,0,2.56-19.85,53.05,53.05,0,0,0-2.84-9.32"/><path class="cls-15" d="M365.63,210.16c0,2.46-4.45,9.58-4.45,9.58s-4.46-7.12-4.46-9.58a4.45,4.45,0,0,1,8.89,0Z"/><path class="cls-15" d="M373,223.76c-1.33,2.06-8.94,5.62-8.94,5.62s.14-8.39,1.48-10.45a4.45,4.45,0,0,1,7.46,4.83Z"/><path class="cls-15" d="M372.66,247c-2.19,1.12-10.55.35-10.55.35s4.35-7.18,6.55-8.28a4.45,4.45,0,0,1,4,7.93Z"/><path class="cls-15" d="M368.46,264.54c-2,1.45-10.35,2.11-10.35,2.11s3.08-7.79,5.06-9.27a4.46,4.46,0,0,1,5.29,7.15Z"/><path class="cls-15" d="M354.71,229.86c1.76,1.71,10,3.48,10,3.48s-2-8.15-3.77-9.86a4.45,4.45,0,0,0-6.19,6.38Z"/><path class="cls-15" d="M350.06,250.42c2.19,1.12,10.55.35,10.55.35s-4.36-7.18-6.55-8.29a4.46,4.46,0,0,0-4.53,7.68,3.6,3.6,0,0,0,.52.26Z"/><path class="cls-15" d="M348.27,271c2,1.46,10.34,2.12,10.34,2.12s-3.07-7.8-5.05-9.27a4.46,4.46,0,0,0-5.74,6.82,3.72,3.72,0,0,0,.45.33Z"/><path class="cls-16" d="M365.63,210.16c0,2.46-4.45,9.58-4.45,9.58s-4.46-7.12-4.46-9.58a4.45,4.45,0,0,1,8.89,0Z"/><path class="cls-16" d="M373,223.76c-1.33,2.06-8.94,5.62-8.94,5.62s.14-8.39,1.48-10.45a4.45,4.45,0,0,1,7.46,4.83Z"/><path class="cls-16" d="M372.66,247c-2.19,1.12-10.55.35-10.55.35s4.35-7.18,6.55-8.28a4.45,4.45,0,0,1,4,7.93Z"/><path class="cls-16" d="M368.46,264.54c-2,1.45-10.35,2.11-10.35,2.11s3.08-7.79,5.06-9.27a4.46,4.46,0,0,1,5.29,7.15Z"/><path class="cls-16" d="M354.71,229.86c1.76,1.71,10,3.48,10,3.48s-2-8.15-3.77-9.86a4.45,4.45,0,0,0-6.19,6.38Z"/><path class="cls-12" d="M350.06,250.42c2.19,1.12,10.55.35,10.55.35s-4.36-7.18-6.55-8.29a4.46,4.46,0,0,0-4.53,7.68,3.6,3.6,0,0,0,.52.26Z"/><path class="cls-16" d="M348.27,271c2,1.46,10.34,2.12,10.34,2.12s-3.07-7.8-5.05-9.27a4.46,4.46,0,0,0-5.74,6.82,3.72,3.72,0,0,0,.45.33Z"/><path class="cls-14" d="M374.07,283.81s-5.9-20.05,1.12-34.78a31.68,31.68,0,0,0,2.55-19.85,53,53,0,0,0-2.81-9.32"/><path class="cls-12" d="M379.29,210.54c0,2.46-4.46,9.58-4.46,9.58s-4.45-7.12-4.45-9.58a4.45,4.45,0,0,1,8.89,0Z"/><path class="cls-12" d="M386.64,224.14c-1.34,2.06-8.95,5.61-8.95,5.61s.14-8.39,1.47-10.45a4.46,4.46,0,0,1,7.47,4.83Z"/><path class="cls-12" d="M386.32,247.39c-2.19,1.11-10.55.34-10.55.34s4.36-7.18,6.55-8.28a4.46,4.46,0,0,1,4,7.94Z"/><path class="cls-12" d="M382.11,264.92c-2,1.46-10.34,2.12-10.34,2.12s3.08-7.8,5.05-9.27a4.45,4.45,0,0,1,5.29,7.14Z"/><path class="cls-12" d="M368.36,230.24c1.76,1.71,10,3.48,10,3.48s-2-8.15-3.77-9.86a4.46,4.46,0,0,0-6.2,6.38Z"/><path class="cls-15" d="M363.71,250.8c2.19,1.12,10.55.35,10.55.35s-4.37-7.18-6.55-8.28a4.45,4.45,0,0,0-4,7.93Z"/><path class="cls-12" d="M361.93,271.41c2,1.46,10.34,2.12,10.34,2.12s-3.08-7.79-5.06-9.27a4.46,4.46,0,0,0-5.74,6.82l.45.33Z"/><ellipse class="cls-17" cx="274.29" cy="288.59" rx="148.41" ry="9.19"/><path class="cls-18" d="M322.4,147s-17.21-16.2-19.7-18.62c-.86-.84-1.68-1.67-2.38-2.38a9.36,9.36,0,0,0-4.94-2.58c-6.44-1.23-13-5.19-13-5.19h0l-.11-.14A7.77,7.77,0,0,1,281,115.5c0-.14-.07-.28-.1-.42l.3-.41a2,2,0,0,0,.33-.15,3.94,3.94,0,0,0,1.58-2.17,4.12,4.12,0,0,1,1.17-2.07,2.53,2.53,0,0,0,.63-.5,1.58,1.58,0,0,0,.15-.86c0-1.9-.31-3.36.14-5.21.7-3,1.35-6.69-.89-8.89a7.81,7.81,0,0,0-4.22-2.1c-1.44-.23-3.57,1.73-5,1.67-3.72-.14-6.85-3.5-10.38-2.41a7.26,7.26,0,0,0-3.82,2.73c-1.74,2.48-1.57,5.7-1.32,8.66a1,1,0,0,0,.19.63c.13.16.34.24.47.39a.93.93,0,0,1,.14.69,4.86,4.86,0,0,1-.34,1.4.55.55,0,0,0-.06.5.54.54,0,0,0,.28.19,2.37,2.37,0,0,0,.46.11c0,.24-.05.49-.06.74v.42a10.92,10.92,0,0,0,5,9.1c0,.2.06.4.09.62.1.66.18,1.39.25,2.19,0,.14,0,.27,0,.43l-.08-.15-12,5.87a5.91,5.91,0,0,0-2.41,1.18l-.24.12v.07l-.3.26L240.59,116.4l-24.22,21,13.32,14.34,15-1.25c-.74,5.07-1.25,8.95-1.25,8.95s-2.73,11.73,10.53,9.49c-.09,7.4-3.26,19.74-3.26,19.74A6.26,6.26,0,0,0,252,190l-.07.5-.84,5.67s-5,13.78-5.74,26.07-1.72,19.18-1.72,19.18L241.88,266l-2.42,11.24a56.67,56.67,0,0,1-13.75,11,1.93,1.93,0,0,0-.8,2.61l0,0c1,1.69,4,3.44,13.13.63,14.53-4.45,13.19-4.28,13.19-4.28a59.09,59.09,0,0,0-.4-9.5l-.06-.31c3.48-3.93,1.8-10.3,1.8-10.3s6.88-13.41,3.62-22.16c0,0-.77-7.45,3.25-11a1.29,1.29,0,0,0,.17-.16l.06-.06.13-.13.06-.07.15-.18,0,0a2.51,2.51,0,0,0,.19-.24l.05-.06.16-.18.07-.09.15-.22.05-.07.2-.31,0-.07.17-.27.06-.11.16-.26.06-.1.21-.37h0l.21-.39.07-.11.16-.31.06-.12.2-.37,0-.05.23-.45.05-.11.18-.35.07-.13.18-.38.05-.1.23-.48,0-.08.2-.42.06-.14.19-.39.05-.12.24-.52h0l.23-.52.07-.14.18-.41.06-.14.25-.54v0l.24-.55,0-.12.19-.44.07-.15.2-.47,0-.09.24-.56,0-.09.2-.47.06-.16.19-.44.05-.13.23-.55,0-.05.21-.52.06-.16.17-.42.06-.15.2-.51,0,0,.22-.56.06-.16.16-.4.07-.17.16-.43.05-.12.2-.53.06-.14.15-.39.07-.19.13-.34.07-.19L269,214l.06-.15.13-.35.08-.2.11-.3.07-.2.13-.34.08-.21.12-.34.08-.22.09-.24.08-.22.07-.19.19-.51,0-.08.09-.24.05-.16.09-.24,0-.12c.8-2.2,1.29-3.62,1.29-3.62s3.62,12.66,3.07,16.57,3.44,18.44,3.44,18.44-2.3,14.52-1,18.06-1.91,16.75-1.91,16.75l.67.35,0,.36A90.75,90.75,0,0,1,275,287.23c-.77,3-.38,6.15,5.73,5.77s6.31-4.09,6.31-4.09-2-6.51-2.26-10.35a2.23,2.23,0,0,0,0-.37h0l.17-.06,0,0a1.24,1.24,0,0,0,.2-.1h0l.18-.1.05,0,.14-.11,0,0a1.07,1.07,0,0,0,.16-.14l0,0,.11-.13,0-.05a1.27,1.27,0,0,0,.13-.19c2.1-3.34,2.3-10.42,2.3-10.42s4.2-23.84,2.68-27-.77-10.62-.77-10.62-1.72-11.17.19-16.57c1.43-4,2.33-18,2.29-24.68v-.55c1.42-1.77,2.5-4.88,1.74-10.33-.05-.31-.08-.62-.12-.94,2.18-1.62,4.32-3.53,4.32-3.53l.74-.76.24-.24c.2.08.42.16.65.23.83.38,1.43.59,1.43.59s10.9-8.94,19.12-13.22S322.4,147,322.4,147Zm-13,7.82s-11.48,7.27-13.57,11a2.57,2.57,0,0,0-.28.66l-.28.11h0l-.35.14a89.68,89.68,0,0,1,6.46-19.91,40.91,40.91,0,0,0,6.13,4.46,3.16,3.16,0,0,1,1.89,3.55Z"/><path class="cls-19" d="M239.23,290.33c-8.81,2.79-11.72,1.05-12.67-.63a2,2,0,0,1,.75-2.61,55.11,55.11,0,0,0,13.37-11c1-1.11,1.5-1.8,1.5-1.8s6.82-1.29,8.48,0a4.36,4.36,0,0,1,.9,2.4,60,60,0,0,1,.39,9.41S253.24,285.9,239.23,290.33Z"/><path class="cls-19" d="M286.44,287.75s-.18,3.69-6.08,4.05-6.27-2.76-5.54-5.71A89.21,89.21,0,0,0,276,275.53c.07-1.09.11-1.8.11-1.8s9.23-.92,8.3,1.67a5.77,5.77,0,0,0-.15,2.11A61.25,61.25,0,0,0,286.44,287.75Z"/><path class="cls-20" d="M251.55,276.68l-.16.19c-3.51,3.87-10.88,0-10.88,0l.16-.79c1-1.11,1.5-1.79,1.5-1.79s6.82-1.3,8.48,0A4,4,0,0,1,251.55,276.68Z"/><path class="cls-20" d="M284.41,275.39a6,6,0,0,0-.16,2.1c-2.41.84-6.68-1.14-8.26-1.95.08-1.09.12-1.8.12-1.8S285.34,272.81,284.41,275.39Z"/><path class="cls-21" d="M290.32,239.05c1.47,3.14-2.58,26.74-2.58,26.74s-.19,7-2.22,10.32-10.14-1.29-10.14-1.29,3.13-13.09,1.84-16.6.92-17.89.92-17.89-3.87-14.38-3.32-18.26-2.95-16.42-2.95-16.42-8.11,24.16-12,27.66-3.13,10.88-3.13,10.88c3.13,8.67-3.51,21.95-3.51,21.95s1.67,6.46-1.84,10.33-10.88,0-10.88,0l2.4-11.41,1.67-24.35s.92-6.82,1.67-19,5.54-25.82,5.54-25.82l.8-5.62.67-4.71s37.44-1.29,38.37-1.47c.23-.05.34,1.36.36,3.58,0,6.61-.84,20.44-2.21,24.45-1.84,5.35-.18,16.43-.18,16.43S288.84,235.92,290.32,239.05Z"/><g class="cls-22"><path d="M269.84,205.67s-8.11,24.16-12,27.66-3.13,10.89-3.13,10.89c3.13,8.66-3.51,22-3.51,22s1.67,6.45-1.84,10.32a5.3,5.3,0,0,1-3.4,1.68,6.16,6.16,0,0,0,5.43-1.68c3.5-3.87,1.84-10.32,1.84-10.32s6.64-13.28,3.51-22c0,0-.74-7.38,3.13-10.89,3-2.69,8.46-17.57,10.84-24.32C270.23,207,269.84,205.67,269.84,205.67Z"/><path d="M289.58,228.54s-1.67-11.07.18-16.43c1.39-4,2.25-17.83,2.21-24.45,0-2.23-.13-3.62-.36-3.58s-.8.06-1.91.11a15.33,15.33,0,0,1,.24,3.47c0,6.62-.83,20.45-2.2,24.45-1.85,5.35-.19,16.43-.19,16.43s-.74,7.38.74,10.52-2.58,26.73-2.58,26.73-.19,7-2.22,10.33a2.45,2.45,0,0,1-1.69,1.11c1.58.23,3,0,3.72-1.11,2-3.32,2.22-10.33,2.22-10.33s4.05-23.61,2.58-26.73S289.58,228.54,289.58,228.54Z"/></g><path class="cls-23" d="M284.78,120.82l-1.29,12.73S263,138,265.23,130.78a27,27,0,0,0,.87-10c-.06-.79-.14-1.52-.23-2.17a32.09,32.09,0,0,0-.64-3.36s15.87-12,15.13-3.87a13.08,13.08,0,0,0,.29,4.58,7.88,7.88,0,0,0,1.17,2.57A5.7,5.7,0,0,0,284.78,120.82Z"/><path class="cls-20" d="M280.65,116c-.15.2-.3.4-.46.59a10.88,10.88,0,0,1-14.32,2.06,32.09,32.09,0,0,0-.64-3.36s15.87-12,15.13-3.87A13.31,13.31,0,0,0,280.65,116Z"/><path class="cls-23" d="M282.75,109A10.88,10.88,0,0,1,261,109v-.42a10.88,10.88,0,0,1,21.76.42Z"/><path class="cls-20" d="M292,187.67A5.93,5.93,0,0,1,288.1,190l-8.47,3h0l-2.57.9L276,191.21,274.64,188v5.91s-16.19,1.11-22.07-3.59l.67-4.71s37.45-1.3,38.37-1.48C291.84,184,292,185.45,292,187.67Z"/><path class="cls-20" d="M284.78,120.82l-1.29,12.73S263,138,265.23,130.78a27,27,0,0,0,.87-10c.36.74,3,6,6.33,6.89h0a3.73,3.73,0,0,0,1.29.12,4.24,4.24,0,0,0,2-.77c3-2,5.57-7.31,6.13-8.49A5.66,5.66,0,0,0,284.78,120.82Z"/><path class="cls-24" d="M319.09,159.19c-7.93,4.24-18.44,13.09-18.44,13.09s-7.75-2.77-5.72-6.46S308,154.94,308,154.94a3.22,3.22,0,0,0-1.85-3.51,41.3,41.3,0,0,1-5.9-4.42s-8.3,17.89-6.64,29.88-5.53,12.53-5.53,12.53l-8.48,3h0l-2.57.9L276,190.63l-1.32-3.25v5.9s-18.81,1.29-23.24-4.79c0,0,4.06-16.23,3-22.5s-2.4-37.81-2.4-37.81l14.11-7.11s2.76,6,6.38,7h0a3.5,3.5,0,0,0,1.29.12,4.2,4.2,0,0,0,2-.77c3.42-2.26,6.23-8.72,6.23-8.72s6.36,3.92,12.58,5.13a9,9,0,0,1,4.76,2.56c.67.71,1.46,1.52,2.3,2.36,2.4,2.39,19,18.44,19,18.44S327,155,319.09,159.19Z"/><path class="cls-23" d="M300.84,169.15l-2.42,2.56-.72.76s-6.45,5.9-8.11,5.72-4.43-11.44-1.12-10.7a10.63,10.63,0,0,0,5.91-.89h0a13.77,13.77,0,0,0,1.65-.77Z"/><path class="cls-20" d="M282.75,109a10.8,10.8,0,0,1-2.56,7,1.61,1.61,0,0,1-1.47-.7c-.3-.54-.17-1.21-.38-1.79a9.19,9.19,0,0,0-.95-1.49c-.75-1.3-.43-3.27-1.79-4a3.31,3.31,0,0,0-2.07-.1c-1.37.23-2.75.68-4.09.86-1.54.22-2.93-.78-4.44-.8s-2.72.77-4,.54a10.88,10.88,0,0,1,21.76.42Z"/><path class="cls-25" d="M273.53,107.26a3.39,3.39,0,0,1,2.07.1c1.36.69,1,2.66,1.79,4a10.21,10.21,0,0,1,1,1.49c.19.56.07,1.25.38,1.79a1.82,1.82,0,0,0,2.43.43,3.8,3.8,0,0,0,1.52-2.15,4.25,4.25,0,0,1,1.12-2,2.63,2.63,0,0,0,.61-.49,1.5,1.5,0,0,0,.14-.86c0-1.88-.29-3.34.14-5.16.68-2.94,1.3-6.62-.86-8.8a7.47,7.47,0,0,0-4.07-2.09c-1.39-.23-3.44,1.72-4.85,1.67-3.58-.14-6.61-3.46-10-2.39a7.12,7.12,0,0,0-3.69,2.71c-1.67,2.47-1.52,5.65-1.27,8.58a1.08,1.08,0,0,0,.18.63c.13.15.33.23.45.38a.9.9,0,0,1,.14.69,4.41,4.41,0,0,1-.33,1.39.59.59,0,0,0-.05.5.49.49,0,0,0,.28.19c1.39.5,2.9-.46,4.39-.44s2.9,1,4.44.81C270.78,107.94,272.16,107.49,273.53,107.26Z"/><path class="cls-26" d="M279.63,192.4h0l-2.66,1-1-2.74L271.78,179l.66-50.93h0a3.5,3.5,0,0,0,1.29.12,4.2,4.2,0,0,0,2-.77h0l-.79,50.13Z"/><circle class="cls-5" cx="274.46" cy="130.05" r="0.55"/><circle class="cls-5" cx="273.35" cy="148.86" r="0.55"/><circle class="cls-5" cx="272.43" cy="168.41" r="0.55"/><circle class="cls-5" cx="273.53" cy="178.18" r="0.55"/><polygon class="cls-26" points="292.53 151.07 280.73 151.07 280.73 139.27 286.63 137.61 292.53 139.27 292.53 151.07"/><circle class="cls-5" cx="273.9" cy="138.71" r="0.55"/><circle class="cls-5" cx="287" cy="139.27" r="0.55"/><circle class="cls-5" cx="272.8" cy="159" r="0.55"/><path class="cls-27" d="M254.54,126.91s-5.17.74-6.83,10.15-3.32,22.5-3.32,22.5-2.77,12.17,11.06,9.21l.74-4.24s-1.39,4.89-1-4.89.46-16.15.46-16.15Z"/><path class="cls-24" d="M254.54,126.91s-5.17.74-6.83,10.15-3.32,22.5-3.32,22.5-2.77,12.17,11.06,9.21l.74-4.24s-2.12,4.7-1.75-5.07,1.2-16,1.2-16Z"/><path class="cls-20" d="M300.84,169.15l-2.42,2.56a7.21,7.21,0,0,1-4.12-5l.09-.07h0a13.77,13.77,0,0,0,1.65-.77Z"/><path class="cls-24" d="M297.42,164.45l-2.75,2a7,7,0,0,0,6.07,5.52l2.21-3.87Z"/><polygon class="cls-28" points="218.3 137.72 241.66 116.88 252.35 129.32 270.69 128.38 276.25 139.88 258.79 162.69 250.61 150.26 231.15 151.92 218.3 137.72"/><polygon class="cls-29" points="274.32 139.9 268.17 147.89 261.62 156.41 258.59 160.35 251.58 149.44 244.23 150.09 232.26 151.14 223.34 141.28 220.28 137.89 232.72 126.8 242.06 118.47 246.88 124.07 252.03 130.06 257.17 129.8 269.13 129.18 273.8 138.84 274.32 139.9"/><polygon class="cls-30" points="235.69 131.51 223.34 141.28 220.28 137.89 232.72 126.8 235.69 131.51"/><polygon class="cls-30" points="249.76 138.71 248.79 132.58 242.3 124.96 246.88 124.07 252.03 130.06 257.17 129.8 259.06 137.09 249.89 139.5 249.76 138.71"/><polygon class="cls-30" points="274.32 139.9 268.17 147.89 264.98 143.07 273.8 138.84 274.32 139.9"/><polygon class="cls-30" points="261.62 156.41 258.59 160.35 251.58 149.44 244.23 150.09 242.89 140.87 249.76 138.71 250.59 145 255.24 145.73 261.62 156.41"/><path class="cls-31" d="M248.46,141.21a.18.18,0,0,1-.18-.07,10.76,10.76,0,0,0-3.08-2.58.18.18,0,1,1,.17-.32,10.8,10.8,0,0,1,3.19,2.67.18.18,0,0,1,0,.26l-.09,0Z"/><path class="cls-31" d="M246.26,141.72a.17.17,0,0,1-.21-.14.22.22,0,0,1,0-.14l2.39-3.94a.18.18,0,1,1,.31.19h0l-2.38,3.94A.2.2,0,0,1,246.26,141.72Z"/><polygon class="cls-32" points="232.26 150.89 251.99 130.02 269.1 129.19 251.63 149.37 232.26 150.89"/><path class="cls-23" d="M249.37,161s4.61-11.31,6.83-10.14,8.66,8.23,4.24,11.32a58,58,0,0,1-7.56,4.55l-3.51-.44Z"/><path class="cls-27" d="M246.88,161.12s4.23-3.31,7.65,6.74l-3.22.46-3.69-2.21Z"/><path class="cls-24" d="M246.88,161.12s4.23-3.31,7.65,6.74l-3.22.46-3.69-2.21Z"/></svg>