<svg id="Layer_1" data-name="Layer 1" xmlns="http://www.w3.org/2000/svg" xmlns:xlink="http://www.w3.org/1999/xlink" viewBox="0 0 196 182"><defs><style>.cls-1,.cls-5{fill:#087fbd;}.cls-1,.cls-10,.cls-11,.cls-17{opacity:0.1;}.cls-1,.cls-10,.cls-11,.cls-20,.cls-8{isolation:isolate;}.cls-2{fill:url(#linear-gradient);}.cls-3{fill:#ffc5d3;}.cls-4{fill:#3a3768;}.cls-6{fill:#e6e8ec;}.cls-7{fill:#5f5570;}.cls-8{opacity:0.15;}.cls-9{fill:#bc8487;}.cls-11{stroke:#000;stroke-miterlimit:10;}.cls-12{fill:#433a59;}.cls-13{fill:#7b728f;}.cls-14{fill:#e5e8ef;}.cls-15{fill:#8f7080;}.cls-16{fill:#c3bbc8;}.cls-18{fill:#ffd037;}.cls-19{fill:#a8a8a8;}.cls-20{opacity:0.2;}</style><linearGradient id="linear-gradient" x1="238.24" y1="-1838.9" x2="238.24" y2="-1666.89" gradientTransform="matrix(1, 0, 0, -1, -163.24, -1667.28)" gradientUnits="userSpaceOnUse"><stop offset="0" stop-color="gray" stop-opacity="0.25"/><stop offset="0.54" stop-color="gray" stop-opacity="0.12"/><stop offset="1" stop-color="gray" stop-opacity="0.1"/></linearGradient></defs><title>vector image </title><path class="cls-1" d="M111.59,27.79c-10.77-.37-21-3.84-30.81-7.64s-19.5-8-30-10C44,8.81,36.28,8.63,30.83,12.25c-5.24,3.49-6.94,9.51-7.85,15.1-.67,4.2-1.08,8.63.79,12.56,1.31,2.73,3.62,5,5.22,7.65,5.57,9.1,1.63,20.33-4.4,29.22-2.83,4.17-6.11,8.15-8.3,12.6S13.1,98.9,15,103.43s6.4,7.86,11.29,10.23c9.94,4.82,21.64,6.2,33.05,7,25.26,1.73,50.66,1,76,.23,9.37-.28,18.79-.56,28-2,5.12-.8,10.41-2.08,14.12-5.17a11.83,11.83,0,0,0,2.73-15.46c-5.31-8.23-20-10.28-23.68-19.11-2-4.87.06-10.29,3-14.8,6.36-9.67,17-18.17,17.59-29.24.39-7.59-4.74-15.2-12.67-18.8-8.31-3.76-19.83-3.29-26,2.95C132.19,25.65,121.1,28.12,111.59,27.79Z"/><ellipse class="cls-1" cx="90.2" cy="170.61" rx="68.37" ry="9.25"/><path class="cls-2" d="M107.08,46.74s-2.12-4.17-1.83-5.42-1.49-3.89-1.49-3.89l.11-4.4s-.24.45-1.52.85a4.87,4.87,0,0,0-.35-.42,9.36,9.36,0,0,0-1.53-1.28l-2.25-4.85L96,24s-3.43-7-7-8.51l-.56-1.09a.09.09,0,0,0,0-.11L88,13.18a.08.08,0,0,0-.11,0l-.54-1.07a8.49,8.49,0,0,0-1.58-3.79c0-.08-.11-.15-.17-.23l.88,0a3,3,0,0,0,2.16-.68A2,2,0,0,0,89,6.6a2.86,2.86,0,0,0,.13-.66V5.3a1.11,1.11,0,0,0,0-.23.15.15,0,0,0,0-.09A1.25,1.25,0,0,0,89,4.72a.43.43,0,0,1,0,0c0-.09-.07-.18-.11-.27s0,0,0,0l-.13-.26,0,0h0a.47.47,0,0,0,0-.1A6.29,6.29,0,0,0,86,2,31.07,31.07,0,0,0,83.06.61,15.77,15.77,0,0,0,71.59.77a5,5,0,0,0-1,.54,5.56,5.56,0,0,0-1.11,1.31L67.72,5.2a3.4,3.4,0,0,0-.57,1c-.32,1.22.7,2.45.58,3.71,0,.63-.39,1.2-.46,1.83a4.44,4.44,0,0,0,.66,2.32l2.5,5c-.14.65-.28,1.31-.44,2h0a6.55,6.55,0,0,0-1.64,2.18l0,0h0a2,2,0,0,0-.57.56l-2.37,2.31s-4.13,1.07-5,2.42c0,0-6.47-.28-6.41,8.75,0,0-.29,3.39-.45,3.84a49.22,49.22,0,0,0,0,5l-.08,9.26a56.89,56.89,0,0,0,0,6.66c.25,1.75.53,8.41.53,8.41s1.55,6.49,1,8.81,0,7.06.9,7.08c.17.35.36.52.58.42l.28-.1v5.53s-1.11,7.75.14,9.22a30.3,30.3,0,0,0-2,3.72l-8.75-.47L45,105h0l-1,.29-.62,14.23.25,0,0,.43.58,0-.81,14.33,12.11,1A10.61,10.61,0,0,1,54,137.9c-.45.22-1.43-.45-1.66-.17a1.87,1.87,0,0,1-1.72.45c-.8-.17-1.31.73-1.31.73s.11.1.29.3a7.71,7.71,0,0,0-3.84,1c-.4.2-.65.35-.65.35H42.78l1.3,8.28.91.62.23,6.53s3.66,11.28,5.34,11.21a.75.75,0,0,0,.56-.28c.9-1,.28-4.61.28-4.61v-5.94s1.37-.61,1.22-1.06,2.21-5.4,2.42-5.85c0,0,0,0,0,0,0-.51,1-1.08,1-1.3s2.52-1.64,2.7-2.88,1.89-.56,1.89-.56l2.17-2.5a31.13,31.13,0,0,0,.4,5.71,30.18,30.18,0,0,1,1.44,6.66s-.63,3.11,0,4.12a10.18,10.18,0,0,0,1.91,1.84,25.66,25.66,0,0,0-.56,6.16v2.41l4.81,1.35s.15-1.21.38-1.21,3.28,2.34,3.28,2.34,11.75.15,14.72,0c1.12-.06,1.43-.54,1.26-1.13a4.22,4.22,0,0,0-3.32-2.33c-2.29-.15-5.19-2.56-5.19-2.56s.23-.53-1-1.28c-.84-.52-3.17-2.61-4.61-3.84l.21-.28s-2-2.7-1.55-3.89a5.56,5.56,0,0,0-.17-2.93,23.18,23.18,0,0,1-1.09-5c0-1.08-.16-7.18-.28-11.51l1,.09,0-.43.45,0,4.25.39L79,132.33a29,29,0,0,0,4.46-2.26A9.09,9.09,0,0,1,88,128.15s4.87-2.6,5.61-3.67.67-8.86.67-8.86l-.4-16.7h0s-.34-8.07-1-9.82c-.25-.65-.87-2.81-1.55-5.27a3.84,3.84,0,0,1,1.17.05c0,.6,0,1,0,1.16,0,1,1.37,1.77,1.37,1.77l-1-21.59V50.52c3,.95,10.24,1.25,10.24,1.25C108.33,51.49,107.08,46.74,107.08,46.74ZM78.82,28.19h0a16.31,16.31,0,0,1,.42-1.67ZM59.16,102.25c1.77.29,3.82.21,4-.14a1.1,1.1,0,0,0,.07-.17l.16.3-.17,3.26v.07l-5.85-.31A4.69,4.69,0,0,1,59.16,102.25Zm19.49,16.43-.15-5.27c.26-1,.49-1.86.69-2.61.09.63.17,1.2.23,1.74C80,117.54,79.15,118.52,78.65,118.68ZM95.29,39.61c-.33.12-1.61-.68-2.82-1.51,0-.15,0-.3,0-.45.17-3.44-5.44-5.59-7.15-6a6.52,6.52,0,0,1-1.21-.45,30.31,30.31,0,0,1-2.66-1.51l0-.06s-2.21-1.4-2.26-3.15a30.52,30.52,0,0,1,1.9-4.62l.14-.27a8.76,8.76,0,0,0,2.88-1.52c.34,4.5,6.85,8.37,6.85,8.37l.7,1.12.16.27c-.35.2-.52.37-.4.47a20.59,20.59,0,0,1,2.19,3.58h0c.13.26.22.42.22.42s1.06,2.89,1.67,5.31a.43.43,0,0,0-.25,0Z"/><path class="cls-3" d="M97.81,27.94l-.08.1-.26.35-5,3.54L91.4,30.18l-.67-1.12s-10-6-5.69-11.75,10.63,7.31,10.63,7.31Z"/><path class="cls-4" d="M87.63,13.81h0a.08.08,0,0,1,.11,0L88.3,15a.08.08,0,0,1,0,.11h0a.08.08,0,0,1-.11,0l-.56-1.1A.1.1,0,0,1,87.63,13.81Z"/><rect class="cls-4" x="82.09" y="15.37" width="0.1" height="0.46" rx="0.05" transform="translate(1.76 38.61) rotate(-26.73)"/><path class="cls-4" d="M82.41,16.15h0a.07.07,0,0,1,.08,0l.31.62a.06.06,0,0,1,0,.07h0a.05.05,0,0,1-.08,0l-.31-.62A.08.08,0,0,1,82.41,16.15Z"/><rect class="cls-4" x="83.03" y="17.08" width="0.1" height="0.81" rx="0.05" transform="translate(1.01 39.24) rotate(-26.73)"/><rect class="cls-4" x="83.65" y="12.12" width="5.71" height="11.61" rx="0.5" transform="translate(1.18 40.83) rotate(-26.73)"/><path class="cls-5" d="M85.46,12.28a.2.2,0,0,0-.09.27h0l0,0a.2.2,0,0,1-.09.27h0L83.13,14a.2.2,0,0,1-.27-.09h0l0,0a.21.21,0,0,0-.28-.09h0l-.42.21a.39.39,0,0,0-.17.52h0l4.6,9.12a.39.39,0,0,0,.52.18l3.78-1.9a.4.4,0,0,0,.17-.53l-4.6-9.13a.39.39,0,0,0-.52-.17h0Z"/><path class="cls-6" d="M83.63,13.26,84.2,13a.08.08,0,0,1,.11,0h0a.08.08,0,0,1,0,.11l-.56.29a.08.08,0,0,1-.11,0h0A.08.08,0,0,1,83.63,13.26Z"/><circle class="cls-6" cx="84.5" cy="12.91" r="0.09"/><path class="cls-7" d="M88.7,47.28,87.29,85s4.73-1.58,5.46-.4S92,65.72,92,65.72Z"/><path class="cls-8" d="M88.7,47.28,87.29,85s4.73-1.58,5.46-.4S92,65.72,92,65.72Z"/><path class="cls-9" d="M88.92,171.62c-2.92.15-14.47,0-14.47,0s-3-2.32-3.22-2.32-.37,1.2-.37,1.2l-4.73-1.35v-2.4s-.15-6.83,1.28-7.12a65,65,0,0,1,7.72,0c.22-.08,4.5,4,5.7,4.72s1,1.28,1,1.28,2.85,2.39,5.1,2.54a4.15,4.15,0,0,1,3.26,2.33C90.33,171.09,90,171.57,88.92,171.62Z"/><path class="cls-10" d="M88.92,171.62c-2.92.15-14.47,0-14.47,0s-3-2.32-3.22-2.32-.37,1.2-.37,1.2l-4.73-1.35V166.8l4.42,1.6,3.53,2.1H90.16C90.33,171.09,90,171.57,88.92,171.62Z"/><path class="cls-11" d="M75.79,168.1s3.6-3.45,6-2.47"/><path class="cls-9" d="M53,155.43c.15.45-1.2,1-1.2,1v5.92s.61,3.56-.27,4.59a.71.71,0,0,1-.55.28c-1.65.08-5.25-11.17-5.25-11.17l-.23-6.49-.9-.63-1.27-8.25h2.33s.24-.15.63-.35c1.13-.57,3.48-1.57,4.76-.62l4.35,9.8S52.86,155,53,155.43Z"/><path class="cls-10" d="M51.54,167a.71.71,0,0,1-.55.28c-1.65.08-5.25-11.17-5.25-11.17l-.23-6.49-.9-.63-1.27-8.24h2.33a7,7,0,0,1,.63-.36l.56,8.45.3,7.27S50,164,51.54,167Z"/><path class="cls-12" d="M93.25,124.71c-.73,1.07-5.51,3.65-5.51,3.65a8.85,8.85,0,0,0-4.38,1.92c-1.22.93-5.47,2.77-9.28,4.34-3.56,1.47-6.75,2.69-6.75,2.69l-3.67,4.27-2.8,3.25s-1.68-.67-1.85.57-2.7,2.64-2.64,2.86-1,.79-1,1.3-3.77-3.66-3.71-6.19a6.07,6.07,0,0,0-1.91-4.27s.5-.9,1.29-.73a1.82,1.82,0,0,0,1.69-.45c.22-.28,1.18.39,1.63.17s2.25-4.67,2.25-4.67l7-4.7,13.94-9.35.65-.43s1.85.85,1.1-6.12c-.15-1.35-.39-3-.77-5-2.3-12.31,6-13.72,6-13.72l7.26,2.42,1.74,2.7h0l.39,16.64S94,123.64,93.25,124.71Z"/><path class="cls-10" d="M74,132.58s0,.8.06,2c-3.56,1.47-6.75,2.69-6.75,2.69l-3.67,4.27c-.06-3.54,0-8.15,0-12.86l14-9.35C75.88,125.76,74,132.58,74,132.58Z"/><path class="cls-10" d="M93.53,99.24h0l-10.9.21s-1.92,7.48-2.2,9.06c-.07.38-.49,2-1.09,4.31-.14-1.35-.39-3-.76-5-2.31-12.31,6-13.72,6-13.72l7.25,2.42Z"/><path class="cls-12" d="M64.8,78.83l-1.4,27s-1,39.64,0,42.22a30.81,30.81,0,0,1,1.4,6.64s-.62,3.09,0,4.1,2.59,2.14,2.53,2.7,6,3.6,9.17-1.23c0,0-1.92-2.7-1.52-3.88a5.83,5.83,0,0,0-.17-2.93,23.25,23.25,0,0,1-1.07-5c0-1.69-.39-15.85-.39-15.85s6.13-22.5,6.41-24.07S82,99.46,82,99.46l11.58-.23s-.33-8-1-9.78-4-14.51-4-14.51Z"/><polygon class="cls-13" points="45.47 105.29 44.46 105.57 44.42 106.57 74.57 106.96 74.57 106.57 45.47 105.29"/><path class="cls-3" d="M81,22.51c-4.38,8.9-1.66,10.76-1.22,11-.93-.43-13-6.11-11.42-7.55,1-.93,1.92-5,2.44-7.94.31-1.74.49-3.08.49-3.08L84,17.26C82.75,19.24,81.77,21,81,22.51Z"/><path class="cls-10" d="M97.74,28l-.26.35-5,3.54L91.4,30.18a54.47,54.47,0,0,1,6.18-2.47Z"/><path class="cls-14" d="M102.36,36.15c-.45,1.57-8,0-8,0l-.79-1.24-.21-.41h0a20.08,20.08,0,0,0-2.15-3.57c-.61-.51,6.64-3,6.64-3L100,32.78a9.22,9.22,0,0,1,1.51,1.28A2.35,2.35,0,0,1,102.36,36.15Z"/><path class="cls-7" d="M89.77,36.87s4.49,3.55,5.17,3.3,11.58,7.11,11.58,7.11,1.24,4.72-3.88,5c0,0-10.85-.45-11.3-2S89.77,36.87,89.77,36.87Z"/><path class="cls-10" d="M77.51,29.74,72.62,34.8l6.86,43.63,2.7-1.57s7,3.09,7.53.22.41-14.17.41-14.17L89.2,42.5S86,35.36,86,35.13s-4.62-3.71-4.62-3.71L79.2,29.73Z"/><path class="cls-14" d="M77.51,29.06l-4.89,5.07,6.86,43.63,2.7-1.58s7,3.1,7.53.23.41-14.17.41-14.17L89.2,41.82S86,34.68,86,34.46s-4.62-3.72-4.62-3.72L79.2,29.06Z"/><path class="cls-10" d="M77.79,29.8l-1.35,2.75L77.79,34s4.84,9.77,3.88,15.56l1,19.06,3.26,3.21,2.59-3L87.29,51.49S84,37.21,80.49,32.77l-1-3.94Z"/><path class="cls-9" d="M77.79,29.35,76.44,32.1l1.35,1.42s4.84,9.77,3.88,15.56l1,19.06,3.26,3.21,2.59-3L87.29,51S84,36.76,80.49,32.32l-1-3.94Z"/><path class="cls-10" d="M84,17.26c-1.22,2-2.19,3.72-3,5.25a8.45,8.45,0,0,1-2.45.36c-2.78,0-4.38-1.93-5.95-4-.36-.46-1.55-.35-1.8-.9.31-1.74.49-3.08.49-3.08Z"/><path class="cls-3" d="M87.19,14A8.62,8.62,0,1,1,85.55,9,8.62,8.62,0,0,1,87.19,14Z"/><path class="cls-10" d="M75.82,33.23l-7.08-8.55s-.66-.26,1.55-2.58c0,0,8.12,6.33,8.63,7.41S75.82,33.23,75.82,33.23Z"/><path class="cls-14" d="M75.6,32.78l-7.09-8.55s-.65-.26,1.56-2.58c0,0,8.12,6.33,8.62,7.41S75.6,32.78,75.6,32.78Z"/><path class="cls-7" d="M93.53,87.17s-1.35-.81-1.35-1.76S91.51,71,91.51,71s-1-8.06-2-14.46h0c-.61-3.77-1.24-7-1.68-7.61v0c-1.18-1.52-1-8.94-8.33-19.8A40.94,40.94,0,0,0,84,31.82a6.33,6.33,0,0,0,1.19.45c1.68.39,7.2,2.53,7,6s.39,11.3.39,11.3V65.66Z"/><path class="cls-10" d="M102.36,36.15c-.45,1.57-8,0-8,0l-.79-1.24-.21-.41h0v0c4.41.31,6.87,0,8.23-.41A2.35,2.35,0,0,1,102.36,36.15Z"/><path class="cls-7" d="M93.53,34.91s2.37,6.53,2,8.16,5.45,8,5.45,8l5.51-3.83s-2.08-4.16-1.8-5.4S103.26,38,103.26,38l.11-4.39S102.36,35.52,93.53,34.91Z"/><path class="cls-10" d="M85.55,9l-4.27.16A4.74,4.74,0,0,0,80,9.28a3.68,3.68,0,0,0-2.28,3.55c-.06,1.46-.9,3.1-2.54,3.22a.62.62,0,0,1-.46-.1.7.7,0,0,1-.2-.4,8.79,8.79,0,0,0-1.08-2.4,1.89,1.89,0,0,0-1.35,1.43A8,8,0,0,0,72,16.65a13.56,13.56,0,0,1-.26,2.63A8.62,8.62,0,0,1,85.41,8.76l.15.2Z"/><path class="cls-15" d="M79.82,9.05a4.68,4.68,0,0,1,1.24-.15l5.19-.2A2.91,2.91,0,0,0,88.37,8a2,2,0,0,0,.39-.74,3.19,3.19,0,0,0-.33-2.61,6.33,6.33,0,0,0-2.66-2A30,30,0,0,0,82.9,1.31a15.34,15.34,0,0,0-11.27.16,4.59,4.59,0,0,0-1,.54,5,5,0,0,0-1.1,1.31l-1.7,2.57a3.32,3.32,0,0,0-.54,1c-.32,1.22.67,2.44.57,3.7-.06.62-.39,1.2-.45,1.82a4.39,4.39,0,0,0,.65,2.31l3,6a13.6,13.6,0,0,0,.73-4.38,7.93,7.93,0,0,1,.12-2.07,1.94,1.94,0,0,1,1.35-1.44,9,9,0,0,1,1.08,2.41.67.67,0,0,0,.2.39.58.58,0,0,0,.46.11c1.65-.13,2.48-1.75,2.54-3.22A3.68,3.68,0,0,1,79.82,9.05Z"/><polygon class="cls-13" points="44.46 105.57 46.56 104.97 78.24 106.7 74.75 107.15 44.46 105.57"/><polygon class="cls-10" points="44.46 105.57 46.56 104.97 78.24 106.7 74.75 107.15 44.46 105.57"/><polygon class="cls-13" points="79.1 137.06 74.92 136.67 73.46 136.54 73.46 113.3 73.84 107.9 73.93 106.7 78.24 106.7 79.1 137.06"/><polygon class="cls-10" points="77.96 136.24 74.63 135.87 73.46 135.74 73.46 113.7 73.76 108.59 73.83 107.45 77.27 107.45 77.96 136.24"/><path class="cls-13" d="M55.1,105.57s2.08-4.56,2.95-4.7a13.64,13.64,0,0,1,2.48,0l-.14,1.32s-2.14.17-2.82,3.74Z"/><path class="cls-10" d="M55.1,105.57s2.08-4.56,2.95-4.7a13.64,13.64,0,0,1,2.48,0l-.14,1.32s-2.14.17-2.82,3.74Z"/><path class="cls-13" d="M63.17,100.39s5.59,2.78,4.86,6l-3-.17s-1.47-4.87-2.62-5.12S63.17,100.39,63.17,100.39Z"/><path class="cls-7" d="M84,56.34v.16l-.11,18.73S81,91,80.21,91.59s-18-1.07-18-1.07L54.34,37.84c-.05-9,6.3-8.72,6.3-8.72.84-1.35,4.89-2.42,4.89-2.42l2.25-2.19.07-.1a2.17,2.17,0,0,1,.57-.56h0c.46-.27.76.08.93.43a3.39,3.39,0,0,1,.17.51C78.63,31.48,84,56.34,84,56.34Z"/><path class="cls-10" d="M83.75,56.56v.16C80.92,51.55,70,32,67.05,31l1.15-.79s.76-.45-.64-.9c0,0-2.2.28-2.25-2.36l2.32-2.3.56-.56h0l.93.44a2.21,2.21,0,0,1,.18.51C78.41,31.7,83.75,56.56,83.75,56.56Z"/><path class="cls-12" d="M84,56.34v.16c-2.82-5.17-13.71-24.77-16.7-25.75L68.42,30s.77-.45-.64-.9c0,0-2.19.29-2.25-2.36l2.32-2.29.57-.56h0l.93.43a3.39,3.39,0,0,1,.17.51C78.63,31.48,84,56.34,84,56.34Z"/><path class="cls-10" d="M88,49.11l0,0c-1.18-1.52-1-8.94-8.32-19.79A39.85,39.85,0,0,0,84.2,32l-.52,1.72,1.12.6Z"/><path class="cls-12" d="M87.82,48.88l0,0c-1.18-1.52-1-8.94-8.32-19.8A40.43,40.43,0,0,0,84,31.81l-.51,1.71,1.12.6Z"/><path class="cls-10" d="M79.15,27.33l-.46,2a2.64,2.64,0,0,0,2.36,2.12l.33-.93S79.2,29.07,79.15,27.33Z"/><path class="cls-14" d="M79.15,27.11l-.46,1.95a2.63,2.63,0,0,0,2.36,2.11l.33-.92S79.2,28.85,79.15,27.11Z"/><polygon class="cls-10" points="76.24 107.01 74.92 136.67 73.46 136.54 73.46 113.3 73.84 107.9 76.24 107.01"/><polygon class="cls-13" points="44.77 118.47 43.87 134.51 74.45 137.06 75.8 107.01 44.77 118.47"/><polygon class="cls-10" points="44.09 120.19 44.69 106.02 76.02 107.46 74.53 122.44 44.09 120.19"/><polygon class="cls-13" points="43.87 119.74 44.46 105.57 75.8 107.01 74.3 121.99 43.87 119.74"/><rect class="cls-16" x="57.04" y="119.76" width="3.77" height="4.39"/><path class="cls-3" d="M57.6,91,57,92.55s-1.18,8.32.28,9.33,5.79,1.07,6,.56,1.8-6.24,1.8-6.24,1.4,4.22,2.13,3.88-1.68-8.35-1.68-8.35Z"/><path class="cls-10" d="M57,84.73v8s6,1.13,8.55-.82c0,0-2.42-7.78-1.52-9.75S57,84.73,57,84.73Z"/><path class="cls-14" d="M57,84.51v8s6,1.12,8.55-.82c0,0-2.42-7.79-1.52-9.75S57,84.51,57,84.51Z"/><path class="cls-10" d="M56.37,37.44l-1.58.85s-.28,3.37-.45,3.82a48.83,48.83,0,0,0,0,5l-.07,9.23a56.39,56.39,0,0,0,0,6.63c.24,1.74.51,8.38.51,8.38s1.52,6.47,1,8.77.06,7.48,1,7S66.53,85,67,84.62s.23-3.49,0-3.88a34,34,0,0,1-1.46-7c.12-1.24-.39-12.09-.39-12.09S66,50.09,66.31,47.4s-.67-10.63-1.57-10.74S61.2,30.41,56.37,37.44Z"/><path class="cls-7" d="M55.92,37l-1.58.85s-.28,3.37-.45,3.82a48.83,48.83,0,0,0,0,5l-.07,9.23a56.39,56.39,0,0,0,0,6.63c.24,1.74.51,8.38.51,8.38s1.52,6.47,1,8.77.06,7.48,1,7,9.79-2.19,10.23-2.53.23-3.49,0-3.88a34,34,0,0,1-1.46-7c.12-1.24-.39-12.09-.39-12.09S65.52,49.64,65.86,47s-.67-10.63-1.57-10.74S60.75,30,55.92,37Z"/><g class="cls-17"><path d="M72.92,12.08a1.89,1.89,0,0,0-1.35,1.43,8,8,0,0,0-.12,2.08A13.33,13.33,0,0,1,70.72,20l-3-6-.18-.37a7.61,7.61,0,0,0,.52,1.21l3,6a13.32,13.32,0,0,0,.72-4.38,7.93,7.93,0,0,1,.13-2.07,1.92,1.92,0,0,1,1.35-1.44A9.24,9.24,0,0,1,73.84,14,8.62,8.62,0,0,0,72.92,12.08Z"/><path d="M88.48,4.78a3.3,3.3,0,0,1,0,1.68,2.13,2.13,0,0,1-.4.74,2.92,2.92,0,0,1-2.12.66l-5.19.19a4.74,4.74,0,0,0-1.24.16,3.68,3.68,0,0,0-2.28,3.55c-.06,1.46-.9,3.1-2.54,3.23a.63.63,0,0,1-.46-.11h0c0,.15.1.3.14.45a.7.7,0,0,0,.2.4.62.62,0,0,0,.46.1c1.65-.13,2.47-1.74,2.54-3.22a3.68,3.68,0,0,1,2.28-3.55,4.74,4.74,0,0,1,1.24-.16l5.19-.19a2.94,2.94,0,0,0,2.12-.66,2.13,2.13,0,0,0,.4-.74A3.24,3.24,0,0,0,88.48,4.78Z"/></g><path class="cls-10" d="M80,97a8.71,8.71,0,0,1,2.7-1c.75,0,7.5,8.63,7.5,8.63Z"/><path class="cls-10" d="M60.06,39s-3.57,1.52-3.47,2.57S60.06,39,60.06,39Z"/><path class="cls-10" d="M58.32,44s-3.73,4.77-2.91,4.93S58.32,44,58.32,44Z"/><path class="cls-10" d="M70.82,51.11s.34,10.68-2.4,12Z"/><path class="cls-10" d="M56.58,79.63s2.64-1.5,3.24-1.2S56.58,79.63,56.58,79.63Z"/><path class="cls-10" d="M57,81.7a7.17,7.17,0,0,0,2.46-.22C60.28,81.13,57,81.7,57,81.7Z"/><path class="cls-10" d="M96.77,42.36s2.07,5.93,3.26,5.93"/><path class="cls-10" d="M67.41,156s3.88-1.06,4.45,0S67.41,156,67.41,156Z"/><path class="cls-10" d="M55.1,140.38s-1,1.48.31,1.93S55.1,140.38,55.1,140.38Z"/><path class="cls-10" d="M80.83,119.76s2.92,2.61,4.3,2.68S80.83,119.76,80.83,119.76Z"/><path class="cls-5" d="M196,13.06s-18.93-1.15-16.7,12.12A3.23,3.23,0,0,0,181,28.59s0-1,1.94-.65A8.88,8.88,0,0,0,185,28a4.29,4.29,0,0,0,2.51-1h0s5.32-2.2,7.39-10.9c0,0,1.54-1.9,1.47-2.39l-3.19,1.37a5.69,5.69,0,0,1,.22,4.22s-.1-4.14-.71-4c-.13,0-1.67.8-1.67.8s1.88,4,.46,6.93c0,0,.54-4.95-1-6.64l-2.25,1.31s2.2,4.15.71,7.53c0,0,.38-5.19-1.18-7.21l-2,1.59s2.06,4.09.81,6.9c0,0-.17-6-1.25-6.5a12.83,12.83,0,0,0-2.06,2.21s1.42,3,.54,4.54c0,0-.54-4-1-4a13.3,13.3,0,0,0-2,4.5,9.74,9.74,0,0,1,1.53-4.75,5.29,5.29,0,0,0-2.72,1.41s.28-1.89,3.15-2a12,12,0,0,1,1.86-2.15,11.71,11.71,0,0,0-4.61.53s1.53-1.78,5.13-1l2-1.64s-3.78-.52-5.38.05c0,0,1.85-1.57,5.92-.43l2.19-1.31a20.23,20.23,0,0,0-5.13-.45s2-1.09,5.77.09l1.58-.7s-2.36-.46-3-.53-.73-.27-.73-.27a8.18,8.18,0,0,1,4.43.49A20.52,20.52,0,0,0,196,13.06Z"/><path class="cls-5" d="M158.41,10.51S149.86,10,150.86,16a1.48,1.48,0,0,0,.76,1.55s0-.45.88-.3a4.12,4.12,0,0,0,.93.05,2,2,0,0,0,1.12-.47h0s2.41-1,3.34-4.93c0,0,.69-.85.68-1.07l-1.45.61a2.59,2.59,0,0,1,.1,1.91s0-1.87-.32-1.83c-.06,0-.75.36-.75.36a4.25,4.25,0,0,1,.2,3.14s.25-2.24-.47-3l-1,.6a4.49,4.49,0,0,1,.32,3.4s.17-2.34-.54-3.26l-.92.72s.94,1.85.37,3.12c0,0-.08-2.73-.57-2.94a5.57,5.57,0,0,0-.92,1s.63,1.35.24,2.05c0,0-.24-1.82-.45-1.83a6.22,6.22,0,0,0-.89,2,4.32,4.32,0,0,1,.7-2.15,2.43,2.43,0,0,0-1.24.64s.13-.85,1.43-.93a6.12,6.12,0,0,1,.84-1,5.24,5.24,0,0,0-2.08.24,2.37,2.37,0,0,1,2.32-.45l.9-.74a7.72,7.72,0,0,0-2.43,0,2.94,2.94,0,0,1,2.67-.19l1-.59a9.1,9.1,0,0,0-2.32-.2,3.59,3.59,0,0,1,2.61,0l.71-.32s-1.06-.21-1.38-.24-.32-.12-.32-.12a3.8,3.8,0,0,1,2,.22A8.9,8.9,0,0,0,158.41,10.51Z"/><ellipse class="cls-1" cx="191.94" cy="162.19" rx="6.06" ry="1.02"/><ellipse class="cls-1" cx="7.59" cy="146.95" rx="6.06" ry="1.02"/><ellipse class="cls-1" cx="187.73" cy="142.37" rx="6.06" ry="1.02"/><ellipse class="cls-1" cx="31.01" cy="152.44" rx="6.06" ry="1.02"/><ellipse class="cls-1" cx="160.73" cy="153.32" rx="6.06" ry="1.02"/><ellipse class="cls-5" cx="178.69" cy="173.15" rx="9.04" ry="1.53"/><path class="cls-5" d="M182.42,170.65a2.57,2.57,0,0,0,.87-1.3,1.16,1.16,0,0,0-.61-1.32,1.69,1.69,0,0,0-1.59.56,2.17,2.17,0,0,1-1.55.75,2.36,2.36,0,0,0,.73-2.21.84.84,0,0,0-.2-.45c-.31-.33-.87-.19-1.23.07-1.17.82-1.5,2.41-1.51,3.84a8.24,8.24,0,0,1,0-1.57,1.6,1.6,0,0,0-.59-1.4,1.79,1.79,0,0,0-.9-.22,1.93,1.93,0,0,0-1.47.42,1.45,1.45,0,0,0,.06,1.8,5.52,5.52,0,0,0,1.52,1.22,3.28,3.28,0,0,1,1.09,1,1,1,0,0,1,.08.18h3.29A8.89,8.89,0,0,0,182.42,170.65Z"/><path class="cls-5" d="M31.33,127.29s1.23,1.61-.57,4-3.3,4.5-2.7,6c0,0,2.72-4.53,4.95-4.6S33.77,130,31.33,127.29Z"/><path class="cls-10" d="M31.33,127.29a2.41,2.41,0,0,1,.25.51c2.16,2.54,3.32,4.91,1.24,5s-4.26,3.52-4.82,4.39l.06.2s2.73-4.53,4.95-4.59S33.77,130,31.33,127.29Z"/><path class="cls-18" d="M33.62,129.35c0,.57-.06,1-.14,1s-.14-.45-.14-1,.08-.3.16-.3S33.62,128.79,33.62,129.35Z"/><path class="cls-18" d="M34.41,130c-.5.28-.93.44-1,.37s.34-.34.84-.62.3-.07.33,0S34.91,129.76,34.41,130Z"/><path class="cls-5" d="M24.8,127.29s-1.24,1.61.57,4,3.3,4.5,2.7,6c0,0-2.72-4.53-4.95-4.6S22.36,130,24.8,127.29Z"/><path class="cls-10" d="M24.8,127.29a2,2,0,0,0-.25.51c-2.17,2.54-3.32,4.91-1.24,5s4.26,3.52,4.82,4.39a1.18,1.18,0,0,1-.07.2s-2.72-4.53-4.94-4.59S22.36,130,24.8,127.29Z"/><path class="cls-18" d="M22.5,129.35c0,.57.07,1,.15,1s.14-.45.14-1-.08-.3-.16-.3S22.5,128.79,22.5,129.35Z"/><path class="cls-18" d="M21.72,130c.5.28.93.44,1,.37s-.34-.34-.84-.62-.3-.07-.34,0S21.22,129.76,21.72,130Z"/><path class="cls-19" d="M22.9,137.16s3.45-.11,4.5-.85,5.31-1.63,5.57-.44,5.19,5.92,1.29,5.95-9.06-.61-10.1-1.24S22.9,137.16,22.9,137.16Z"/><path class="cls-20" d="M34.33,141.41c-3.9,0-9.07-.61-10.11-1.25-.79-.48-1.1-2.21-1.21-3H22.9s.22,2.79,1.25,3.42,6.21,1.28,10.11,1.24c1.12,0,1.51-.4,1.49-1C35.59,141.17,35.16,141.4,34.33,141.41Z"/></svg>