<svg id="Layer_1" data-name="Layer 1" xmlns="http://www.w3.org/2000/svg" viewBox="0 0 217 153"><defs><style>.cls-1,.cls-8{fill:#087fbd;}.cls-1,.cls-3{opacity:0.1;isolation:isolate;}.cls-2{fill:#be6f72;}.cls-4{fill:#3f3d56;}.cls-5{fill:#fbbebe;}.cls-6{fill:#e3e8f4;}.cls-7{fill:#f86d70;}.cls-9{opacity:0.2;}</style></defs><title>vector image </title><path class="cls-1" d="M229.55,101.21c-2.31,6.36-7.15,12.1-12.35,17.53q-6.85,7.17-14.67,13.86c-1.44,1.23-2.91,2.46-4.4,3.66l-1,.83c-.92.75-1.85,1.48-2.8,2.21l-.11.08q-1.38,1.08-2.79,2.13a75.1,75.1,0,0,1-9.88,6.46c-1.22.65-2.48,1.25-3.78,1.79-.7.29-1.42.56-2.16.82a38.48,38.48,0,0,1-3.73,1.08l-.65.14a38.47,38.47,0,0,1-4,.64,54.65,54.65,0,0,1-15-.75c-2.48-.44-4.92-1-7.28-1.67l-.87-.23c-8-2.29-15.59-5.41-23.69-7.6q-4.18-1.14-8.54-1.93-2.11-.39-4.26-.69c-3.37-.48-6.78-.8-10.21-1a54.93,54.93,0,0,0-13.78.79c-.58.13-1.16.26-1.73.42s-1.43.41-2.13.66A34.88,34.88,0,0,0,74.2,143l-1,.59h0c-1.08.62-2.14,1.26-3.22,1.89a38.15,38.15,0,0,1-6,2.92,28.23,28.23,0,0,1-3.48,1,45,45,0,0,1-9.72,1c-1.6,0-3.2,0-4.78-.13h0c-.54,0-1.09-.07-1.63-.12-2.47-.19-4.93-.49-7.36-.89-8.31-1.39-16.2-4-22.54-8C5.73,135.83.26,127.71,1.08,119.6c.59-5.85,4.25-11.28,7.72-16.59,6.47-9.9,12.52-20,15.7-30.69,2.59-8.66,3.36-17.81,9.3-25.6A32.5,32.5,0,0,1,41,40a43.66,43.66,0,0,1,6.64-3.84,53.16,53.16,0,0,1,8-3,57.76,57.76,0,0,1,7.18-1.54c1.31-.19,2.64-.34,4-.44,1-.09,2.07-.14,3.1-.16h.17c.63,0,1.27,0,1.9,0a78.32,78.32,0,0,1,13.82,1.48c2.86.55,5.69,1.22,8.47,1.95q2.48.66,4.92,1.38l1.48.44c11.57,3.54,21.75,8.43,32.89,12.43l.17.06h0a61.24,61.24,0,0,0,7,2q2.59.59,5.29,1c2.74.47,5.55.83,8.38,1.15L155,53c4.15.46,8.33.81,12.4,1.21,1.44.14,2.87.29,4.28.46.9.11,1.78.21,2.66.33l1.9.25,1.95.28,1.26.19c2.56.39,5.12.82,7.65,1.32,1.53.3,3.06.62,4.57,1,1.09.25,2.18.52,3.25.8.8.2,1.59.42,2.37.65a67.58,67.58,0,0,1,17.45,7.45C228,75.29,234,89.06,229.55,101.21Z"/><circle class="cls-1" cx="53.35" cy="14.73" r="4.63"/><circle class="cls-1" cx="148.03" cy="4.63" r="4.63"/><circle class="cls-1" cx="204.17" cy="15.01" r="4.63"/><circle class="cls-1" cx="7.79" cy="25.93" r="7.76"/><circle class="cls-1" cx="15.23" cy="64.27" r="7.76"/><circle class="cls-1" cx="223.59" cy="50.16" r="7.76"/><path class="cls-2" d="M75.91,51.26a8.52,8.52,0,0,1-.11,2c-.43,2-2.24,3.35-4,4.39s-3.69,2-4.73,3.77a6.4,6.4,0,0,0,.62,6.93,10.24,10.24,0,0,0,6.22,3.64,14.43,14.43,0,0,0,12.49-3.41,13.65,13.65,0,0,0,4.14-12.21c-1.79.25-3.38-1.32-4-3s-.46-3.56-.68-5.35a1.85,1.85,0,0,0-.27-.86,1.87,1.87,0,0,0-1.1-.6c-2.07-.57-5.54-1.81-7.68-1.34C74.93,45.58,75.88,49.64,75.91,51.26Z"/><path class="cls-3" d="M75.91,51.26a8.52,8.52,0,0,1-.11,2c-.43,2-2.24,3.35-4,4.39s-3.69,2-4.73,3.77a6.4,6.4,0,0,0,.62,6.93,10.24,10.24,0,0,0,6.22,3.64,14.43,14.43,0,0,0,12.49-3.41,13.65,13.65,0,0,0,4.14-12.21c-1.79.25-3.38-1.32-4-3s-.46-3.56-.68-5.35a1.85,1.85,0,0,0-.27-.86,1.87,1.87,0,0,0-1.1-.6c-2.07-.57-5.54-1.81-7.68-1.34C74.93,45.58,75.88,49.64,75.91,51.26Z"/><path class="cls-2" d="M73.42,146.07a43.46,43.46,0,0,1-6.37,2.7,35.06,35.06,0,0,1-3.66.94,22.6,22.6,0,0,1,.27-4.93,27,27,0,0,0,.48-2.81,7.42,7.42,0,0,0-.85-3.95,34.33,34.33,0,0,1,7.05-.7h.15a2.66,2.66,0,0,1,.84.16,2.21,2.21,0,0,1,.9.79,4.32,4.32,0,0,1,.34.53,8.28,8.28,0,0,1,1,3.91A26.74,26.74,0,0,1,73.42,146.07Z"/><path class="cls-2" d="M85.91,140.8c-.77.18-1.51.38-2.25.61a40.08,40.08,0,0,0-5.76,2.37,8.2,8.2,0,0,1-.17-1.78,9.9,9.9,0,0,1,7.57-1.55,1.06,1.06,0,0,1,.48.19A1,1,0,0,1,85.91,140.8Z"/><path class="cls-4" d="M89.59,130a16.52,16.52,0,0,1-.86,4.12c-.54,1.41-1.41,2.78-1.3,4.29,0,.66.27,1.37.3,2-.61.11-1.22.24-1.82.38-.76.18-1.51.38-2.25.61a40,40,0,0,0-5.75,2.37l-1.1.55h0l-.44-.07a4.43,4.43,0,0,1-2.81-1.54,2.74,2.74,0,0,1-.32-.64c-.35-1,0-2.34-.71-3.17l0,0,0,0a7.55,7.55,0,0,1-1.3.94h0a8.75,8.75,0,0,1-7.07.68,8.34,8.34,0,0,1-1.33-.6,3.12,3.12,0,0,1-1.85-2.62,8.43,8.43,0,0,0,.31-1.84,3.85,3.85,0,0,0-.58-1.21c-1.43-2.57.27-5.87-.63-8.66l-.06-.2c-.07-.18-.14-.36-.22-.53-.18-.41-.39-.81-.55-1.23a7.13,7.13,0,0,1-.32-1.09,13.7,13.7,0,0,1-.22-3.26,34.16,34.16,0,0,1,1.25-8.59c.13-.49.28-1.19.47-2h0a14.86,14.86,0,0,1,.76-2.34,3,3,0,0,1,1.81-1.95c1.19-.29,3,.31,4.24.45l4.81.58,9.62,1.15a10.64,10.64,0,0,1,4.77,1.36l.26.19a5.68,5.68,0,0,1,1,1c.09.12.19.25.28.39a8.68,8.68,0,0,1,.79,1.51c1.19,2.87,1.22,6.06,1.23,9.17A94.87,94.87,0,0,1,89.59,130Z"/><path class="cls-3" d="M71.16,139.91c-.29-1.11-.9-2.73-1-3.17a41.88,41.88,0,0,1-.66-4.45c-.24-2.67-.66-6.43.28-9A6.2,6.2,0,0,1,71.86,126c1.48,3.3-.19,7.35,1.21,10.69a2.05,2.05,0,0,1,.19.64,1.59,1.59,0,0,1-.3.79l-.47.78Z"/><path class="cls-2" d="M102,38c1.58-2.57,3.73-5.1,3.6-8.11a15.9,15.9,0,0,0-.67-3.16,20.17,20.17,0,0,1-.15-9.27,10.49,10.49,0,0,1,7.58,1.69A4.39,4.39,0,0,1,114,21.06a5.53,5.53,0,0,1,.19,2.33c-.12,1.81-.28,3.73-1.39,5.14-.35.45-.77.82-1.11,1.27A8.54,8.54,0,0,0,110.66,32L107,41.9c-1.83,5-3.82,10.21-7.87,13.66-.1.09-3-4-3.24-4.44-1-1.7-.55-2.41.63-3.83C98.85,44.49,100.11,41.1,102,38Z"/><path class="cls-5" d="M60.28,122.45a16.34,16.34,0,0,1-.19,2.21c0,.27-.08.54-.14.8-.73,3.81-2.54,7.44-3.82,11.15a65,65,0,0,0-3,14c-1.69,0-3.38,0-5-.13H48l-1.71-.1c.52-4.54-.43-9.31.49-13.85.38-1.83,1-3.61,1.4-5.43.11-.53.2-1.07.26-1.62A4.53,4.53,0,0,1,48.8,128a.54.54,0,0,1,.07-.13,3.48,3.48,0,0,1,.76-.86,18.79,18.79,0,0,1,9.22-4.4C59.33,122.54,59.81,122.48,60.28,122.45Z"/><path class="cls-3" d="M60.28,122.45a16.34,16.34,0,0,1-.19,2.21c0,.27-.08.54-.14.8-.73,3.81-2.54,7.44-3.82,11.15a65,65,0,0,0-3,14c-1.69,0-3.38,0-5-.13H48l-1.71-.1c.52-4.54-.43-9.31.49-13.85.38-1.83,1-3.61,1.4-5.43.11-.53.2-1.07.26-1.62A4.53,4.53,0,0,1,48.8,128a.54.54,0,0,1,.07-.13,3.48,3.48,0,0,1,.76-.86,18.79,18.79,0,0,1,9.22-4.4C59.33,122.54,59.81,122.48,60.28,122.45Z"/><path class="cls-5" d="M49.42,132.21a32.64,32.64,0,0,1-.29,3.56c-.58,4.82-.68,9.85-1.07,14.74-.57,0-1.15-.06-1.72-.11-2.6-.17-5.2-.45-7.75-.82.19-1.11.39-2.21.59-3.31a18.21,18.21,0,0,0,.42-4.09,23.93,23.93,0,0,0-.69-3.82c-.59-2.72-.92-5.66-1.89-8.22a10.7,10.7,0,0,0-2.37-3.86c4-1.57,7.87-1.66,12.18-1.5a1.6,1.6,0,0,1,.88.22,1.57,1.57,0,0,1,.44.66,16.85,16.85,0,0,1,1.2,4.89A15.25,15.25,0,0,1,49.42,132.21Z"/><circle class="cls-2" cx="81.75" cy="41.8" r="8.35"/><path class="cls-6" d="M83.48,61.32c1.07-1.82,2-4.11,4.07-4.61a6.29,6.29,0,0,1,3.51.49,1.75,1.75,0,0,1,.86.5,1.7,1.7,0,0,1,.25.88,58.17,58.17,0,0,1,0,11.35c-.27,2.67-.73,5.33-.81,8-.12,3.72.5,7.44.29,11.15a50.4,50.4,0,0,1-1.38,8.34L87.67,109a2,2,0,0,1-.41,1,1.92,1.92,0,0,1-.76.43,28.19,28.19,0,0,1-22.83-1.79,6.89,6.89,0,0,1-2.46-2,5.73,5.73,0,0,1-.66-4.34c.28-1.48.88-2.87,1.29-4.32A33.58,33.58,0,0,0,62.75,91a54.47,54.47,0,0,0,0-9.21c-.22-2.1-.69-4.17-1-6.26a69.07,69.07,0,0,1-.9-9.52c-.05-1.9,0-4,1.35-5.39a6.09,6.09,0,0,1,2.37-1.39,7,7,0,0,1,4.58-.37,3.29,3.29,0,0,1,2.32,3.56c-.17.71-.62,1.33-.73,2A2.92,2.92,0,0,0,71.81,67C75.67,70.5,81.56,64.63,83.48,61.32Z"/><path class="cls-4" d="M83.79,52.79a6.35,6.35,0,0,1,3.66-.22,3.54,3.54,0,0,0,2.32.17c.26-.13.47-.33.74-.44.7-.32,1.62.07,2.24-.39a2.15,2.15,0,0,0,.66-1.27,11.34,11.34,0,0,1,3.78-5.72c-.23,1.64-.39,3.51.69,4.76a4.83,4.83,0,0,0,1.89,1.21,5.68,5.68,0,0,0,3.19.45,2.75,2.75,0,0,0,2.22-2.1c0,1.61-1.57,2.74-2,4.3-.16.58-.15,1.2-.26,1.79a9.91,9.91,0,0,1-2.32,4A28.16,28.16,0,0,0,95,72.84a6.7,6.7,0,0,1-.37,1.71,10.63,10.63,0,0,1-.71,1.23c-1.57,2.65-1.08,6-.55,9a128.55,128.55,0,0,0,3,14A4.86,4.86,0,0,0,97.45,101c-.18,1.87-2.07,2.72-3.77,3.53a18.48,18.48,0,0,0-4.58,3.1,3.64,3.64,0,0,0-1.15,1.6,18.51,18.51,0,0,1-.26,1.84c-.21.59-1.07,1-1.45.52-.47-1.77.34-3.61.3-5.44,0-1.23-.43-2.42-.48-3.66a11.51,11.51,0,0,1,.79-4.08c1.21-3.69,2.68-7.34,3.11-11.2s-.37-8.06-3.11-10.82c-3.25-3.28-5-7.73-8.53-10.74-.55-.48-1.18-1.07-1.09-1.79a2.12,2.12,0,0,1,.41-.87c1.2-1.69,2.79-3.07,4.07-4.68S84,54.84,83.79,52.79Z"/><path class="cls-4" d="M72.36,56.24a8.27,8.27,0,0,1-.61.7,2,2,0,0,1-1,.29,28.54,28.54,0,0,1-3.8.34,11.87,11.87,0,0,0-3.21.2,5.77,5.77,0,0,0-3.31,2.85,14,14,0,0,0-1.33,4.26,56.85,56.85,0,0,0-1,9.82,25.6,25.6,0,0,0,4.68-4.85A14,14,0,0,1,66.26,66c.67-.43,1.43-.71,2.11-1.13a12.26,12.26,0,0,0,3.34-3.64c.69-1,2.7-3,2.86-4.19A1.23,1.23,0,0,0,72.36,56.24Z"/><path class="cls-4" d="M79.82,36.08a8,8,0,0,1,.76.53c1.45,1,3.4.83,5.15.6a3.94,3.94,0,0,0,1.56-.43,2.45,2.45,0,0,0,1-2.27,4.48,4.48,0,0,0-1-2.36A8.47,8.47,0,0,0,81.41,29a3.76,3.76,0,0,0-1.76.18,14.13,14.13,0,0,0-1.85,1.27c-1.88,1.15-4.78.64-6,2.48-.89,1.37-.26,3.22-.68,4.78-.31,1.17-1.21,2.24-1,3.43a5.73,5.73,0,0,0,.82,1.78,7.79,7.79,0,0,1,1,4.33c.83.58,2-.32,2.21-1.31s0-2,.16-3c.34-1.74,1.88-3,2.57-4.6C77.32,37.14,78.13,35.22,79.82,36.08Z"/><path class="cls-5" d="M59.57,55.09a1.57,1.57,0,0,0,.11,1.15c.43.65,1.41.42,2.18.51a3,3,0,0,1,2.32,2.48,8.29,8.29,0,0,1-.35,3.59q-1,4-2.46,7.86c-2.56-.3-5.25-1.28-6.6-3.46-1.24-2-1.11-4.52-1.9-6.72a16.59,16.59,0,0,0-2.51-4.22c1.57.19,2.69-1.6,2.78-3.18s-.4-3.19-.06-4.73c.08-.37,6.26.79,6.87,1.21C61.68,50.78,59.84,53.42,59.57,55.09Z"/><path class="cls-3" d="M59.57,55.09a1.57,1.57,0,0,0,.11,1.15c.43.65,1.41.42,2.18.51a3,3,0,0,1,2.32,2.48,8.29,8.29,0,0,1-.35,3.59q-1,4-2.46,7.86c-2.56-.3-5.25-1.28-6.6-3.46-1.24-2-1.11-4.52-1.9-6.72a16.59,16.59,0,0,0-2.51-4.22c1.57.19,2.69-1.6,2.78-3.18s-.4-3.19-.06-4.73c.08-.37,6.26.79,6.87,1.21C61.68,50.78,59.84,53.42,59.57,55.09Z"/><circle class="cls-5" cx="58.19" cy="44.16" r="8.35"/><path class="cls-4" d="M55.62,53.9c.3-.48-.22-1.14,0-1.66.14-.3.5-.44.78-.64a2.86,2.86,0,0,0,.8-1.05,12.16,12.16,0,0,0,1.12-8.12c-.2-.93-.38-2.16.47-2.57a1.49,1.49,0,0,1,.75-.13c1.52.05,3,1.07,4.48.71a2.58,2.58,0,0,0,1.88-2.24c.1-1.39-.94-2.57-2-3.51-1.83-1.68-4.63-2.06-7.12-2.1l-4.64-.08c-1.48,0-3.15,0-4.18,1.09-1.49,1.53-.74,4-1,6.16a6.45,6.45,0,0,1-2.36,4.31c-1,.77-2.28,1.5-2.27,2.73a4.64,4.64,0,0,0,.3,1.22,5.88,5.88,0,0,1-.88,4.78,12.7,12.7,0,0,1-3.62,3.42,10.81,10.81,0,0,0-2.08,1.67,4.94,4.94,0,0,0-1.08,2.77,3.71,3.71,0,0,0,.45,2.24c.91,1.44,3.08,1.66,4.57.82a7.42,7.42,0,0,0,3-4c.36-.95.72-2,1.64-2.46,1.17-.54,2.53.31,3.29,1.35s1.22,2.31,2.19,3.15a3.93,3.93,0,0,0,5.4-.44,6.85,6.85,0,0,0,0-7.39Z"/><path class="cls-7" d="M58.62,64.78A3.09,3.09,0,0,1,56,63.86a10.58,10.58,0,0,1-1.69-2.38,41.41,41.41,0,0,0-4.31-6c-1.41-1.62-3.36-3.27-5.45-2.77a5.15,5.15,0,0,0-1.9,1,13.84,13.84,0,0,0-5.17,12.37c.16,1.37.53,2.7.68,4.07a24.14,24.14,0,0,1,.09,3.4c-.05,3.45-.17,7.11-2,10-2.89,4.5-4.43,9.87-6.55,14.78a50.46,50.46,0,0,0-2.5,8.29c-.4,1.67-.8,3.33-1.19,5l-2.6,10.9a7.41,7.41,0,0,0-.25,3.43,5.09,5.09,0,0,0,3.67,3.33,19.79,19.79,0,0,0,5.16.41,28.75,28.75,0,0,1,9.74,1.59,10.53,10.53,0,0,0,2.71.8,6.3,6.3,0,0,0,2.77-.52c2.42-.93,4.49-2.57,6.71-3.89a27.06,27.06,0,0,1,4.37-2.11,4.85,4.85,0,0,0,2.1-1.18,3.76,3.76,0,0,0,.71-1.68c.72-3.38.23-6.87,0-10.32s-2.3-7.08-.6-10.08a7.71,7.71,0,0,0,.93-1.86c.23-.88,0-1.82.23-2.71a13.67,13.67,0,0,1,.73-1.87,10,10,0,0,0,.46-3.49A38.37,38.37,0,0,0,62,84.71c-.68-3.21,1.55-6.39,2.83-9.42A15,15,0,0,0,66.1,72a10,10,0,0,0-.22-3.17,29,29,0,0,1-.3-4.92,16.31,16.31,0,0,0-.15-4.42,4,4,0,0,0-2.81-3.13,1.15,1.15,0,0,0-1,.15,1.17,1.17,0,0,0-.34.6,31.87,31.87,0,0,0-.64,4.5C60.4,63.12,60.09,64.46,58.62,64.78Z"/><path class="cls-4" d="M82.59,41.48a10.16,10.16,0,0,1-1.56,0,.34.34,0,0,0-.38.29l-1,7.47A2.87,2.87,0,0,1,79,50.76a3.25,3.25,0,0,0-.72,2.47V65.92s-.07,1.69,1.23,1.69a18.41,18.41,0,0,0,4.69,0s1-.2,1-1.76V53.36a3.11,3.11,0,0,0-.64-2.49A3,3,0,0,1,84,49.4l-1-7.62A.35.35,0,0,0,82.59,41.48Z"/><path class="cls-3" d="M82.59,41.48a10.16,10.16,0,0,1-1.56,0,.34.34,0,0,0-.38.29l-1,7.47A2.87,2.87,0,0,1,79,50.76a3.25,3.25,0,0,0-.72,2.47V65.92s-.07,1.69,1.23,1.69a18.41,18.41,0,0,0,4.69,0s1-.2,1-1.76V53.36a3.11,3.11,0,0,0-.64-2.49A3,3,0,0,1,84,49.4l-1-7.62A.35.35,0,0,0,82.59,41.48Z"/><rect class="cls-8" x="78.65" y="53.46" width="6.31" height="10.67" rx="2.37"/><path class="cls-4" d="M103.8,9.2a9.11,9.11,0,0,1-1.42.65.34.34,0,0,0-.24.41l2,7.28a3,3,0,0,1,0,1.61,3.27,3.27,0,0,0,.28,2.56l4.89,11.71S109.84,35,111,34.5a18.9,18.9,0,0,0,4.33-1.81s.88-.58.28-2l-4.81-11.53a3.08,3.08,0,0,0-1.55-2.05A3.11,3.11,0,0,1,108.15,16l-3.89-6.64A.35.35,0,0,0,103.8,9.2Z"/><rect class="cls-8" x="106.59" y="20.15" width="6.31" height="10.67" rx="2.37" transform="translate(-1.35 44.23) rotate(-22.65)"/><path class="cls-5" d="M43.7,54.12c-2.3.94-3.21,3.9-2.67,6.32s2.17,4.46,3.75,6.38l4.44,5.42c1.23,1.5,2.57,3.08,4.44,3.6,2.74.76,5.48-1,7.84-2.55A118.2,118.2,0,0,1,84,61.56a7.8,7.8,0,0,0,2.2-1.14,4,4,0,0,0,1-4.71A4.72,4.72,0,0,0,83,53.12a5.62,5.62,0,0,0-4.43,2.28c-.5.66-.86,1.41-1.34,2.08a13.1,13.1,0,0,1-4.94,3.66,126.22,126.22,0,0,1-13.7,6,3.34,3.34,0,0,1-2.63.2,3.21,3.21,0,0,1-1.13-1.21,29.68,29.68,0,0,1-3.23-6.89c-.59-1.82-1.06-3.8-2.47-5.1a4.91,4.91,0,0,0-7.09.86s-1.75,2.56-.68,3.63S43.7,54.12,43.7,54.12Z"/><path class="cls-5" d="M163.81,45.25a6.54,6.54,0,0,1,.28,2.64c-.06,1.08-.33,2.35-1.34,2.77-.65.26-1.46.06-2,.46s-.68,1.51-.57,2.36c.31,2.31.65,4.72,1.91,6.68a14.44,14.44,0,0,0,2.53,2.77c1.86,1.67,3.89,3.31,6.33,3.87a2.14,2.14,0,0,0,2.28-.59c1.41-1.3,2.14-3.16,3.08-4.83a18.34,18.34,0,0,0,1.84-3.68,6.43,6.43,0,0,0-2-6.49c-.42-.35-.88-.65-1.28-1a6.58,6.58,0,0,1-1.93-3.75,16.56,16.56,0,0,1-.09-4.28,23.82,23.82,0,0,0-6.36.51,12.68,12.68,0,0,0-3.08.72C162.45,43.89,163.55,44.54,163.81,45.25Z"/><path class="cls-3" d="M163.81,45.25a6.54,6.54,0,0,1,.28,2.64c-.06,1.08-.33,2.35-1.34,2.77-.65.26-1.46.06-2,.46s-.68,1.51-.57,2.36c.31,2.31.65,4.72,1.91,6.68a14.44,14.44,0,0,0,2.53,2.77c1.86,1.67,3.89,3.31,6.33,3.87a2.14,2.14,0,0,0,2.28-.59c1.41-1.3,2.14-3.16,3.08-4.83a18.34,18.34,0,0,0,1.84-3.68,6.43,6.43,0,0,0-2-6.49c-.42-.35-.88-.65-1.28-1a6.58,6.58,0,0,1-1.93-3.75,16.56,16.56,0,0,1-.09-4.28,23.82,23.82,0,0,0-6.36.51,12.68,12.68,0,0,0-3.08.72C162.45,43.89,163.55,44.54,163.81,45.25Z"/><path class="cls-5" d="M151.86,51.56c-3.48-1.2-5.14-5.86-8.78-6.38-.57-.08-1.16,0-1.72-.18-2.1-.5-3-2.92-3.61-5a80.73,80.73,0,0,0-8.5-19.74c-1.6-2.57-4.13-4.68-5.28-7.5a5.9,5.9,0,0,0-.88-1.88c-.48-.51-1.5-.58-1.76.07a1.55,1.55,0,0,0,0,.71l.25,2.66-4.35-.39A2.48,2.48,0,0,0,116,14a2.1,2.1,0,0,0-1,1c-1.47,2.77.1,6.4,2.7,8.15,3,2.05,7.37,2.36,9.39,5.41,1.2,1.82,1.22,4.15,2,6.18.38,1,.93,1.86,1.37,2.8a55.29,55.29,0,0,1,1.91,5.61,49.59,49.59,0,0,0,3.68,7.63,19.68,19.68,0,0,0,3.77,5.32,18.71,18.71,0,0,0,3.59,2.36c3.1,1.69,6.75,3.31,10,2A22,22,0,0,0,151.86,51.56Z"/><path class="cls-5" d="M162.42,143.75c-.26,2.79-2,5.32-2.35,8-2.62-.41-5.19-.93-7.68-1.53l-.91-.22c1.41-3.85.18-8.17.55-12.27,0-.4.09-.79.16-1.18,3.23-1.1,6.14-2.57,9.52-2.14l.21,2.05c.13,1.37.27,2.74.4,4.11A16.78,16.78,0,0,1,162.42,143.75Z"/><path class="cls-5" d="M184.74,150.74c-1.27.38-2.57.72-3.93,1l-.68.13c-1.39.26-2.8.45-4.23.58-.14-3-2.14-5.71-2.43-8.77a13.36,13.36,0,0,1,0-2.28l.09-.9.6-6.16a10.06,10.06,0,0,1,1.45-.07c2.78.07,5.32,1.27,8.08,2.21a20,20,0,0,1,.21,3.94c-.1,3.34-.64,6.73.6,9.8C184.59,150.39,184.67,150.56,184.74,150.74Z"/><path class="cls-7" d="M148.59,103.76c.38,2.93-1.12,5.72-1.76,8.59a30.5,30.5,0,0,0-.55,5.81L146,129.83a10.17,10.17,0,0,0,.29,3.48,7,7,0,0,0,5.21,4.3,19.55,19.55,0,0,0,7-.05,7.22,7.22,0,0,0,3.29-1c1.3-.91,1.87-2.53,2.36-4l1.39-4.27c1.6,3.6.93,7.54,1.89,11.37a2.21,2.21,0,0,0,.42,1,2.46,2.46,0,0,0,1.68.56c4.2.29,8.45.59,12.58-.22a4.35,4.35,0,0,0,4.17-5.21c-.06-4.62-1.73-9.09-2.11-13.7-.16-2-.08-4-.15-6a36.81,36.81,0,0,0-.42-4.45,4.61,4.61,0,0,0-3.78-4.31C170,103.33,159.18,103.37,148.59,103.76Z"/><circle class="cls-5" cx="166.77" cy="37.09" r="9.21"/><path class="cls-6" d="M174.79,53.31c-.68,1.5-1.75,3-3.35,3.38a4.64,4.64,0,0,1-4.12-1.41,16.56,16.56,0,0,1-2.54-3.74A7,7,0,0,0,162.69,49a6.27,6.27,0,0,0-4.4-.56,20.77,20.77,0,0,1-4.49.58c-1.89-.13-3.82-1.08-5.61-.45a34.16,34.16,0,0,1,.31,8.09,3.75,3.75,0,0,1-.17,1.2,3.9,3.9,0,0,1-.63,1L146,61.08a10.68,10.68,0,0,1,4.07,5.38,13.64,13.64,0,0,1,.24,3.89c0,3.84.79,7.66.53,11.48-.31,4.49-2.1,8.72-3,13.12a34.31,34.31,0,0,0-.44,11.48A108.28,108.28,0,0,0,177,112c1.79.1,3.73.11,5.2-.92a5.65,5.65,0,0,0,2.14-3.8,17.17,17.17,0,0,0-.09-4.47l-1.32-12.06a38.61,38.61,0,0,1-.34-6.88,38,38,0,0,1,.82-5.07l2.14-10.29a21.8,21.8,0,0,1,1.22-4.3c.5-1.11,1.19-2.14,1.74-3.23a14.2,14.2,0,0,0,1.33-4.12,2.73,2.73,0,0,0,0-1.27,2.9,2.9,0,0,0-1.59-1.46,45.61,45.61,0,0,0-12.67-4.45A18.22,18.22,0,0,1,174.79,53.31Z"/><path class="cls-4" d="M173.91,47.14c1.07-2,3.07-3.49,4.23-5.49a8.12,8.12,0,0,0,.26-7.5,26.26,26.26,0,0,1-1.28-2.47c-.36-1-.39-2.09-.81-3.06a5.59,5.59,0,0,0-3.13-2.85,16.84,16.84,0,0,0-4.23-.94l-4.86-.66a5.4,5.4,0,0,0-2.12,0,1.79,1.79,0,0,0-1.38,1.46c-.07.84.67,1.63.5,2.45-.06.29-.23.59-.14.87a.9.9,0,0,0,.43.43,22.06,22.06,0,0,0,3.79,1.12c1.25.42,2.5,1.47,2.38,2.78-.07.71-.53,1.44-.22,2.07s1.07.7,1.69.88a4.53,4.53,0,0,1,3.12,4.82c-.09.64-.32,1.25-.37,1.9-.16,2.25.2,2.9,2,4.21Z"/><path class="cls-2" d="M186.41,56.9a3.11,3.11,0,0,1-.22,1.25c-.67,1.43-2.72,1.34-4.07,2.14-1.69,1-2.06,3.26-2.22,5.21a23.79,23.79,0,0,0,.16,6.64,8.9,8.9,0,0,0,3.37,5.57,8.57,8.57,0,0,0,7.78.66,17.42,17.42,0,0,0,6.49-4.75,20.75,20.75,0,0,0,4.24-6.37,2.09,2.09,0,0,0,.18-1.31c-.2-.65-.9-.94-1.47-1.29A6.47,6.47,0,0,1,198,61a15.87,15.87,0,0,1-.55-4.61c0-1.61,0-3.37-1-4.62a5.62,5.62,0,0,0-4.43-1.58c-1.33,0-5,.13-5.91,1.29C185.28,52.41,186.47,55.52,186.41,56.9Z"/><path class="cls-3" d="M186.41,56.9a3.11,3.11,0,0,1-.22,1.25c-.67,1.43-2.72,1.34-4.07,2.14-1.69,1-2.06,3.26-2.22,5.21a23.79,23.79,0,0,0,.16,6.64,8.9,8.9,0,0,0,3.37,5.57,8.57,8.57,0,0,0,7.78.66,17.42,17.42,0,0,0,6.49-4.75,20.75,20.75,0,0,0,4.24-6.37,2.09,2.09,0,0,0,.18-1.31c-.2-.65-.9-.94-1.47-1.29A6.47,6.47,0,0,1,198,61a15.87,15.87,0,0,1-.55-4.61c0-1.61,0-3.37-1-4.62a5.62,5.62,0,0,0-4.43-1.58c-1.33,0-5,.13-5.91,1.29C185.28,52.41,186.47,55.52,186.41,56.9Z"/><path class="cls-2" d="M175,114.34a1.8,1.8,0,0,0,.44.87,1.77,1.77,0,0,0,.72.34c7,2.06,14.54,1.24,21.82.4a41.55,41.55,0,0,1-2.28-9.28c-.23-2.62,0-5.35-.9-7.81-.27-.73-16.25,2.62-17.83,2.89-.8.14-1.73.09-2.3.73s-.75,2.62-.82,3.59A23.49,23.49,0,0,0,175,114.34Z"/><path class="cls-2" d="M191,148.33c-1.28.6-2.61,1.15-4,1.65-.75.27-1.5.52-2.28.76-1.27.38-2.57.72-3.93,1q-1.16-3-2.33-5.9c-.57-1.45-1.14-2.91-1.62-4.39a27.36,27.36,0,0,1-.81-3.08,21.88,21.88,0,0,1,.53-10.66c3,.56,5.87.93,8.79,1.35,1.56.21,3.13.47,4.71.77.13,1,.24,2.06.34,3.09.15,1.6.28,3.19.38,4.78C191,141.24,191.08,144.79,191,148.33Z"/><path class="cls-3" d="M191,148.33c-1.28.6-2.61,1.15-4,1.65-.75.27-1.5.52-2.28.76-1.27.38-2.57.72-3.93,1q-1.16-3-2.33-5.9c-.57-1.45-1.14-2.91-1.62-4.39a27.36,27.36,0,0,1-.81-3.08,21.88,21.88,0,0,1,.53-10.66c3,.56,5.87.93,8.79,1.35,1.56.21,3.13.47,4.71.77.13,1,.24,2.06.34,3.09.15,1.6.28,3.19.38,4.78C191,141.24,191.08,144.79,191,148.33Z"/><path class="cls-2" d="M207.47,139.05a14,14,0,0,1-.66,3.71l-.07.25a3.53,3.53,0,0,1-1.89-1.42,4.08,4.08,0,0,1-.51-1.19c-1,.66-1.94,1.32-2.93,2a80.32,80.32,0,0,1-10.41,6c-1.28.6-2.61,1.15-4,1.65-.29-1-.56-2-.82-3a28.3,28.3,0,0,1-.66-3.17,16.15,16.15,0,0,1,.71-7.2h0l.1-.28a15.32,15.32,0,0,1,1.4-2.95c.54-.86,1.59-.72,2.67-.43.49.12,1,.28,1.43.37,2.8.59,5.71,0,8.57.14a10.33,10.33,0,0,1,3.93,1,5.37,5.37,0,0,1,2.92,3.21,5,5,0,0,1,.14.65A4.74,4.74,0,0,1,207.47,139.05Z"/><path class="cls-2" d="M156,40.42a100.69,100.69,0,0,0-14.59-11.31,38.51,38.51,0,0,1-3.86-2.74c-1.28-1.07-2.4-2.33-3.77-3.29A6.24,6.24,0,0,0,129,21.77a3.4,3.4,0,0,0-2.85,3.52c.21,1.45,1.51,2.43,2.71,3.26a58,58,0,0,0,7,4.38,21.22,21.22,0,0,1,2.49,1.33,18.43,18.43,0,0,1,3.82,4,55.8,55.8,0,0,0,15.85,13.49c.07,0,2.6-5.42,2.5-6.13C160.34,44,157.11,41.55,156,40.42Z"/><path class="cls-4" d="M193.77,109.63c-3.41.21-6.69,1.37-10,2.1s-7,1-10.06-.43l1.88,12.87a5.78,5.78,0,0,1,.06,2.15,8.44,8.44,0,0,0-.48,2c.05,1.09,1.07,1.85,2,2.35a18.15,18.15,0,0,0,9.08,2.1c-.23.94-.52,1.87-.76,2.81,1.57,1.69,4.15,1.81,6.39,2.34,1.72.41,3.32,1.11,5,1.6a21,21,0,0,0,6.26.87,6.47,6.47,0,0,0,4.05-1.1c1.36-1.1,1.79-3,2.08-4.69a10.64,10.64,0,0,0,.22-2.92,11.88,11.88,0,0,0-1-3.21l-2.94-7.12c-.53-1.28-1.07-2.59-1.71-3.83C201.77,113.51,198.29,109.35,193.77,109.63Z"/><path class="cls-8" d="M196.38,65.17a3.22,3.22,0,0,1,3.37-2.05,6.35,6.35,0,0,1,2.35,1l4.09,2.56a17.27,17.27,0,0,1,1.95,1.34c2.82,2.34,3.91,6.18,4.22,9.83s0,7.37.72,11c-1.72,1.43-3.64,2.64-5.36,4.07a13.29,13.29,0,0,0-2.51,2.46c-.54.75-.93,1.62-1.5,2.35A5.65,5.65,0,0,1,200,99.82a4,4,0,0,1,1.71,2.65c.26,1,.33,2.14.61,3.19.38,1.43,1.18,2.74,1.44,4.19a24,24,0,0,1,.17,3.06c.34,5.27,4.48,9.88,4.21,15.16a22.94,22.94,0,0,1-5.5-2.89c-.76-.55-1.5-1.14-2.22-1.73L194.93,119a45,45,0,0,1-7.44-7c-1.33-1.69-2.41-3.55-3.73-5.24a11.51,11.51,0,0,0-5-3.92c-.3.45-.83.76-1.13,1.21a1,1,0,0,0-.12.23,1,1,0,0,0,.07.59,12.62,12.62,0,0,1,.43,2.66l.13,1.61a5.48,5.48,0,0,1,0,1.28,3.37,3.37,0,0,1-2.86,2.66,1.22,1.22,0,0,1-.6,0,1.3,1.3,0,0,1-.71-.92c-.54-1.83.29-3.76.36-5.66a14.05,14.05,0,0,0-.05-1.45l-.13-1.9c-1.25-.26-2-1.59-2.29-2.82-.89-3.31-1.79-6.74-1.27-10.13a8.76,8.76,0,0,0,.21-2.74c-.21-1.21-1.09-2.2-1.55-3.34-1.5-3.73,1.69-7.78,1.39-11.78-.12-1.68-1.19-3.14-1.83-4.7a12.85,12.85,0,0,0-1.29-2.6,14.9,14.9,0,0,0-2.39-2.44,89.48,89.48,0,0,1-7.54-7.42,5.58,5.58,0,0,1-3.24-1.48,3,3,0,0,1-1.05-2A1.59,1.59,0,0,1,154.65,50a5.14,5.14,0,0,1,1.32.3,3.27,3.27,0,0,0,3.4-2,9.36,9.36,0,0,0,.61-4.18,4,4,0,0,1,3.71,1.3A24,24,0,0,1,166,49a5.27,5.27,0,0,0,1.16,1.41c1,.82,2.52,1,3.42,1.93.45.49.7,1.13,1.12,1.66,1.18,1.47,3.32,1.65,4.93,2.62s2.72,2.73,4.5,3.31c.64.21,1.34.24,2,.48a4.41,4.41,0,0,1,2.57,3.66,13.14,13.14,0,0,1-.49,4.65l-.83,3.58a2.43,2.43,0,0,0,.27,2.31,2.24,2.24,0,0,0,.95.47c1.5.49,3.17,1,4.58.28a5.5,5.5,0,0,0,1.66-1.46A27.55,27.55,0,0,0,196.38,65.17Z"/><path class="cls-2" d="M213.29,138a6.4,6.4,0,0,1-3.14,4.79,4.53,4.53,0,0,1-3.41.23,3.53,3.53,0,0,1-1.89-1.42,4.08,4.08,0,0,1-.51-1.19s0,0,0-.06a9.42,9.42,0,0,1-.2-2.31,30.74,30.74,0,0,1,.21-3.59,19,19,0,0,1,.6-3c.39-1.39,1-2.72,1.49-4.07.28-.7.54-1.41.76-2.14h0c.13-.43.24-.87.33-1.31l0-.16c0-.09,0-.18,0-.27a12.7,12.7,0,0,1,.83-3.59c1.28-2.59,3.78-1.93,4.16.46a3.53,3.53,0,0,1,0,.56c.06,3-1.14,6-.59,9a20.76,20.76,0,0,0,.58,2.19,19.67,19.67,0,0,1,.5,2A11.52,11.52,0,0,1,213.29,138Z"/><path class="cls-8" d="M214.47,104.39a24,24,0,0,0,.24,3.7c.58,2.87,2.79,5.41,2.54,8.33a2.25,2.25,0,0,1-.94,1.83c-.62.35-1.65.32-1.85,1-.06.19,0,.41-.1.6a1.05,1.05,0,0,1-1.07.59,10.82,10.82,0,0,0-1.3-.12c-1.55.13-2.12,2.21-3.5,2.92a2.64,2.64,0,0,1-2.91-.49,3.63,3.63,0,0,1-1.05-2.86,23.46,23.46,0,0,1,.43-2.34,16.11,16.11,0,0,0,0-4.22,25.57,25.57,0,0,0-1.06-6.09c-.31-.92-.74-1.8-1-2.73a15.61,15.61,0,0,1-.53-4.09c-.08-2.9.12-6,1.85-8.33,1.3-1.74,3.16-3.16,4.63-4.78.92-1,1.19-1.33,2.2-.47a4.57,4.57,0,0,1,1.81,2.63c.26,2.45,0,4.85.46,7.35A56,56,0,0,1,214.47,104.39Z"/><circle class="cls-2" cx="192.25" cy="46.3" r="10.92"/><path class="cls-4" d="M202.25,67.19a1.65,1.65,0,0,1,.94-.77,1.6,1.6,0,0,1,.88.19l2.88,1.2a9.3,9.3,0,0,0,1.33-4.23,20.93,20.93,0,0,1,.17-2.75c.26-1.35,1.05-2.55,1.24-3.9a12.14,12.14,0,0,0-.28-3.28c-.49-3.37,0-6.8-.24-10.19s-1.64-7-4.67-8.58a27.77,27.77,0,0,0-2.67-1c-2-.75-3.76-2-5.72-2.78a7.57,7.57,0,0,0-6.17-.25c-1.9.94-3,3.58-1.78,5.31a6.54,6.54,0,0,0,1.58,1.38,5.71,5.71,0,0,1,2.61,3.25c.47,2.52-2.15,4.5-2.89,7a6.05,6.05,0,0,0-.07,3c.32,1.46,1.1,2.84,1.07,4.33,0,1.64-1,3.12-1.18,4.75-.07.6,0,1.21-.1,1.8a9.53,9.53,0,0,1-.69,2.28,68.4,68.4,0,0,1-6,12.46,16.42,16.42,0,0,0,7.84-1.83,12.74,12.74,0,0,1-2,4.61,14.79,14.79,0,0,0,6.14-2.14,20,20,0,0,1-1.95,4.63c.07-.13,1.42-.43,1.67-.57a2.93,2.93,0,0,0,1.18-1.26c.72-1.3,1.18-2.87,1.85-4.23A61.49,61.49,0,0,1,202.25,67.19Z"/><path class="cls-4" d="M119.42,1.65a11.61,11.61,0,0,1-1.56,0,.34.34,0,0,0-.37.29l-1,7.47a3.12,3.12,0,0,1-.64,1.48,3.21,3.21,0,0,0-.73,2.47V26.08s-.06,1.7,1.24,1.7a19.28,19.28,0,0,0,4.68,0s1-.2,1-1.76V13.52a3,3,0,0,0-.64-2.48,3.1,3.1,0,0,1-.62-1.47l-1-7.63A.33.33,0,0,0,119.42,1.65Z"/><rect class="cls-8" x="115.48" y="13.62" width="6.31" height="10.67" rx="2.37"/><path class="cls-4" d="M134.2,12.57a10.16,10.16,0,0,1-1.56,0,.35.35,0,0,0-.38.29l-1,7.47a3,3,0,0,1-.65,1.48,3.25,3.25,0,0,0-.72,2.47V37s-.07,1.69,1.23,1.69a19.37,19.37,0,0,0,4.69,0s1-.2,1-1.76V24.45a3.06,3.06,0,0,0-.64-2.49,3.06,3.06,0,0,1-.62-1.47l-1-7.63A.34.34,0,0,0,134.2,12.57Z"/><rect class="cls-8" x="130.26" y="24.54" width="6.31" height="10.67" rx="2.37"/><g class="cls-9"><path class="cls-4" d="M117.59,140.54a3.83,3.83,0,0,1-.08.68c-1.49-.23-3-.45-4.5-.64v-.18a3.68,3.68,0,0,1,.54-1.82,2.15,2.15,0,0,1,1.85-1.11,2.13,2.13,0,0,1,1.77,1.22A3.62,3.62,0,0,1,117.59,140.54Z"/><ellipse class="cls-4" cx="115.42" cy="136.81" rx="3" ry="2.29" transform="translate(-24.97 247.85) rotate(-88.19)"/><ellipse class="cls-4" cx="115.54" cy="133.14" rx="3" ry="2.29" transform="translate(-21.19 244.41) rotate(-88.19)"/><ellipse class="cls-4" cx="115.65" cy="129.48" rx="3" ry="2.29" transform="translate(-17.41 240.98) rotate(-88.19)"/><ellipse class="cls-4" cx="115.77" cy="125.81" rx="3" ry="2.29" transform="translate(-13.64 237.54) rotate(-88.19)"/><path class="cls-8" d="M108,100.44a10.74,10.74,0,0,1-.81-1.29l6-.8-6.51-.15a11,11,0,0,1,.06-8.71l8.59,4.81-7.87-6.17a11,11,0,1,1,18.69,11.55,13.43,13.43,0,0,1-.94,1.3,11.17,11.17,0,0,1,1.18,2l-7.94,3.81,8.42-2.53a11,11,0,0,1-2.1,10.26,11,11,0,1,1-17.25-.55,11,11,0,0,1,.43-13.57Z"/><path class="cls-3" d="M127.36,107.84a10.91,10.91,0,0,1-2.57,6.72,11,11,0,1,1-17.25-.55C106.13,112.1,127.4,106.61,127.36,107.84Z"/></g></svg>