<svg id="Layer_1" data-name="Layer 1" xmlns="http://www.w3.org/2000/svg" xmlns:xlink="http://www.w3.org/1999/xlink" viewBox="0 0 463 275"><defs><style>.cls-1,.cls-5{fill:#6c63ff;}.cls-1,.cls-6{opacity:0.2;}.cls-1,.cls-14,.cls-16,.cls-6{isolation:isolate;}.cls-2,.cls-6{fill:#f5f5f5;}.cls-3{fill:#087fbd;}.cls-4{fill:none;stroke:#535461;stroke-miterlimit:10;stroke-width:2px;}.cls-7{fill:url(#linear-gradient);}.cls-8{fill:#535461;}.cls-9{fill:#fff;}.cls-10{fill:url(#linear-gradient-2);}.cls-11{fill:url(#linear-gradient-3);}.cls-12{fill:url(#linear-gradient-4);}.cls-13{fill:#f7c4a7;}.cls-14{opacity:0.05;}.cls-15{fill:#575988;}.cls-16{opacity:0.1;}.cls-17{fill:#f3b5b7;}.cls-18{fill:#dddbe2;}.cls-19{fill:#fc6681;}</style><linearGradient id="linear-gradient" x1="347.03" y1="-1808.84" x2="347.03" y2="-1645.11" gradientTransform="matrix(1, 0, 0, -1, -82, -1602)" gradientUnits="userSpaceOnUse"><stop offset="0" stop-color="gray" stop-opacity="0.25"/><stop offset="0.54" stop-color="gray" stop-opacity="0.12"/><stop offset="1" stop-color="gray" stop-opacity="0.1"/></linearGradient><linearGradient id="linear-gradient-2" x1="256.99" y1="-1822.1" x2="256.99" y2="-1672.58" xlink:href="#linear-gradient"/><linearGradient id="linear-gradient-3" x1="207.52" y1="-1834.21" x2="207.52" y2="-1717.35" xlink:href="#linear-gradient"/><linearGradient id="linear-gradient-4" x1="425.21" y1="-1852.53" x2="425.21" y2="-1710.13" xlink:href="#linear-gradient"/></defs><title>vector image </title><path class="cls-1" d="M67.3,0a33.54,33.54,0,0,0-10.7,1A17.8,17.8,0,0,0,44.45,21.16c1.42,8,7.26,15,13.31,21.34S70.38,55.17,73.71,62.79c1.65,3.8,2.43,8.06.74,11.85-2.59,5.85-10.42,9.12-17.94,9.8S41.44,83.8,33.9,83.36a28.38,28.38,0,0,0-9.4.64A25.16,25.16,0,0,0,16,88.82C6.21,96.6-1.62,107.22-.35,118.37c1.43,12.64,14.21,22.63,28.2,28,4.64,1.79,9.54,3.21,13.62,5.75,10.74,6.68,13.16,19.22,12.09,30.28s-4.72,22.14-2.69,33.1c2.39,12.76,13,24.28,27.19,29.66,12.7,4.8,28.58,4.48,39.85-2.28,5.49-3.31,9.65-7.9,13.26-12.64a101.92,101.92,0,0,0,13.19-22.84c1.57-3.8,3-7.88,6.71-10.53a23.24,23.24,0,0,1,8-3.24c8.65-2.13,17.76-2.71,26.49-4.61s17.52-5.45,22.26-11.76c6.72-8.95,3.58-20.43,3.62-31,.05-24,17.51-45.52,24-68.94,2.1-7.65,2.89-16.12-1.81-22.95-3.2-4.63-8.58-8-14.24-10.56-12.45-5.68-26.61-8.21-40.52-10.67C159.48,29.75,136,29.3,121,18.24,106.6,7.61,86.92,0,67.3,0Z"/><ellipse class="cls-2" cx="255.16" cy="218.25" rx="208.19" ry="55.75"/><path class="cls-3" d="M428.05,83.66a38.3,38.3,0,0,0-7,39.85c9.06,23.8-15.53,63.39-15.53,63.39l.75-.13c32.95-5.82,49.32-43.5,31-71.49C430.48,104.87,424.89,92.68,428.05,83.66Z"/><path class="cls-4" d="M428.05,83.66s-9.05,19.66,0,35.7,1.56,61.07-22.51,67.54"/><path class="cls-5" d="M456.63,148.55s-18.31-2.92-20,13.49-35.2,18.67-35.2,18.67l.63.42c27.69,18.17,54.17,11.58,50.15-12.53C450.76,159.6,450.88,150.59,456.63,148.55Z"/><path class="cls-6" d="M456.63,148.55s-18.31-2.92-20,13.49-35.2,18.67-35.2,18.67l.63.42c27.69,18.17,54.17,11.58,50.15-12.53C450.76,159.6,450.88,150.59,456.63,148.55Z"/><path class="cls-4" d="M456.63,148.55s-14.21,3.13-13.05,16S422.48,193,401.45,180.7"/><path class="cls-7" d="M414.26,188H385.5a9.61,9.61,0,0,0,1-4.28v-131a9.63,9.63,0,0,0-9.63-9.63H154.21a9.62,9.62,0,0,0-9.64,9.62h0v131a9.65,9.65,0,0,0,1,4.29H115.8a2.55,2.55,0,0,0-2.55,2.55h0v2.05a14.25,14.25,0,0,0,14.25,14.23H402.56a14.25,14.25,0,0,0,14.25-14.24h0v-2.06A2.56,2.56,0,0,0,414.26,188ZM237,196.15l-2.45-2.8h61.21L293,196.16Z"/><rect class="cls-8" x="147.31" y="44.96" width="236.45" height="146.85" rx="10.41"/><rect class="cls-9" x="152.28" y="66.36" width="225.99" height="119.96"/><circle class="cls-9" cx="265.28" cy="55.91" r="1.99"/><path class="cls-8" d="M300.17,186.58l-7.76,8H237.65l-7-8H119.18a2.49,2.49,0,0,0-2.49,2.48v2A13.93,13.93,0,0,0,130.62,205H399.44a13.93,13.93,0,0,0,13.93-13.92v-2a2.49,2.49,0,0,0-2.49-2.48Z"/><path class="cls-10" d="M222.66,70.58H127.33a8.74,8.74,0,0,0-8.75,8.72V211.38a8.74,8.74,0,0,0,8.75,8.72h95.33a8.74,8.74,0,0,0,8.74-8.72V79.3A8.74,8.74,0,0,0,222.66,70.58Z"/><rect class="cls-8" x="119.92" y="72.37" width="110.14" height="146.4" rx="8.95"/><rect class="cls-9" x="125.52" y="86.22" width="98.94" height="118.71"/><circle class="cls-9" cx="174.54" cy="79.09" r="1.34"/><circle class="cls-9" cx="174.54" cy="211.61" r="4.03"/><path class="cls-11" d="M150,115.35H101a4.84,4.84,0,0,0-4.84,4.83h0v107.2a4.84,4.84,0,0,0,4.84,4.83h49a4.84,4.84,0,0,0,4.85-4.83h0V120.18a4.84,4.84,0,0,0-4.85-4.83Z"/><rect class="cls-8" x="96.64" y="116.25" width="57.75" height="115.51" rx="4.92"/><rect class="cls-9" x="100.89" y="126.99" width="49.25" height="94.02"/><circle class="cls-9" cx="119.7" cy="121.62" r="0.45"/><path class="cls-9" d="M122.38,121.17h9a.45.45,0,0,1,.44.45h0a.45.45,0,0,1-.44.45h-9a.45.45,0,0,1-.45-.45h0A.45.45,0,0,1,122.38,121.17Z"/><circle class="cls-9" cx="125.29" cy="225.49" r="3.13"/><path class="cls-4" d="M90.72,240.09s-5.93-20.15,1.12-35a31.85,31.85,0,0,0,2.59-20,53.8,53.8,0,0,0-2.83-9.37"/><path class="cls-3" d="M96,166.38c0,2.47-4.48,9.63-4.48,9.63S87,168.85,87,166.38a4.48,4.48,0,0,1,9,0Z"/><path class="cls-3" d="M103.38,180.07c-1.34,2.07-9,5.65-9,5.65s.14-8.44,1.48-10.52a4.48,4.48,0,0,1,7.73,4.52Z"/><path class="cls-3" d="M103,203.44c-2.21,1.11-10.61.35-10.61.35s4.38-7.22,6.58-8.33a4.47,4.47,0,0,1,4,8Z"/><path class="cls-3" d="M98.81,221.08c-2,1.46-10.4,2.13-10.4,2.13s3.1-7.86,5.09-9.32a4.47,4.47,0,0,1,5.31,7.19Z"/><path class="cls-3" d="M85,186.2c1.8,1.72,10,3.5,10,3.5s-2-8.19-3.79-9.91a4.48,4.48,0,1,0-6.54,6.12l.3.29Z"/><path class="cls-3" d="M80.3,206.88c2.21,1.11,10.62.35,10.62.35s-4.39-7.22-6.59-8.33A4.48,4.48,0,0,0,80,206.72l.34.17Z"/><path class="cls-3" d="M78.51,227.61c2,1.47,10.41,2.13,10.41,2.13s-3.1-7.85-5.09-9.32a4.48,4.48,0,0,0-5.32,7.19Z"/><path class="cls-12" d="M445,176c-5-6-11-12.93-10.12-20.93.68-6.47-.95-12.46-.63-19,.45-9.23-1.41-16.46-8.06-22.38-3.88-3.46-10.38-6.18-12.31-5.49-3.84,1.37-8,.85-12,1.8a11.86,11.86,0,0,0-6.23,3.13c-2.48,2.24-2.52,5.37-1.39,8.71a14.7,14.7,0,0,0,5.86,19.95,15.21,15.21,0,0,0,1.41.68c-2.76,1.15-5.15,3.81-6.08,9.21a63.22,63.22,0,0,1-2.93,10.89,18.57,18.57,0,0,1-1.79.72l.41.14c-.29.11-.58.22-.89.32a9.85,9.85,0,0,0,1.63.47,62.32,62.32,0,0,1-8.06,14.66s-8.35,1.84-11.6-1.39c0,0,.53.62,1.25,1.55-3.17-1.32-8.39-3.47-12.84-5.24-3.23-1.28-4.06,0-4,1.79a6,6,0,0,0-2.24.76,21.59,21.59,0,0,0-3-1.62c-1.86-.44-7.89-3.68-13.92,7.38C334,188.57,325,200.32,318.05,209c-13.45,6.19-31,14-37.47,16H276.4c-.54-.89-.92-1.46-.92-1.46l-.32.22-.14-.22s-8.2,5.68-16.52,5.72a16,16,0,0,1-3.51-.45,33.76,33.76,0,0,0-8.44-1.34c-2.28,0-3.58.5-4.37,1.52h0l-.29.42h0a4.92,4.92,0,0,0-.24.45h0c-.07.16-.15.33-.21.51a1.07,1.07,0,0,0,.26.87,3.94,3.94,0,0,0,.36.45l.24.25a36.84,36.84,0,0,0,5.33,4.12l2.16,1.43,1.44.9,1.28.8.52.31.57.35,1,.63.61.36,1.15.69.93.55c2.43,1.44,4.86,2.83,7.05,4.06l1.53.92.15.08,1,.55,1.7.94,1.17.65.55.3.59.32.11.06,1,.56a1.5,1.5,0,0,0,1.19-.32c.3-1.26,1-3.94,1.8-4.15s4.12-6.07,5.07-10h9a39.68,39.68,0,0,0,5.3-.81c-2.34,1.66-4.65,2.71-6.45,2.26-3.81-.94-7.41,1.38-7.77,3.66a.44.44,0,0,1-.05.15l0,.14a.74.74,0,0,0,0,.17.65.65,0,0,0,0,.14v.62a.74.74,0,0,0,0,.18c0,.06,0,.08,0,.12a2.44,2.44,0,0,0,.1.24l0,.05a2.75,2.75,0,0,0,.17.29l.07.09.15.18.11.11.17.16.12.1.2.15.15.1.24.14.16.08.31.15.15.07c.16.06.33.13.51.18s.64.2,1,.29l.39.1.57.13.3.07,1.23.25.61.11.49.09,1.13.19c.71.13,1.45.25,2.24.36l1.95.3,2.55.36.56.08.9.12,1.31.18.89.11h0l2.33.3.72.09,1.47.18c1.92.23,3.78.45,5.5.64l2,.22,1,.11.45,0,1.2.13.67.07.82.08,1.16.13h.13l.74.07h0a.68.68,0,0,0,.75-.6v-.06h0v-.07a.76.76,0,0,0,.11-.35,15.75,15.75,0,0,1,.41-3.28c0-.18.11-.37.17-.56l.07-.21c.09-.23.17-.45.26-.7a2.78,2.78,0,0,0,.17-.51,1,1,0,0,1,.05-.16c0-.06.05-.19.07-.28.93-3.18-.2-9.12-.52-11.45a11.9,11.9,0,0,0-.51-2.2h.18a5,5,0,0,0,1.34-.73c6.84-2.44,12.61-5.23,14.43-8a12.51,12.51,0,0,1,8.81.92c3.54,1.76,30.33,10.51,42.81,14.54,2.23,1.93,4,3.06,5,3,0,0,15.88,2.57,22.27-2.45.56.4.92.61.92.61s9.28-4.61,10.67-10.61c.45-1.94.86-4.8,1.27-8a11.64,11.64,0,0,0,3.37-8.16c.29-10.06,4.19-21.56,7.08-31.78,3.51.27,4.87-.39,8.09-2l-.15-.18A4.77,4.77,0,0,1,445,176ZM391.8,191.07l-1.79-.6a14.87,14.87,0,0,0,1.55-2.57Zm-10,4.24,10.75,6.44.09,1.31a9.43,9.43,0,0,0,.09,3c-4.74-4.2-10.28-9.31-10.93-10.76Zm-4.39-9.41c-1.17-.48-2.14-.92-2.81-1.28l2.49.16a4.93,4.93,0,0,1,.32,1.12Zm-28.77,10.51s1.85-4.14,6,2.77c.65,1.07,1.84,2.78,3.42,4.9L346,202.46a17.67,17.67,0,0,0,2.71-6Z"/><path class="cls-13" d="M375.37,179.76s-8.51-3.59-15.23-6.27-2.68,6.27-2.68,6.27,11.19,3.13,11.19,3.58,9.4.89,9.4.89Z"/><path class="cls-14" d="M375.37,179.76s-8.51-3.59-15.23-6.27-2.68,6.27-2.68,6.27,11.19,3.13,11.19,3.58,9.4.89,9.4.89Z"/><path class="cls-15" d="M411.63,144.39s-15.22-8.06-17.91,7.61a63.85,63.85,0,0,1-11.19,26.41s-8.06,1.79-11.19-1.34c0,0,7.61,9,4,9.85,0,0,8.06,5.82,11.64,4s6.26-13.88,7.61-17S400.89,143.49,411.63,144.39Z"/><path class="cls-16" d="M411.63,144.39s-15.22-8.06-17.91,7.61a63.85,63.85,0,0,1-11.19,26.41s-8.06,1.79-11.19-1.34c0,0,7.61,9,4,9.85,0,0,8.06,5.82,11.64,4s6.26-13.88,7.61-17S400.89,143.49,411.63,144.39Z"/><path class="cls-13" d="M403.12,139s9.41,10.75,9.85,19.7,10.75-9.4,11.64-9.85-8.95-15.67-9.84-20.59S403.12,139,403.12,139Z"/><polygon class="cls-13" points="409.62 143.6 403.68 148.98 406.48 160.28 414.09 153.12 413.2 145.95 409.62 143.6"/><polygon class="cls-13" points="285.82 223.19 275.53 223.19 279.56 233.03 289.41 230.35 285.82 223.19"/><path class="cls-16" d="M277.91,221.77s-10.67,7.42-19.78,5.11-11.58-1.44-12.64,1.54c-1,2.74,25.44,17.26,29.66,19.55a.48.48,0,0,0,.65-.19.61.61,0,0,0,.05-.12c.29-1.22,1-3.83,1.72-4,1-.26,5.38-8.51,5.13-11.75S277.91,221.77,277.91,221.77Z"/><path class="cls-17" d="M277.46,221.77s-10.66,7.42-19.77,5.11-11.59-1.44-12.65,1.54c-1,2.74,25.45,17.26,29.66,19.55a.48.48,0,0,0,.65-.19.31.31,0,0,0,0-.12c.29-1.22,1-3.83,1.73-4,1-.26,5.37-8.51,5.13-11.75S277.46,221.77,277.46,221.77Z"/><path class="cls-15" d="M365.52,203.93l-30-4s-48.8,23.28-54.62,23.73l1.34,10.3h9c3.58,0,38.5-7.61,43.42-15.22a12,12,0,0,1,8.51.89c4.48,2.24,47.46,16.12,47.46,16.12Z"/><path class="cls-16" d="M365.52,203.93l-30-4s-48.8,23.28-54.62,23.73l1.34,10.3h9c3.58,0,38.5-7.61,43.42-15.22a12,12,0,0,1,8.51.89c4.48,2.24,47.46,16.12,47.46,16.12Z"/><polygon class="cls-13" points="312.24 217.81 307.31 224.08 312.24 226.77 319.4 221.39 312.24 217.81"/><path class="cls-15" d="M397.75,210.65s-16.12-13.8-17.23-16.3-27.54-19.52-29.33-20-7.61-3.58-13.43,7.17-27.31,36.71-27.31,36.71,6.71,9.4,8.95,9,27.31-21.49,29.1-31.78c0,0,1.79-4,5.82,2.68s30,38.95,34.93,38.51c0,0,19.25,3.13,23.28-4.48S397.75,210.65,397.75,210.65Z"/><path class="cls-18" d="M406.93,145.06s-5.6,2.46-6,12.76-10.3,27.76-10.3,27.76l.89,20.59s10.75,10.75,11.64,17.46,8.51,11.2,8.51,11.2,9-4.48,10.3-10.3,2.24-20.15,4.48-25.52.89-38.95.89-38.95l-6.71-11.64-3.59-4-9.4,10.74S402.45,148.19,406.93,145.06Z"/><path class="cls-16" d="M393.72,199.46s-1.34-16.12,2.69-19.7l8.06-22.84s2.91-11,2.46-11.86-10.52,8.73-10.52,8.73l-6.72,23.73,1.79,25.07Z"/><path class="cls-15" d="M393.27,199.46s-1.34-16.12,2.69-19.7L404,156.92s3.13-11.19,2.69-12.09-10.75,9-10.75,9l-6.71,23.73L391,202.59Z"/><path class="cls-13" d="M396.41,192.29s-22.39-7.16-23.73-8.95S357,169.91,352.09,178s18.35,10.29,18.35,10.29l23.73,14.33Z"/><path class="cls-16" d="M313.21,224l-6.63-1.19s-10.85,13.9-16.5,12.49S279.22,240,285.19,242c5.4,1.76,28.7,4.23,33.13,4.68a.65.65,0,0,0,.72-.58v0a14.59,14.59,0,0,1,1-5.05c1.2-2.93,0-9.23-.33-11.64a11.48,11.48,0,0,0-1.3-4Z"/><path class="cls-17" d="M313.1,224.47l-6.63-1.19s-10.85,13.9-16.5,12.5-10.85,4.67-4.88,6.62c5.39,1.77,28.69,4.24,33.13,4.69a.65.65,0,0,0,.72-.58v0a14.22,14.22,0,0,1,1-5c1.2-2.94,0-9.24-.33-11.65a11.43,11.43,0,0,0-1.3-4Z"/><circle class="cls-16" cx="406.48" cy="129.84" r="14.33"/><circle class="cls-13" cx="405.14" cy="129.84" r="14.33"/><path class="cls-15" d="M419.24,143.94s17,5.82,17,17.91-9.41,31.34-9.85,47-25.08,13.43-25.08,13.43-3.58-52.83,0-56.86S421,145.73,419.24,143.94Z"/><path class="cls-16" d="M416.11,169s-6.27,27.76-21,22.83c0,0-7.62,11.2-2.24,16.12,0,0,13,3.14,21.49-5.37s14.77-11.64,16.12-21.94,2.23-24.62-2.24-23.28S416.11,169,416.11,169Z"/><path class="cls-15" d="M416.56,168.56s-6.27,27.76-21.05,22.84c0,0-7.61,11.19-2.24,16.11,0,0,13,3.14,21.5-5.37s14.77-11.64,16.11-21.94,2.24-24.62-2.24-23.28S416.56,168.56,416.56,168.56Z"/><path class="cls-18" d="M320.32,240a.65.65,0,0,1,0,.13,12.94,12.94,0,0,0-.71,2.37c.11-.35.24-.71.38-1.07A7,7,0,0,0,320.32,240Z"/><path class="cls-18" d="M285.42,241.1c-1.85-.61-2.62-1.6-2.65-2.65-.76,1.46-.29,3.1,2.32,4,5.39,1.76,28.7,4.23,33.13,4.69a.66.66,0,0,0,.72-.59v-.05h0a.66.66,0,0,0-.59-.67C313.49,245.26,290.74,242.83,285.42,241.1Z"/><path class="cls-18" d="M245.66,227.63a4.81,4.81,0,0,1,.44-.95,4.38,4.38,0,0,0-1,1.74c-1,2.74,25.45,17.26,29.66,19.55a.49.49,0,0,0,.66-.19.5.5,0,0,0,0-.13h0a.48.48,0,0,0-.23-.54C270.52,244.57,244.69,230.34,245.66,227.63Z"/><path class="cls-18" d="M277.74,242.84c-.24.07-.47.38-.69.82l.07,0c.2,0,.53-.45.94-1A.82.82,0,0,1,277.74,242.84Z"/><path class="cls-16" d="M403.15,142.45c-1.26,2.78-1.53,5.92-2.45,8.84a19.45,19.45,0,0,1-12,12.43c4.65,1.85,10.14-.41,13.74-4.17s5.7-8.77,7.72-13.64c5.22,3.51,4.59,11.58,6.34,17.86a19.81,19.81,0,0,0,10.54,12.6A18.84,18.84,0,0,0,443.2,176c-4.78-5.82-11.6-13.84-10.79-21.62.66-6.29-3.86-11.1-3.55-17.42.45-8.95-3-13.5-9.4-19.25-3.75-3.36,2.16-8.1-2.68-6.71-1.91.54-3.91-1.49-5.78-.82-3.7,1.34-7.74.82-11.54,1.72C379.68,116.58,405,138.38,403.15,142.45Z"/><path class="cls-19" d="M403.6,142c-1.26,2.79-1.53,5.92-2.45,8.84a19.45,19.45,0,0,1-12,12.43c4.65,1.86,10.14-.41,13.74-4.17s5.7-8.77,7.72-13.64C415.84,149,415.2,157,417,163.32a19.78,19.78,0,0,0,10.54,12.6,18.87,18.87,0,0,0,16.15-.32c-4.78-5.82-11.15-12.51-10.34-20.28.66-6.29-.32-12.76,0-19.08.45-9-3.95-17.6-10.37-23.35-3.75-3.36-9.61-3.79-11.48-3.13-3.7,1.34-7.74.82-11.55,1.72C380.13,116.14,405.44,137.94,403.6,142Z"/></svg>