<svg id="Layer_1" data-name="Layer 1" xmlns="http://www.w3.org/2000/svg" viewBox="0 0 487 246"><defs><style>.cls-1{fill:#3f3d56;}.cls-2{fill:#ff6584;}.cls-3,.cls-5{fill:#087fbd;}.cls-4{opacity:0.1;}.cls-4,.cls-5{isolation:isolate;}.cls-5{opacity:0.4;}.cls-6{fill:#ccc;}.cls-7{fill:#f2f2f2;}</style></defs><title>vector image </title><path class="cls-1" d="M47.89,243.31,47,243.1A212,212,0,0,1,120.2,125.4C210.94,52,344,66.11,417.35,156.84A211.27,211.27,0,0,1,459,242.54l-.92.21c-21.91-96.2-106.23-163.39-205-163.39C155.53,79.36,69.25,148.31,47.89,243.31Z"/><circle class="cls-2" cx="407.26" cy="105" r="25.84"/><rect class="cls-1" x="396.49" y="208.31" width="0.95" height="37.58"/><path class="cls-3" d="M406.22,213.1c.06,13.14-9.18,23.84-9.18,23.84s-9.35-10.61-9.41-23.75,9.19-23.84,9.19-23.84S406.16,200,406.22,213.1Z"/><path class="cls-4" d="M406.22,213.1c.06,13.14-9.18,23.84-9.18,23.84s-9.35-10.61-9.41-23.75,9.19-23.84,9.19-23.84S406.16,200,406.22,213.1Z"/><circle class="cls-5" cx="217.62" cy="118.72" r="14.87" transform="matrix(0.16, -0.99, 0.99, 0.16, 65.57, 314.51)"/><circle class="cls-5" cx="190.1" cy="125.82" r="10.43"/><circle class="cls-5" cx="78.3" cy="155.79" r="10.43"/><circle class="cls-5" cx="386.65" cy="117.5" r="14.87"/><path class="cls-1" d="M6.2,241.72a9.52,9.52,0,0,0,3.56,4.82,9.52,9.52,0,0,0,.65-6,9.62,9.62,0,0,0-3.57-4.83A9.59,9.59,0,0,0,6.2,241.72Z"/><path class="cls-3" d="M7.38,241.08a9.57,9.57,0,0,1,2.48,5.46,9.56,9.56,0,0,1-5.52-2.33,9.58,9.58,0,0,1-2.49-5.47A9.63,9.63,0,0,1,7.38,241.08Z"/><path class="cls-1" d="M297.36,241.72a9.52,9.52,0,0,0,3.56,4.82A8.25,8.25,0,0,0,298,235.75,9.56,9.56,0,0,0,297.36,241.72Z"/><path class="cls-3" d="M298.54,241.08a9.57,9.57,0,0,1,2.48,5.46,8.25,8.25,0,0,1-8-7.8A9.63,9.63,0,0,1,298.54,241.08Z"/><polygon class="cls-1" points="11.67 219.32 9.7 216.04 28.07 200.3 75.31 200.3 75.31 204.89 58.25 223.26 38.57 227.2 11.67 219.32"/><polygon class="cls-6" points="83.44 209.54 83.44 199.27 77.26 199.27 77.26 202.51 75.31 200.3 59.57 216.04 56.94 218.67 53.66 231.79 59.57 246.22 89.75 246.22 89.75 216.7 83.44 209.54"/><rect class="cls-7" x="9.7" y="216.04" width="49.86" height="30.18"/><rect class="cls-1" x="42.18" y="225.56" width="10.5" height="9.19"/><rect class="cls-6" x="28.73" y="225.23" width="9.19" height="21"/><polygon class="cls-1" points="18.23 228.51 18.23 225.23 14.29 225.23 14.29 228.51 17.9 228.51 18.23 228.51"/><polygon class="cls-1" points="17.9 231.13 14.29 231.13 14.29 234.41 18.23 234.41 18.23 231.13 17.9 231.13"/><rect class="cls-1" x="20.86" y="225.23" width="3.94" height="3.28"/><rect class="cls-1" x="20.86" y="231.13" width="3.94" height="3.28"/><polygon class="cls-1" points="73.67 228.84 73.67 225.56 69.73 225.56 69.73 228.84 73.34 228.84 73.67 228.84"/><polygon class="cls-1" points="73.34 231.46 69.73 231.46 69.73 234.74 73.67 234.74 73.67 231.46 73.34 231.46"/><rect class="cls-1" x="76.3" y="225.56" width="3.94" height="3.28"/><rect class="cls-1" x="76.3" y="231.46" width="3.94" height="3.28"/><polygon class="cls-1" points="201.5 219.32 199.53 216.04 217.9 200.3 265.14 200.3 265.14 204.89 248.08 223.26 228.4 227.2 201.5 219.32"/><polygon class="cls-6" points="273.27 209.54 273.27 199.27 267.08 199.27 267.08 202.51 265.14 200.3 249.39 216.04 246.77 218.67 243.49 231.79 249.39 246.22 279.57 246.22 279.57 216.7 273.27 209.54"/><rect class="cls-7" x="199.53" y="216.04" width="49.86" height="30.18"/><rect class="cls-1" x="232" y="225.56" width="10.5" height="9.19"/><rect class="cls-6" x="218.55" y="225.23" width="9.19" height="21"/><polygon class="cls-1" points="208.06 228.51 208.06 225.23 204.12 225.23 204.12 228.51 207.73 228.51 208.06 228.51"/><polygon class="cls-1" points="207.73 231.13 204.12 231.13 204.12 234.41 208.06 234.41 208.06 231.13 207.73 231.13"/><rect class="cls-1" x="210.68" y="225.23" width="3.94" height="3.28"/><rect class="cls-1" x="210.68" y="231.13" width="3.94" height="3.28"/><polygon class="cls-1" points="263.5 228.84 263.5 225.56 259.56 225.56 259.56 228.84 263.17 228.84 263.5 228.84"/><polygon class="cls-1" points="263.17 231.46 259.56 231.46 259.56 234.74 263.5 234.74 263.5 231.46 263.17 231.46"/><rect class="cls-1" x="266.12" y="225.56" width="3.94" height="3.28"/><rect class="cls-1" x="266.12" y="231.46" width="3.94" height="3.28"/><polygon class="cls-1" points="112.71 164.21 109.43 161.59 127.8 145.19 174.38 145.19 174.38 159.62 144.2 179.96 112.71 164.21"/><polygon class="cls-6" points="182.88 154.39 182.88 145.51 176.69 145.51 176.69 147.69 174.38 145.19 159.29 161.59 153.39 165.53 144.23 232.42 158.04 246.22 190.13 246.22 190.13 162.24 182.88 154.39"/><rect class="cls-7" x="109.43" y="161.59" width="49.86" height="84.64"/><rect class="cls-6" x="128.78" y="225.56" width="9.19" height="20.67"/><polygon class="cls-1" points="118.94 231.46 118.94 228.18 115.01 228.18 115.01 231.46 118.61 231.46 118.94 231.46"/><polygon class="cls-1" points="118.61 234.09 115.01 234.09 115.01 237.37 118.94 237.37 118.94 234.09 118.61 234.09"/><rect class="cls-1" x="121.57" y="228.18" width="3.94" height="3.28"/><rect class="cls-1" x="121.57" y="234.09" width="3.94" height="3.28"/><polygon class="cls-1" points="145.84 231.46 145.84 228.18 141.91 228.18 141.91 231.46 145.51 231.46 145.84 231.46"/><polygon class="cls-1" points="145.51 234.09 141.91 234.09 141.91 237.37 145.84 237.37 145.84 234.09 145.51 234.09"/><rect class="cls-1" x="148.47" y="228.18" width="3.94" height="3.28"/><rect class="cls-1" x="148.47" y="234.09" width="3.94" height="3.28"/><polygon class="cls-1" points="173.4 165.85 173.4 162.57 169.46 162.57 169.46 165.85 173.07 165.85 173.4 165.85"/><polygon class="cls-1" points="173.07 168.48 169.46 168.48 169.46 171.76 173.4 171.76 173.4 168.48 173.07 168.48"/><rect class="cls-1" x="176.02" y="162.57" width="3.94" height="3.28"/><rect class="cls-1" x="176.02" y="168.48" width="3.94" height="3.28"/><polygon class="cls-1" points="173.4 184.22 173.4 180.94 169.46 180.94 169.46 184.22 173.07 184.22 173.4 184.22"/><polygon class="cls-1" points="173.07 186.85 169.46 186.85 169.46 190.13 173.4 190.13 173.4 186.85 173.07 186.85"/><rect class="cls-1" x="176.02" y="180.94" width="3.94" height="3.28"/><rect class="cls-1" x="176.02" y="186.85" width="3.94" height="3.28"/><polygon class="cls-1" points="173.4 202.59 173.4 199.31 169.46 199.31 169.46 202.59 173.07 202.59 173.4 202.59"/><polygon class="cls-1" points="173.07 205.22 169.46 205.22 169.46 208.5 173.4 208.5 173.4 205.22 173.07 205.22"/><rect class="cls-1" x="176.02" y="199.31" width="3.94" height="3.28"/><rect class="cls-1" x="176.02" y="205.22" width="3.94" height="3.28"/><polygon class="cls-1" points="173.4 220.97 173.4 217.68 169.46 217.68 169.46 220.97 173.07 220.97 173.4 220.97"/><polygon class="cls-1" points="173.07 223.59 169.46 223.59 169.46 226.87 173.4 226.87 173.4 223.59 173.07 223.59"/><rect class="cls-1" x="176.02" y="217.68" width="3.94" height="3.28"/><rect class="cls-1" x="176.02" y="223.59" width="3.94" height="3.28"/><rect class="cls-1" x="115.01" y="165.85" width="38.05" height="7.87"/><rect class="cls-1" x="115.01" y="181.6" width="38.05" height="7.87"/><rect class="cls-1" x="115.01" y="197.35" width="38.05" height="7.87"/><rect class="cls-1" x="115.01" y="213.09" width="38.05" height="7.87"/><polygon class="cls-1" points="304.44 164.21 301.16 161.59 319.53 145.19 366.11 145.19 366.11 159.62 335.93 179.96 304.44 164.21"/><polygon class="cls-6" points="374.61 154.39 374.61 145.51 368.42 145.51 368.42 147.69 366.11 145.19 351.02 161.59 345.12 165.53 335.96 232.42 349.77 246.22 381.86 246.22 381.86 162.24 374.61 154.39"/><rect class="cls-7" x="301.16" y="161.59" width="49.86" height="84.64"/><rect class="cls-6" x="320.51" y="225.56" width="9.19" height="20.67"/><polygon class="cls-1" points="310.67 231.46 310.67 228.18 306.74 228.18 306.74 231.46 310.34 231.46 310.67 231.46"/><polygon class="cls-1" points="310.34 234.09 306.74 234.09 306.74 237.37 310.67 237.37 310.67 234.09 310.34 234.09"/><rect class="cls-1" x="313.3" y="228.18" width="3.94" height="3.28"/><rect class="cls-1" x="313.3" y="234.09" width="3.94" height="3.28"/><polygon class="cls-1" points="337.57 231.46 337.57 228.18 333.63 228.18 333.63 231.46 337.24 231.46 337.57 231.46"/><polygon class="cls-1" points="337.24 234.09 333.63 234.09 333.63 237.37 337.57 237.37 337.57 234.09 337.24 234.09"/><rect class="cls-1" x="340.2" y="228.18" width="3.94" height="3.28"/><rect class="cls-1" x="340.2" y="234.09" width="3.94" height="3.28"/><polygon class="cls-1" points="365.13 165.85 365.13 162.57 361.19 162.57 361.19 165.85 364.8 165.85 365.13 165.85"/><polygon class="cls-1" points="364.8 168.48 361.19 168.48 361.19 171.76 365.13 171.76 365.13 168.48 364.8 168.48"/><rect class="cls-1" x="367.75" y="162.57" width="3.94" height="3.28"/><rect class="cls-1" x="367.75" y="168.48" width="3.94" height="3.28"/><polygon class="cls-1" points="365.13 184.22 365.13 180.94 361.19 180.94 361.19 184.22 364.8 184.22 365.13 184.22"/><polygon class="cls-1" points="364.8 186.85 361.19 186.85 361.19 190.13 365.13 190.13 365.13 186.85 364.8 186.85"/><rect class="cls-1" x="367.75" y="180.94" width="3.94" height="3.28"/><rect class="cls-1" x="367.75" y="186.85" width="3.94" height="3.28"/><polygon class="cls-1" points="365.13 202.59 365.13 199.31 361.19 199.31 361.19 202.59 364.8 202.59 365.13 202.59"/><polygon class="cls-1" points="364.8 205.22 361.19 205.22 361.19 208.5 365.13 208.5 365.13 205.22 364.8 205.22"/><rect class="cls-1" x="367.75" y="199.31" width="3.94" height="3.28"/><rect class="cls-1" x="367.75" y="205.22" width="3.94" height="3.28"/><polygon class="cls-1" points="365.13 220.97 365.13 217.68 361.19 217.68 361.19 220.97 364.8 220.97 365.13 220.97"/><polygon class="cls-1" points="364.8 223.59 361.19 223.59 361.19 226.87 365.13 226.87 365.13 223.59 364.8 223.59"/><rect class="cls-1" x="367.75" y="217.68" width="3.94" height="3.28"/><rect class="cls-1" x="367.75" y="223.59" width="3.94" height="3.28"/><rect class="cls-1" x="306.73" y="165.85" width="38.05" height="7.87"/><rect class="cls-1" x="306.73" y="181.6" width="38.05" height="7.87"/><rect class="cls-1" x="306.73" y="197.35" width="38.05" height="7.87"/><rect class="cls-1" x="306.73" y="213.09" width="38.05" height="7.87"/><polygon class="cls-1" points="409.58 164.21 406.3 161.59 424.67 145.19 471.25 145.19 471.25 159.62 441.07 179.96 409.58 164.21"/><polygon class="cls-6" points="479.75 154.39 479.75 145.51 473.56 145.51 473.56 147.69 471.25 145.19 456.16 161.59 450.26 165.53 441.1 232.42 454.91 246.22 487 246.22 487 162.24 479.75 154.39"/><rect class="cls-7" x="406.3" y="161.59" width="49.86" height="84.64"/><rect class="cls-6" x="425.65" y="225.56" width="9.19" height="20.67"/><polygon class="cls-1" points="415.81 231.46 415.81 228.18 411.88 228.18 411.88 231.46 415.49 231.46 415.81 231.46"/><polygon class="cls-1" points="415.49 234.09 411.88 234.09 411.88 237.37 415.81 237.37 415.81 234.09 415.49 234.09"/><rect class="cls-1" x="418.44" y="228.18" width="3.94" height="3.28"/><rect class="cls-1" x="418.44" y="234.09" width="3.94" height="3.28"/><polygon class="cls-1" points="442.71 231.46 442.71 228.18 438.78 228.18 438.78 231.46 442.38 231.46 442.71 231.46"/><polygon class="cls-1" points="442.38 234.09 438.78 234.09 438.78 237.37 442.71 237.37 442.71 234.09 442.38 234.09"/><rect class="cls-1" x="445.34" y="228.18" width="3.94" height="3.28"/><rect class="cls-1" x="445.34" y="234.09" width="3.94" height="3.28"/><polygon class="cls-1" points="470.27 165.85 470.27 162.57 466.33 162.57 466.33 165.85 469.94 165.85 470.27 165.85"/><polygon class="cls-1" points="469.94 168.48 466.33 168.48 466.33 171.76 470.27 171.76 470.27 168.48 469.94 168.48"/><rect class="cls-1" x="472.89" y="162.57" width="3.94" height="3.28"/><rect class="cls-1" x="472.89" y="168.48" width="3.94" height="3.28"/><polygon class="cls-1" points="470.27 184.22 470.27 180.94 466.33 180.94 466.33 184.22 469.94 184.22 470.27 184.22"/><polygon class="cls-1" points="469.94 186.85 466.33 186.85 466.33 190.13 470.27 190.13 470.27 186.85 469.94 186.85"/><rect class="cls-1" x="472.89" y="180.94" width="3.94" height="3.28"/><rect class="cls-1" x="472.89" y="186.85" width="3.94" height="3.28"/><polygon class="cls-1" points="470.27 202.59 470.27 199.31 466.33 199.31 466.33 202.59 469.94 202.59 470.27 202.59"/><polygon class="cls-1" points="469.94 205.22 466.33 205.22 466.33 208.5 470.27 208.5 470.27 205.22 469.94 205.22"/><rect class="cls-1" x="472.89" y="199.31" width="3.94" height="3.28"/><rect class="cls-1" x="472.89" y="205.22" width="3.94" height="3.28"/><polygon class="cls-1" points="470.27 220.97 470.27 217.68 466.33 217.68 466.33 220.97 469.94 220.97 470.27 220.97"/><polygon class="cls-1" points="469.94 223.59 466.33 223.59 466.33 226.87 470.27 226.87 470.27 223.59 469.94 223.59"/><rect class="cls-1" x="472.89" y="217.68" width="3.94" height="3.28"/><rect class="cls-1" x="472.89" y="223.59" width="3.94" height="3.28"/><rect class="cls-1" x="411.88" y="165.85" width="38.05" height="7.87"/><rect class="cls-1" x="411.88" y="181.6" width="38.05" height="7.87"/><rect class="cls-1" x="411.88" y="197.35" width="38.05" height="7.87"/><rect class="cls-1" x="411.88" y="213.09" width="38.05" height="7.87"/><rect class="cls-1" x="99.14" y="208.31" width="0.95" height="37.58"/><path class="cls-3" d="M108.88,213.1c.06,13.14-9.19,23.84-9.19,23.84s-9.34-10.61-9.4-23.75,9.18-23.84,9.18-23.84S108.82,200,108.88,213.1Z"/><rect class="cls-1" x="194.29" y="208.31" width="0.95" height="37.58"/><path class="cls-3" d="M204,213.1c.06,13.14-9.19,23.84-9.19,23.84s-9.34-10.61-9.4-23.75,9.18-23.84,9.18-23.84S204,200,204,213.1Z"/><rect class="cls-1" x="384.12" y="208.31" width="0.95" height="37.58"/><path class="cls-3" d="M393.85,213.1c.06,13.14-9.18,23.84-9.18,23.84s-9.35-10.61-9.41-23.75,9.19-23.84,9.19-23.84S393.79,200,393.85,213.1Z"/><ellipse class="cls-3" cx="258.76" cy="78.17" rx="18.08" ry="4.07"/><path class="cls-3" d="M279.22,21.31c0,11.57-20.94,44.25-20.94,44.25s-20.93-32.68-20.93-44.25a20.94,20.94,0,0,1,41.87,0Z"/><circle class="cls-7" cx="258.28" cy="21.31" r="11.89"/></svg>