<svg id="Layer_1" data-name="Layer 1" xmlns="http://www.w3.org/2000/svg" xmlns:xlink="http://www.w3.org/1999/xlink" viewBox="0 0 395 319"><defs><style>.cls-1,.cls-3{fill:#6c63ff;}.cls-1,.cls-13,.cls-7{opacity:0.1;}.cls-1,.cls-4,.cls-7{isolation:isolate;}.cls-2{fill:none;stroke:#535461;stroke-miterlimit:10;stroke-width:2px;}.cls-4{opacity:0.25;}.cls-5{fill:url(#linear-gradient);}.cls-6{fill:#65617d;}.cls-8{fill:#fbbebe;}.cls-9{fill:#e7effd;}.cls-10{fill:#3f3d56;}.cls-11{fill:#5f5d7e;}.cls-12{fill:#7c5c5c;}.cls-14{fill:#e6e8ec;}.cls-15{fill:#dcdfed;}.cls-16{fill:#087fbd;}.cls-17{fill:#e3e5f1;}</style><linearGradient id="linear-gradient" x1="404.05" y1="-1795.6" x2="404.05" y2="-1558.63" gradientTransform="matrix(1, 0, 0, -1, -82.53, -1488.2)" gradientUnits="userSpaceOnUse"><stop offset="0" stop-color="gray" stop-opacity="0.25"/><stop offset="0.54" stop-color="gray" stop-opacity="0.12"/><stop offset="1" stop-color="gray" stop-opacity="0.1"/></linearGradient></defs><title>vector image </title><path class="cls-1" d="M229.5,36.86c-25.38-.73-49.55-7.55-72.61-15s-46-15.72-70.72-19.67C70.24-.38,52-.74,39.19,6.37,26.83,13.22,22.84,25,20.7,36c-1.62,8.25-2.57,16.93,1.86,24.65,3.06,5.35,8.52,9.86,12.29,15C48,93.5,38.7,115.53,24.48,133c-6.67,8.18-14.41,16-19.55,24.69s-7.52,18.7-3,27.57S17,200.65,28.52,205.3c23.41,9.45,51,12.15,77.87,13.68,59.53,3.39,119.38,1.92,179.06.46,22.09-.55,44.28-1.1,66-3.94,12.06-1.58,24.52-4.09,33.27-10.14,11.12-7.68,13.88-20.69,6.43-30.32-12.5-16.15-47.05-20.16-55.8-37.5-4.81-9.54.13-20.17,7.12-29,15-19,40.12-35.65,41.44-57.35.91-14.91-11.17-29.83-29.85-36.88-19.58-7.39-46.73-6.46-61.19,5.77C278,32.66,251.9,37.52,229.5,36.86Z"/><ellipse class="cls-1" cx="166.06" cy="307.34" rx="111.2" ry="11.21"/><path class="cls-2" d="M64.34,306.13s-4.94-28-23.25-41.81A42.82,42.82,0,0,1,25.33,241.6a67.85,67.85,0,0,1-2.21-13"/><path class="cls-3" d="M11.64,219.76c1.53,3,11.75,9.06,11.75,9.06s1.29-11.33-.26-14.33a6.55,6.55,0,0,0-8.53-2.79A5.88,5.88,0,0,0,11.64,219.76Z"/><path class="cls-3" d="M10.66,240.72c3,1.72,15.09,1.57,15.09,1.57s-5.45-10.17-8.46-11.89a6.6,6.6,0,0,0-8.77,2A5.84,5.84,0,0,0,10.66,240.72Z"/><path class="cls-3" d="M25.66,268.91c3.52,0,13.85-5.83,13.85-5.83s-10.13-6.18-13.66-6.24a6,6,0,1,0-.19,12.07Z"/><path class="cls-3" d="M42.09,287.81c3.46.62,14.7-3.53,14.7-3.53s-8.88-7.72-12.34-8.33A6.38,6.38,0,0,0,37,280.77,6.05,6.05,0,0,0,42.09,287.81Z"/><path class="cls-3" d="M38.11,237.34c-1.2,3.13-10.7,10.15-10.7,10.15s-2.52-11.13-1.32-14.27a6.51,6.51,0,0,1,8.19-3.61A5.94,5.94,0,0,1,38.11,237.34Z"/><path class="cls-3" d="M57,259.69c-2.14,2.65-13.43,6.66-13.43,6.66s1.15-11.33,3.28-14a6.65,6.65,0,0,1,8.95-1.15,5.81,5.81,0,0,1,1.49,8.09A3.47,3.47,0,0,1,57,259.69Z"/><path class="cls-3" d="M72.26,283.79c-1.63,3-12,8.72-12,8.72s-.91-11.36.72-14.31a6.59,6.59,0,0,1,8.63-2.55A5.86,5.86,0,0,1,72.26,283.79Z"/><path class="cls-4" d="M11.64,219.76c1.53,3,11.75,9.06,11.75,9.06s1.29-11.33-.26-14.33a6.55,6.55,0,0,0-8.53-2.79A5.88,5.88,0,0,0,11.64,219.76Z"/><path class="cls-4" d="M10.66,240.72c3,1.72,15.09,1.57,15.09,1.57s-5.45-10.17-8.46-11.89a6.6,6.6,0,0,0-8.77,2A5.84,5.84,0,0,0,10.66,240.72Z"/><path class="cls-4" d="M25.66,268.91c3.52,0,13.85-5.83,13.85-5.83s-10.13-6.18-13.66-6.24a6,6,0,1,0-.19,12.07Z"/><path class="cls-4" d="M42.09,287.81c3.46.62,14.7-3.53,14.7-3.53s-8.88-7.72-12.34-8.33A6.38,6.38,0,0,0,37,280.77,6.05,6.05,0,0,0,42.09,287.81Z"/><path class="cls-4" d="M38.11,237.34c-1.2,3.13-10.7,10.15-10.7,10.15s-2.52-11.13-1.32-14.27a6.51,6.51,0,0,1,8.19-3.61A5.94,5.94,0,0,1,38.11,237.34Z"/><path class="cls-4" d="M57,259.69c-2.14,2.65-13.43,6.66-13.43,6.66s1.15-11.33,3.28-14a6.65,6.65,0,0,1,8.95-1.15,5.81,5.81,0,0,1,1.49,8.09A3.47,3.47,0,0,1,57,259.69Z"/><path class="cls-4" d="M72.26,283.79c-1.63,3-12,8.72-12,8.72s-.91-11.36.72-14.31a6.59,6.59,0,0,1,8.63-2.55A5.86,5.86,0,0,1,72.26,283.79Z"/><path class="cls-2" d="M63.72,305.39S71.2,278,60.41,258.27a40.84,40.84,0,0,1-4.66-26.8,69.22,69.22,0,0,1,3.58-12.77"/><path class="cls-3" d="M52.61,206.27c.12,3.33,6.85,12.78,6.85,12.78s6-9.86,5.92-13.2A6.26,6.26,0,0,0,58.77,200,6.18,6.18,0,0,0,52.61,206.27Z"/><path class="cls-3" d="M42.72,225.06c2,2.73,13.11,7.2,13.11,7.2s-.61-11.37-2.63-14.11a6.63,6.63,0,0,0-8.89-1.49,5.82,5.82,0,0,0-1.84,8C42.55,224.82,42.63,224.94,42.72,225.06Z"/><path class="cls-3" d="M44.33,256.56c3.2,1.4,15.18,0,15.18,0s-6.62-9.53-9.82-10.92a6.54,6.54,0,0,0-8.48,2.95A5.89,5.89,0,0,0,44.33,256.56Z"/><path class="cls-3" d="M51.23,280.14c2.91,1.89,15,2.39,15,2.39s-4.81-10.45-7.71-12.33a6.63,6.63,0,0,0-8.89,1.53,5.82,5.82,0,0,0,1.25,8.14A3.39,3.39,0,0,0,51.23,280.14Z"/><path class="cls-3" d="M69.27,232.47c-2.45,2.4-14.15,5.19-14.15,5.19S57.6,226.51,60,224.11a6.68,6.68,0,0,1,9-.17,5.81,5.81,0,0,1,.52,8.19Z"/><path class="cls-3" d="M77,260.14c-3.1,1.61-15.14,1-15.14,1s5.9-9.94,9-11.53A6.59,6.59,0,0,1,79.49,252,5.84,5.84,0,0,1,77,260.14Z"/><path class="cls-3" d="M80.55,288c-2.77,2.07-14.75,3.36-14.75,3.36s4-10.74,6.8-12.81a6.66,6.66,0,0,1,9,1,5.8,5.8,0,0,1-.67,8.19C80.8,287.82,80.67,287.92,80.55,288Z"/><path class="cls-5" d="M379,145.13c.23-.63-1.49-4.1-1.49-4.27s-1.78-2.12-1.78-3.2-2.36-3.42-2.36-3.42-3.15-1.31-3.5-4.16-3.78-2.91-3.79-2.91h0s0-.26,0-.65a9.53,9.53,0,0,0-.42-3.34,3.39,3.39,0,0,0-1.95-1.65s-.35-2.23-1-2.91a3.28,3.28,0,0,1-.8-3.08c.34-1.08-.46-3.82-2.13-4.2s-3.56-1-3.56-1l-.46.08-.23-.08a8,8,0,0,1-1.2.15,1.5,1.5,0,0,1-1-.32c-.57-.63-5.22-1.82-6.08-1.82a14.47,14.47,0,0,1-3.34-1.15l-2.46-1.88a16.62,16.62,0,0,1-2.16-3l0,0h0a10.24,10.24,0,0,1-.52-1.5h0a13.37,13.37,0,0,0,2.13-2.94c.06-.11.12-.22.17-.33a2.32,2.32,0,0,0,.38-.06.47.47,0,0,0,.15-.06,2.52,2.52,0,0,0,1.22-1.46h0c0-.12.08-.25.11-.38a.21.21,0,0,1,0-.13.8.8,0,0,0,.05-.26c0-.09,0-.1,0-.15s0-.17,0-.26a.64.64,0,0,0,0-.14,1.65,1.65,0,0,1,0-.32h0a12.16,12.16,0,0,1,.18-1.21h0a21.59,21.59,0,0,1,1.94-4.28h0c.09-.2.18-.41.26-.63a6.21,6.21,0,0,0,.22-.69l.06-.21.12-.51a1.57,1.57,0,0,1,0-.23q.06-.36.09-.72a8.91,8.91,0,0,0-.57-4c-.43-1.07-1.07-2-1.51-3.1-.66-1.63-.83-3.45-1.64-5a6,6,0,0,0-7.14-2.91c-1.26.46-2.34,1.36-3.6,1.77-1.7.54-3.51.13-5.27-.11s-3.7-.26-5.11.88c-1.63,1.32-2.07,3.8-3.6,5.25-.64.61-1.44,1-2.11,1.56a3.52,3.52,0,0,0-1.06,1.45s0,.08,0,.13,0,.09,0,.14l0,.17a.47.47,0,0,0,0,.12,1.61,1.61,0,0,0,0,.31h0a2.74,2.74,0,0,0,0,.28v.09s.05.15.07.23v0c0,.09.07.17.1.26l.06.13,0,.11a6.32,6.32,0,0,1,.54,1.32,1.52,1.52,0,0,1,0,.87,2.8,2.8,0,0,1-.64.84,11.81,11.81,0,0,0-2.59,4.15c-.07.17-.13.35-.19.53h0l.08,0a3,3,0,0,0,.5.11c.1,0,.19,0,.29,0a4.55,4.55,0,0,0,1.17-.09l.29-.07a7.51,7.51,0,0,0,1.15-.42v.54a13.58,13.58,0,0,0,7.53,12.13c0,.12,0,.25.05.38s0,.21,0,.31l-.15-.15s-1-.51-2,1a6.56,6.56,0,0,1-2.82,2.17s-10.44,1.65-10.85,3l-4.88.28s-1.72.23-1.91,3.83-1.09,3.93-1.09,3.93-2,3.54-1.83,5.36a3,3,0,0,1-1.53,2.74l-.23,3.24a2.21,2.21,0,0,0-2.42,1.94,7.61,7.61,0,0,1-1.43,3.25s-3.16,2.63-3.33,4.85l-1.95,1.2s-4.54-1-5.57-2.85l-.32-.3,0-.05v0c-.68-.65-2.11-2-1.91-1.68a1.33,1.33,0,0,1,.09.92l-.33-.38-.9-1s-7.34-6.88-11.64-7.41h0c-.06-.11-.34-1.19-1.07-.51a6,6,0,0,0-.38,8.45c.11.12.22.23.34.34l6.86,6.42.18.13,1.48,1.91c-.25.59-.46,1.17-.64,1.7a.13.13,0,0,1,0,.05c0,.11-.08.22-.11.33l0,.11-.09.32c0,.1,0,.12-.06.18s0,.08,0,.11c-.16.57-.26,1-.32,1.26l-.38-.12.38.16V149l0,.12.35.15c2,.88,12.05,5.28,12.57,5.95a7.25,7.25,0,0,0,7.8,1.08,8.29,8.29,0,0,0,4.21-4.62s3.33-4.61,3.44-5.3,2.7-1.48,2.7-1.48.23,7.65-1.09,10.43S298,170.53,298,170.53a2.05,2.05,0,0,1,.49,0c-.09.45-.14.72-.14.72a1.57,1.57,0,0,1,.61,0c-.19,1.4-1.24,7.93-1.24,7.93a16.47,16.47,0,0,1-.92,4c-.57,1-.63,6.39-.63,6.39l-.92,3.88a6,6,0,0,0,.35.66h0a10,10,0,0,0,2.64,3.42,6.69,6.69,0,0,1-.46,1.77,6.12,6.12,0,0,0-.46,2.74,34.49,34.49,0,0,0-.86,5.64,21.2,21.2,0,0,1-.63,4.34l-1.07,9.89s-.69,8.61-.34,10.95a20.87,20.87,0,0,1-.24,5.52s.69,6.79.52,7.53-1,3.93-.52,5.7.24,6.62.24,6.62.34,6.38.74,8.43a14.5,14.5,0,0,1-.12,4.68,34.7,34.7,0,0,1-.57,4.39c-.19,0-1.66,3,1.38,6s1.14,2.5,1.14,2.5-2.41-1.2-2.12,1.26.65,1.72.69,1.66L295,289l.38.06-.33.38a8.69,8.69,0,0,1-1.15,1.2,2.5,2.5,0,0,0-.76,1.65,45,45,0,0,1-8.21,7,24.49,24.49,0,0,0-4.66,3.13c-.71.77-.6,1.4.87,1.89,3.1,1,8.55,1.53,12.46.23a14.57,14.57,0,0,0,6.08-3.94,8.8,8.8,0,0,1,4.89-.8c2.41.46,7.23-2.68,7.23-2.68l-.09-.81-.25-2.33a1.82,1.82,0,0,1-.41-1.42,7.44,7.44,0,0,0-.2-2.05l-.12-.66.44-.08s-.57-2.91.46-3.48.74-8,.74-8a9.06,9.06,0,0,0-2-2c-.69-.29-.06-3.83.06-4.28s1-9.3,1-9.3a11.89,11.89,0,0,1,.11-4c.46-1.19-.55-5.78-.55-5.78a1.07,1.07,0,0,1,.29-1.26c.64-.68.38-6.78.38-6.78s-.05-3.08-.05-3.88a14,14,0,0,1,1.32-4.67c.63-1,.23-4,.23-4h0l0-.22a1.66,1.66,0,0,1,.06-.33l.05-.3a44.81,44.81,0,0,1,1.13-5c.77-2.39,1.61-6.61,1.61-6.61l5.35-13.92.06-.16s2.47,4.56,2.47,8.79a51,51,0,0,1,.46,6.45,76.65,76.65,0,0,0,.51,7.77s.74,9.24.74,9.64.92,7.53,1.5,8.61-.58,4.39-.92,4.73.11,8.72.11,8.72-.86,6.62-1,8-.86,6.61-.29,8.66.35,2.34.35,2.34,2.07,2.11.86,2.29a3.16,3.16,0,0,0-2.41,3.76c0,.13.07.27.11.4a54.35,54.35,0,0,0,2.53,6.12l.95-.2v.68l.07,3.39a21.78,21.78,0,0,1,.17,4c-.17.54-.38,3.1-.51,4.43,0,.49-.06.81-.06.81s0,3,6.37,2.11,7.52-3.42,7.52-3.42a1.67,1.67,0,0,1,0-.31c.1-.58.31-1.8.47-2.48.23-.92-1.83-5-1.83-5s-.35-2.79-.92-3.42a2.89,2.89,0,0,1-.46-1.2c-.06-.23-.1-.47-.14-.7a3.1,3.1,0,0,1,.42.08s-.34-2,1-2.63a1.88,1.88,0,0,0,.81-2.51,18.66,18.66,0,0,1,.51-3.76,1.85,1.85,0,0,1,.46-1.82c.81-.8,1.44-6.39,1.44-6.39l.11-21.55s.41-3.82-.05-5.35-.92-4.51-.29-5.3.05-4.51.05-4.51,0-7.81.87-9.74S344,213,344,213l.23-8s1.88-1.78,1.43-11c2-.13,4.26-.2,4.59.08.63.51,4.71,3.13,7.12,1.48a33.33,33.33,0,0,0,2.87-2.22l-1-17.1c.63,1,1,1.59,1,1.59,0-2.39,6.77-10.15,6.77-10.15s6.32-8.15,7.7-9.12,4.07-6.1,4.07-6.1a24.94,24.94,0,0,1,1.38-2.85C380.84,148.5,378.77,145.76,379,145.13Zm-14.82,6c-1.72.18-5.35,4.11-5.4,5a3.38,3.38,0,0,1-.76,1.53c0-.35-.06-.7-.08-1.06-.41-5-.85-11.17-.65-11.77.35-1,.23-5.64.23-5.64h0l.06-.09c1.15,3.58,4.75,7.8,4.75,7.8s.63,1.82,1.38,1.88S364.18,151.11,364.18,151.11Z"/><path class="cls-6" d="M272.14,149.82s2.09-11,8.83-11l4.92,10.13-3.28,2.26S275.48,151.4,272.14,149.82Z"/><path class="cls-7" d="M285.89,148.91l-3.28,2.26a38.22,38.22,0,0,1-8.61-.72,10.19,10.19,0,0,1-1.86-.63.65.65,0,0,1,0-.18v0a24.5,24.5,0,0,1,1.27-4c.21-.5.44-1,.7-1.51a10.14,10.14,0,0,1,4.27-4.68,6,6,0,0,1,2.24-.59h.3l.11.23,1.66,3.42Z"/><path class="cls-6" d="M341.79,194.51s7.07-.67,7.69-.16,4.64,3.11,7,1.46.79-7.35.79-7.58-.22-8.31-.22-8.31l-4.25-5.72-5.31-10-10.87-1.08.29,15.9-.06,8.15Z"/><path class="cls-7" d="M341.79,194.51s7.07-.67,7.69-.16,4.64,3.11,7,1.46.79-7.35.79-7.58-.22-8.31-.22-8.31l-4.25-5.72-5.31-10-10.87-1.08.29,15.9-.06,8.15Z"/><path class="cls-8" d="M279.55,138.49s-.56,6.91-4.86,7c0,0-1.22-.74-2.86-2-3.78-2.83-9.78-8.26-8.12-13.32,2.38-7.24,13.92,6.12,13.92,6.12l.88,1Z"/><path class="cls-7" d="M279.55,138.49s-.56,6.91-4.86,7c0,0-1.22-.74-2.86-2l-.37-.47a5.57,5.57,0,0,0,2.36.63,3.18,3.18,0,0,0,3.06-1.94,24.49,24.49,0,0,0,1.19-2.73,7.73,7.73,0,0,0,.44-1.7Z"/><path class="cls-9" d="M277.68,151l-1-1.25-3.26-4.21-1.66-2.14a5.53,5.53,0,0,0,2.35.63,3.14,3.14,0,0,0,3.06-1.93,23,23,0,0,0,1.19-2.75c.54-1.53.53-2.29.34-2.57a16.38,16.38,0,0,1,1.87,1.66l0,0,.32.3.11.23,1.64,3.27v.14C282.86,143.46,283.42,150.07,277.68,151Z"/><path class="cls-6" d="M311.58,296.64s-4.76,3.11-7.13,2.68a8.67,8.67,0,0,0-4.81.79,14.3,14.3,0,0,1-6,3.91c-3.83,1.3-9.22.79-12.28-.23-1.44-.48-1.56-1.1-.86-1.87a23.45,23.45,0,0,1,4.59-3.11,44.52,44.52,0,0,0,8.08-6.88,2.44,2.44,0,0,1,.74-1.64,8.62,8.62,0,0,0,1.15-1.19c.61-.72,1.18-1.47,1.18-1.47l14,.4s.24,1,.42,2a7.33,7.33,0,0,1,.2,2,1.88,1.88,0,0,0,.38,1.41l.25,2.29Z"/><path class="cls-6" d="M340.83,300.55c-.17.67-.38,1.89-.46,2.46l-.05.31s-1.15,2.49-7.41,3.4-6.28-2.1-6.28-2.1,0-.32.06-.81c.11-1.32.34-3.86.5-4.4a19.74,19.74,0,0,0-.17-4l-.06-3.37,0-2.34,10.41-1.08a20,20,0,0,0,.34,2.32,3,3,0,0,0,.45,1.19c.57.62.91,3.4.91,3.4S341.05,299.64,340.83,300.55Z"/><path class="cls-7" d="M310.22,288s.24,1,.42,2c-1.51.28-8.11,1.42-9.76.62a25.53,25.53,0,0,0-5.88-1.41l.06-.23c.61-.72,1.18-1.47,1.18-1.47Z"/><path class="cls-7" d="M337.66,291c-2.64-.45-8.42.64-10.71,1.1l-.05-2.34,10.41-1.08A20,20,0,0,0,337.66,291Z"/><path class="cls-10" d="M343.53,205.21l-.23,8s.29,12.16-.56,14.09-.85,9.67-.85,9.67.56,3.68-.06,4.47-.17,3.73.28,5.26.06,5.32.06,5.32l-.11,21.39s-.62,5.54-1.42,6.34a1.83,1.83,0,0,0-.45,1.8,19.17,19.17,0,0,0-.51,3.74,1.88,1.88,0,0,1-.79,2.49c-1.3.62-1,2.6-1,2.6-3.11-.74-11.94,1.25-11.94,1.25a53.19,53.19,0,0,1-2.49-6.06,3.13,3.13,0,0,1,1.87-4,2.91,2.91,0,0,1,.39-.12c1.19-.17-.85-2.26-.85-2.26s.23-.28-.34-2.32.11-7.26.29-8.6l1-7.92s-.45-8.32-.11-8.66,1.47-3.62.91-4.7-1.48-8.14-1.48-8.54-.73-9.56-.73-9.56a76.61,76.61,0,0,1-.51-7.75,48.55,48.55,0,0,0-.45-6.39c0-4.21-2.43-8.72-2.43-8.72l-.06.16L315.76,220s-.85,4.18-1.58,6.56a43.06,43.06,0,0,0-1.11,4.91l-.05.3a1.26,1.26,0,0,1,0,.32l0,.23h0s.38,3-.23,4a14.43,14.43,0,0,0-1.3,4.64c0,.79.06,3.85.06,3.85s.22,6.05-.39,6.73a1.1,1.1,0,0,0-.28,1.25s1,4.59.56,5.77a12,12,0,0,0-.11,4s-.9,8.77-1,9.22-.74,4-.06,4.25a9,9,0,0,1,2,2s.28,7.41-.74,8-.45,3.45-.45,3.45-8.2,1.58-10.07.67a26.13,26.13,0,0,0-5.89-1.41l.57-1.86c0,.06-.41.67-.68-1.65s2.1-1.25,2.1-1.25,1.86.46-1.15-2.48-1.53-6-1.36-6a38.09,38.09,0,0,0,.57-4.35,14.4,14.4,0,0,0,.11-4.64c-.4-2-.73-8.38-.73-8.38s.28-4.8-.23-6.56.34-4.92.51-5.66-.53-7.45-.53-7.45a20.77,20.77,0,0,0,.23-5.48c-.34-2.32.34-10.87.34-10.87l1-9.84a21.11,21.11,0,0,0,.62-4.3,35.21,35.21,0,0,1,.85-5.6,6.17,6.17,0,0,1,.45-2.72c.57-1.15.79-4.86.79-4.86l5.44-12.45,2.68-11,35.92-.34s.13,1,.35,2.68.53,4.29.87,7.45c.31,2.87.65,6.25,1,10C345.82,203.06,343.53,205.21,343.53,205.21Z"/><path class="cls-8" d="M340.2,106.14l-8.37,8.94s-10.75-4.3-9.62-5.77c.44-.57.39-2.37.12-4.35-.38-3.14-1.25-6.74-1.25-6.74s18.78-3.06,17.21.11a5.23,5.23,0,0,0-.12,3.76A14.39,14.39,0,0,0,340.2,106.14Z"/><path class="cls-7" d="M338.28,98.33c-.58,1.15-.85,1.27-.49,2.52-2.46,2.63-5.58,5.52-9.47,5.52a13.39,13.39,0,0,1-6-1.41c-.38-3.13-1.25-6.74-1.25-6.74S339.86,95.16,338.28,98.33Z"/><path class="cls-8" d="M341.79,92.56a13.47,13.47,0,0,1-26.93,0v-.2a13.47,13.47,0,1,1,26.93.2Z"/><path class="cls-7" d="M343.74,181.4c-1.78,0-7.72.06-14.36.16h-.08l-2.19,0H327c-7.87.13-15.63-1.41-18.74-1.12-6.62.62,2.38-6.12,2.38-6.12a55,55,0,0,0,15.08,1.53l1.91-.1c6-.34,12.06-.9,15.22-1.85C343.1,175.69,343.4,178.23,343.74,181.4Z"/><path class="cls-11" d="M343.74,181.06c-1.78,0-7.72.06-14.36.16h-.08l-2.19,0H327c-7.87.13-15.63-1.41-18.74-1.12-6.62.63,2.38-6.12,2.38-6.12a55,55,0,0,0,15.08,1.53l1.91-.1c6-.34,12.06-.9,15.22-1.85C343.1,175.35,343.4,177.89,343.74,181.06Z"/><path class="cls-7" d="M324.7,109.87l-10.41,4.87-8,62.12s4.75-2.15,7.47-.79,11.09.11,11.09.11,6.12-.34,7,.34,11.54-2.84,11.54-2.84,1.91-4.3.45-5,.46-7.35.46-7.35l-.91-44.81-1.82-5.77-4.86-3-5,4-2.38.34Z"/><path class="cls-9" d="M324.7,109.19l-10.41,4.87-8,62.12s4.75-2.15,7.47-.79,11.09.11,11.09.11,6.12-.33,7,.34S343.38,173,343.38,173s1.92-4.3.45-5,.46-7.37.46-7.37l-.91-44.8-1.82-5.77-4.86-2.95-5,4-2.38.34Z"/><path class="cls-7" d="M324.53,112.08s3,3.56,3,4.3-.18,2.49-.18,2.49L325,123.46s-1.24,5.71-1.24,6.9-2,11.47-2,11.47l-2.39,15.85-3,20.77,3.05,5.26,3.62-3.06,4.81-37,1-7.3S330,123.22,330,121.86a46.23,46.23,0,0,0-.62-4.92s.73-3.4,3.79-4.21-.23-.17-.23-.17l-1.75-1.41-1.53.62S325.44,110.49,324.53,112.08Z"/><path class="cls-3" d="M324.19,111.74s3,3.56,2.95,4.3-.18,2.49-.18,2.49l-2.26,4.59s-1.24,5.71-1.24,6.9-2,11.47-2,11.47l-2.38,15.85-3,20.76,3.06,5.27,3.62-3.06,4.81-37,1-7.29s1.08-13.13,1.08-14.48a46.52,46.52,0,0,0-.62-4.93s.73-3.39,3.79-4.18-.23-.17-.23-.17l-1.75-1.42-1.53.63S325.1,110.15,324.19,111.74Z"/><path class="cls-7" d="M322.21,105.8s-.45.34-.56,2.6a45.15,45.15,0,0,1-1.7,7.36s5.89-4.08,8.83-3.63Z"/><path class="cls-9" d="M322.21,105.12s-.45.34-.56,2.6a45,45,0,0,1-1.7,7.35s5.89-4.07,8.83-3.61Z"/><path class="cls-7" d="M338.28,104,329,112.13s7.8,4.64,8.82,5.77,2-11.09,2-11.09Z"/><path class="cls-9" d="M338.62,103.31l-9.28,8.15s7.81,4.64,8.83,5.77,2-11.09,2-11.09Z"/><path class="cls-7" d="M322.55,105.8s-1-.51-2,1a6.39,6.39,0,0,1-2.77,2.15s-10.3,1.64-10.71,3l-4.81.28s-1.7.23-1.87,3.79-1.07,3.91-1.07,3.91-2,3.5-1.81,5.31a3,3,0,0,1-1.53,2.72l7.07,18.39s.23,7.58-1.07,10.35-3.74,15.05-3.74,15.05,1-.22,1,.45-1.2,8.1-1.2,8.1a16.17,16.17,0,0,1-.91,4c-.57,1-.62,6.33-.62,6.33l-.91,3.85s2.15,4.81,5.43,4.13S310.24,185,310.24,185L314,171.15l2.94-13.7.85-9.27,1.36-20.54,2-13.58S323.35,106.75,322.55,105.8Z"/><path class="cls-6" d="M322.21,105.12s-1-.51-2,1a6.39,6.39,0,0,1-2.77,2.15s-10.3,1.64-10.71,3l-4.81.28s-1.69.23-1.87,3.79-1.07,3.91-1.07,3.91-2,3.51-1.81,5.32a3,3,0,0,1-1.53,2.71l7.08,18.39s.22,7.58-1.08,10.35S297.92,171,297.92,171s1-.23,1,.45-1.25,8.09-1.25,8.09a16.51,16.51,0,0,1-.9,4c-.57,1-.62,6.34-.62,6.34l-.91,3.84s2.15,4.81,5.43,4.13,9.23-13.52,9.23-13.52l3.79-13.86,2.94-13.69.85-9.28L318.81,127l2-13.58S323,106.08,322.21,105.12Z"/><path class="cls-7" d="M285.89,148.91l-3.28,2.26a38.22,38.22,0,0,1-8.61-.72l-1.82-.81-.38-.16.38.12a7.48,7.48,0,0,0,4.53.16c4.64-1.56,4.13-9.23,4-11a1.22,1.22,0,0,0,0-.32v0l0,.05a2.73,2.73,0,0,0,.21.3l.21.22h0l1.64,3.28v.13Z"/><path class="cls-6" d="M297.25,126.79l-1.59.45-.22,3.22a2.18,2.18,0,0,0-2.38,1.92,7.91,7.91,0,0,1-1.41,3.22s-3.11,2.61-3.28,4.81l-1.92,1.19s-4.47-1-5.48-2.83c0,0,2,14.6-8.83,11,0,0,12.17,5.31,12.73,6.05a7.13,7.13,0,0,0,7.7,1.07,8.16,8.16,0,0,0,4.13-4.59s3.28-4.58,3.39-5.26,2.68-1.47,2.68-1.47l4.86-11.77Z"/><path class="cls-7" d="M337,110.78l1.64-7.47s.74,2.43,1.47,3l2.44,1.88a14.19,14.19,0,0,0,3.28,1.12c.85,0,5.43,1.19,6,1.82s2.84.16,2.84.16,1.86.63,3.5,1,2.43,3.11,2.09,4.21a3.25,3.25,0,0,0,.8,3.06,7.29,7.29,0,0,1,1,2.89A3.29,3.29,0,0,1,364,124.1a11.15,11.15,0,0,1,.38,4l-8.41,11.88a34.51,34.51,0,0,1-.23,5.6c-.33,1,1.19,18.33,1.19,18.33l1.75,29.76a32,32,0,0,1-2.83,2.21c-.51.22-1-10.52-1-10.92s-13.07-19.58-13.07-19.58S340,162.51,340,161.9s-1.64-6.34-1.64-6.34l-2.49-11Z"/><path class="cls-6" d="M365.06,127.4v.65l-8.41,11.86h0a34.29,34.29,0,0,1-.22,5.6c-.2.59.23,6.68.63,11.68.29,3.61.55,6.65.55,6.65l.75,12.62,1,17.13a32,32,0,0,1-2.83,2.21c-.51.23-1-10.52-1-10.92s-13.07-19.57-13.07-19.57-1.76-2.84-1.76-3.45-1.64-6.33-1.64-6.33l-2.48-11,1.13-33.72.92-7.46a16.52,16.52,0,0,0,2.15,3l2.43,1.87a14.12,14.12,0,0,0,3.28,1.15c.85,0,5.44,1.18,6,1.81s2.82.17,2.82.17,1.87.62,3.51,1,2.44,3.12,2.09,4.21a3.25,3.25,0,0,0,.8,3.06,7.36,7.36,0,0,1,1,2.88,3.36,3.36,0,0,1,1.92,1.65A8.67,8.67,0,0,1,365.06,127.4Z"/><path class="cls-7" d="M295.91,278.14c.27,0,12.16.45,11.93,2.38S295.91,278.14,295.91,278.14Z"/><path class="cls-7" d="M298.56,281.37s8,1.3,5.89,2.49S298.56,281.37,298.56,281.37Z"/><path class="cls-7" d="M328.23,276.9s13.24,1.14,11.26,2.6-6.68,1.69-6.88,1.75S328.23,276.9,328.23,276.9Z"/><path class="cls-7" d="M326.63,282.72s7.35,1.25,7.58,2.68S326.63,282.72,326.63,282.72Z"/><path class="cls-7" d="M330.7,248.66s6.73,1.59,7.13,2.68Z"/><path class="cls-7" d="M304.73,253.53s-3.51,1-.11,3.06S304.73,253.53,304.73,253.53Z"/><path class="cls-7" d="M320.29,199.15c.38,0,6.56-2,8.71-1.14a14.65,14.65,0,0,0,4.81.91Z"/><path class="cls-7" d="M321.08,205.6l-.06.56L315.76,220s-.85,4.18-1.58,6.56a43.06,43.06,0,0,0-1.11,4.91l4.67-29Z"/><path class="cls-10" d="M329.3,181.22l-2.19,0H327l-1.29-5.7,1.91-.1Z"/><path class="cls-8" d="M356,174.32l-1.41,1.14-4.7,3.88s-12.73,6.79-16.24.34c-3.09-5.68,11.35-9.74,14.82-10.63l.74-.18Z"/><path class="cls-7" d="M301.62,118.7s2.49,1.14,3.06,2.71S301.62,118.7,301.62,118.7Z"/><path class="cls-7" d="M293.92,135.67s-3.62,4.41-2.15,6.12S293.92,135.67,293.92,135.67Z"/><path class="cls-7" d="M358.65,121.19s-3.4.34-3.51,3.28Z"/><path class="cls-7" d="M327.19,167.58c.34-.34,8.15-11.88,9.95-10.86Z"/><path class="cls-7" d="M341.79,92.56a13.29,13.29,0,0,1-1.59,6.35l-.1,0c-.85-.18-1.3-1.17-2-1.79a2.66,2.66,0,0,0-3.06-.43,3.11,3.11,0,0,0-1.5,2.9c-.43-1.81-.3-3.73-.72-5.55s-1.68-3.65-3.42-3.68c-.76,0-1.62.27-2.16-.29-.33-.34-.38-.87-.64-1.28-1.23-2-5-1-6.55,0s-3.33,2.67-5.24,3.55a13.47,13.47,0,1,1,26.93.2Z"/><path class="cls-12" d="M326.66,88.43a6.62,6.62,0,0,0,.63,1.28c.54.56,1.42.27,2.16.29,1.74,0,3,1.86,3.43,3.68s.28,3.74.71,5.55a3.09,3.09,0,0,1,1.51-2.9,2.64,2.64,0,0,1,3.06.43c.65.62,1.09,1.61,1.95,1.79s1.67-.64,2-1.53a23.37,23.37,0,0,0,.49-2.82c.38-1.76,1.53-3.21,2.17-4.89a8.83,8.83,0,0,0-.06-6.32c-.42-1.06-1.05-2-1.48-3.07-.65-1.62-.82-3.45-1.62-5a5.86,5.86,0,0,0-7-2.89c-1.22.46-2.29,1.36-3.54,1.76-1.67.54-3.46.13-5.19-.11s-3.65-.26-5,.87c-1.6,1.31-2,3.78-3.54,5.22-.63.6-1.42,1-2.08,1.53A2.71,2.71,0,0,0,314,83.61c.1,1.17,1.25,2.23.82,3.32a2.54,2.54,0,0,1-.63.83,11.75,11.75,0,0,0-2.73,4.66c3,1,6.3-2.39,8.67-4C321.65,87.44,325.42,86.42,326.66,88.43Z"/><path class="cls-7" d="M356,174.32l-1.41,1.14c-1.24-2.06-6.34-6.19-6.34-6.19l.22-.22.74-.18Z"/><path class="cls-9" d="M357.35,172.22s-.51,1.26-1,2.35-1.09,2.08-1.12,1.27c-.06-1.58-6.62-6.9-6.62-6.9l.89-.86,1-1Z"/><path class="cls-7" d="M357.58,163.85l.74,12.62c-1.76-2.74-6.58-9.74-9.69-9.52l7.52-8.65a9.27,9.27,0,0,0,.86-1.1C357.3,160.8,357.58,163.85,357.58,163.85Z"/><path class="cls-7" d="M357.35,172.22s-.51,1.26-1,2.35c-2-2.7-4.68-5.9-6.85-6.5l1-1Z"/><path class="cls-6" d="M363,126.45l2,1.58s3.39.06,3.73,2.89,3.44,4.13,3.44,4.13,2.32,2.32,2.32,3.39,1.75,3,1.75,3.17,1.7,3.62,1.47,4.24,1.81,3.34,1.19,4.36a26.28,26.28,0,0,0-1.36,2.83s-2.65,5.1-4,6.06-7.59,9.05-7.59,9.05-6.67,7.69-6.67,10.07c0,0-6.5-10.86-10.36-10.58l7.53-8.66s1.3-1.41,1.36-2.26,3.62-4.75,5.32-4.92c0,0,.28-2.32-.46-2.38s-1.36-1.87-1.36-1.87-5-5.88-5-9.62S363,126.45,363,126.45Z"/><path class="cls-7" d="M366,131.82s-4.75,3.51-3.74,4.64S366,131.82,366,131.82Z"/><path class="cls-7" d="M366.23,146.31s8.83-2.83,9.73,0Z"/><path class="cls-7" d="M311.58,296.64s-4.76,3.11-7.13,2.68a8.67,8.67,0,0,0-4.81.79,14.3,14.3,0,0,1-6,3.91c-3.83,1.3-9.22.79-12.28-.23-1.44-.48-1.56-1.1-.86-1.87,3.32.66,10.74,2,12.74,1a53.93,53.93,0,0,0,6.34-4s4.87-.68,5.55-.68a60.93,60.93,0,0,0,6.36-2.44Z"/><path class="cls-7" d="M340.37,303l-.05.31s-1.15,2.49-7.41,3.4-6.28-2.1-6.28-2.1,0-.32.06-.81C328.68,304.57,333,305.41,340.37,303Z"/><path class="cls-7" d="M304,131.15s0,12.9-1.11,14.17S304,131.15,304,131.15Z"/><path class="cls-7" d="M355,135.3l1.64,4.62S357.27,135.39,355,135.3Z"/><g class="cls-13"><path d="M315,85.85c.41-1.07-.68-2.11-.82-3.25a2.29,2.29,0,0,0-.18,1,22.82,22.82,0,0,0,.87,2.45A1.71,1.71,0,0,0,315,85.85Z"/><path d="M333.75,98c-.41-1.78-.29-3.67-.7-5.46s-1.69-3.65-3.42-3.68c-.77,0-1.63.28-2.16-.28-.33-.34-.39-.87-.64-1.28-1.24-2-5-1-6.56,0-2.29,1.53-5.49,4.75-8.46,4-.14.34-.27.69-.38,1,3,1,6.3-2.39,8.67-4,1.53-1,5.32-2,6.56,0a6.62,6.62,0,0,0,.63,1.28c.54.56,1.42.27,2.16.29,1.74,0,3,1.86,3.43,3.68s.28,3.74.71,5.55A3.08,3.08,0,0,1,333.75,98Z"/><path d="M342.25,95.91c-.3.9-1.11,1.72-2,1.53s-1.3-1.17-1.95-1.79a2.67,2.67,0,0,0-3.06-.43,3.06,3.06,0,0,0-1.5,2.74,3,3,0,0,1,1.33-1.64,2.65,2.65,0,0,1,3.06.43c.66.62,1.1,1.62,2,1.79s1.68-.63,2-1.53a8,8,0,0,0,.31-1.62A4.44,4.44,0,0,1,342.25,95.91Z"/><path d="M344.91,88.2c-.63,1.68-1.79,3.13-2.17,4.89a9.87,9.87,0,0,0-.16,1.09c.38-1.76,1.53-3.2,2.16-4.88a8.55,8.55,0,0,0,.53-2.34A8.81,8.81,0,0,1,344.91,88.2Z"/></g><circle class="cls-14" cx="263.15" cy="129.03" r="0.14"/><ellipse class="cls-1" cx="312" cy="303.51" rx="33.02" ry="3.37"/><path class="cls-15" d="M190.58,82.5l-100,64.88L155.83,265.1a4.54,4.54,0,0,0,2.91,2.22l59.14,14.43a4.56,4.56,0,0,0,5.17-2.45l29.34-61,32.15-43L208.25,85.12A13.51,13.51,0,0,0,190.58,82.5Z"/><path class="cls-7" d="M285.56,175.88l-.29.39-18.83,25.17-.34.46-12.69,17L228.32,271l-.71,1.46-3.54,7.35a4.56,4.56,0,0,1-5.18,2.46l-59.14-14.44a4.54,4.54,0,0,1-2.91-2.22l-5.69-10.24-1-1.84-41-74.07-.35-.63L91.57,147.89l2.08-1.34,15.71-10.2.37-.23,33.09-21.47,2.09-1.36L191.59,83a13.5,13.5,0,0,1,17.67,2.61l34.81,41.19,1.53,1.84,25.26,29.88.14.17,12.7,15,1.6,1.89Z"/><path class="cls-7" d="M270,158.19l-3.09,21.42-.93,6.46-.53,13.77,0,1.07-2.76,71.94a4.57,4.57,0,0,1-4.75,4.38,4.28,4.28,0,0,1-.8-.11l-29.81-6.65-.32-.07-76.45-17.06-1.41-.32-42-9.38,1-64.68,0-2.16.29-19.58.32-21.61,33.1-21.47,2.08-1.36c30.7,3.15,71.52,9.21,99.18,13.52l1.53,1.84L269.84,158Z"/><path class="cls-16" d="M273.51,132.79,269.88,158l-3.33,23.11-.93,6.45-.53,13.77-2.81,73a4.56,4.56,0,0,1-4.74,4.38,4.5,4.5,0,0,1-.81-.11l-30.13-6.72-76.44-17.06-43.44-9.7,1-66.84.29-19.58.34-22.9.35-23.56c7.18-.34,19,.43,33.11,1.85,31.59,3.17,74.65,9.58,102.81,14C261.86,130.84,273.51,132.79,273.51,132.79Z"/><path class="cls-7" d="M282.72,173.21l-16.17,7.93L184,221.6l-76-62.84L92.64,146l-2.08,1.34,17.16,31-1,66.84,43.43,9.7,5.67,10.23a4.54,4.54,0,0,0,2.91,2.22l59.14,14.43a4.56,4.56,0,0,0,5.17-2.45l3.55-7.36,30.13,6.73a4.55,4.55,0,0,0,5.44-3.46,5.63,5.63,0,0,0,.11-.81l2.8-73,19.18-25.62.05-.65Z"/><path class="cls-15" d="M90.56,147.38,83.74,264.16a4.57,4.57,0,0,0,3.56,4.72l181.1,40.21a4.56,4.56,0,0,0,5.43-3.48q.06-.3.09-.6l10.61-129.63L184,224.66Z"/><path class="cls-7" d="M85,266.83l94.08-58a6.9,6.9,0,0,1,8.8,1.37l84.21,98.22c.3.35.45.09,0,0L85,266.83C84.45,266.71,84.52,267.11,85,266.83Z"/><path class="cls-17" d="M85.66,266.74l93.11-56.25a7.3,7.3,0,0,1,9.29,1.46l83.45,96a1,1,0,0,1-1,1.64L86,268.58a1,1,0,0,1-.76-1.19A.94.94,0,0,1,85.66,266.74Z"/></svg>