<svg id="Layer_1" data-name="Layer 1" xmlns="http://www.w3.org/2000/svg" viewBox="0 0 347 333"><defs><style>.cls-1{fill:#f2f2f2;}.cls-2{fill:#3f3d56;}.cls-3{opacity:0.1;isolation:isolate;}.cls-4{fill:#2f2e41;}.cls-5{fill:#fb503b;}.cls-6{fill:#ffb9b9;}.cls-7{fill:#d0cde1;}.cls-8{fill:#087fbd;}</style></defs><title>vector image </title><path class="cls-1" d="M297.5,124.55C279.44,53.54,217,2.27,143.79.21,105.07-.87,64.32,12,34.65,56.91c-53,80.34,3.26,135.86,42.51,162.24a245.89,245.89,0,0,1,50.76,45.62c26.51,31.46,77.5,70.55,138.24,9.3C310.19,229.68,309.53,171.86,297.5,124.55Z"/><path class="cls-2" d="M346.52,282.7c0,17.44-76.07,49.86-171.89,49.86S-.07,302.15-.07,284.71s78.88-15.28,174.7-15.28S346.52,265.27,346.52,282.7Z"/><path class="cls-3" d="M346.52,282.7c0,17.44-76.07,49.86-171.89,49.86S-.07,302.15-.07,284.71s78.88-15.28,174.7-15.28S346.52,265.27,346.52,282.7Z"/><ellipse class="cls-2" cx="173.43" cy="284.51" rx="173.5" ry="31.56"/><polygon class="cls-4" points="239.11 177.17 239.11 261.58 253.23 284.59 254.31 286.34 310.02 286.34 311.15 177.17 239.11 177.17"/><polygon class="cls-3" points="239.11 177.17 239.11 261.58 253.23 284.59 254.1 177.17 239.11 177.17"/><polygon class="cls-4" points="104.61 174.91 104.61 259.33 90.49 282.34 89.41 284.09 33.7 284.09 32.57 174.91 104.61 174.91"/><polygon class="cls-3" points="104.61 174.91 104.61 259.33 90.49 282.34 89.62 174.91 104.61 174.91"/><polygon class="cls-4" points="328.03 173.23 328.03 178.29 25.26 178.29 25.26 170.97 53.4 156.34 303.27 156.34 328.03 173.23"/><polygon class="cls-3" points="328.03 173.23 328.03 178.29 25.26 178.29 25.26 170.97 328.03 173.23"/><polygon class="cls-3" points="68.59 198.55 55.09 198.55 49.46 194.61 74.78 194.61 68.59 198.55"/><polygon class="cls-3" points="68.59 214.87 55.09 214.87 49.46 210.93 74.78 210.93 68.59 214.87"/><polygon class="cls-3" points="68.59 237.94 55.09 237.94 49.46 234 74.78 234 68.59 237.94"/><polygon class="cls-3" points="68.59 261.02 55.09 261.02 49.46 257.08 74.78 257.08 68.59 261.02"/><polygon class="cls-3" points="275.13 200.8 288.63 200.8 294.26 196.86 268.94 196.86 275.13 200.8"/><polygon class="cls-3" points="275.13 217.12 288.63 217.12 294.26 213.18 268.94 213.18 275.13 217.12"/><polygon class="cls-3" points="275.13 240.2 288.63 240.2 294.26 236.26 268.94 236.26 275.13 240.2"/><polygon class="cls-3" points="275.13 263.27 288.63 263.27 294.26 259.33 268.94 259.33 275.13 263.27"/><path class="cls-2" d="M214,142.26l-1.87,12s-9.25,4.9-2.75,5.05,37.11,0,37.11,0,5.92,0-3.46-5.2l-1.88-12.56Z"/><path class="cls-3" d="M208.12,159.17a24.93,24.93,0,0,1,4-2.68l1.87-12,27.15,0,1.88,11.81a25.43,25.43,0,0,1,4.34,2.86c1.2-.28,2.52-1.3-4.34-5.1l-1.88-12.56-27.15.72-1.87,12S204.4,158.37,208.12,159.17Z"/><rect class="cls-2" x="166.32" y="58.72" width="122.31" height="85.2" rx="4.3"/><rect class="cls-1" x="170.44" y="63.27" width="114.08" height="63.82"/><circle class="cls-1" cx="227.47" cy="61.25" r="0.72"/><path class="cls-2" d="M288.63,132.15v7.47a4.31,4.31,0,0,1-4.3,4.3H170.62a4.3,4.3,0,0,1-4.3-4.3h0v-7.47Z"/><circle class="cls-1" cx="227.47" cy="138.07" r="2.74"/><polygon class="cls-2" points="223.2 167.1 223.2 168.54 145.51 168.54 145.51 167.39 145.62 167.1 147.53 161.9 221.61 161.9 223.2 167.1"/><path class="cls-2" d="M253.09,165.68c-.14.61-.67,1.25-1.88,1.85-4.33,2.17-13.14-.58-13.14-.58s-6.79-1.15-6.79-4.19a5.88,5.88,0,0,1,.6-.35c1.82-1,7.86-3.34,18.57.1a4.42,4.42,0,0,1,2,1.34A2.08,2.08,0,0,1,253.09,165.68Z"/><path class="cls-3" d="M253.09,165.68c-5.3,2-10,2.19-14.87-1.18a10.67,10.67,0,0,0-6.34-2.09c1.82-1,7.86-3.34,18.57.1a4.42,4.42,0,0,1,2,1.34A2.08,2.08,0,0,1,253.09,165.68Z"/><ellipse class="cls-1" cx="246.45" cy="163.92" rx="1.88" ry="0.58"/><polygon class="cls-3" points="223.2 167.1 223.2 168.54 145.51 168.54 145.51 167.39 145.62 167.1 223.2 167.1"/><path class="cls-5" d="M267.59,93.42c-.61-.62-8.48-10.53-9.8-12.16s-2.05-1.33-3-1.23S244,81.87,242.87,82s-1.84.62-1.12,1.64,7.15,10.11,8.58,12.26l-26.05,6.23L203.64,67.47c-.81-1.23-1-1.64-2.86-1.53s-16.24,1.32-17.26,1.32-2.15.52-1.12,3,17.36,37.59,17.77,38.61a3.5,3.5,0,0,0,4.39,2c2.86-.71,12.67-3.26,18.08-4.69,2.86,5.1,8.59,15.52,9.71,17.06,1.43,2,2.45,1.63,4.6,1,1.73-.51,26.76-9.5,27.88-10s1.84-.82,1-1.94c-.62-.82-7.15-9.71-10.63-14.31,2.35-.61,10.83-2.86,11.75-3.16s1.23-.82.61-1.43Zm-47.3,9.7c-.3.1-14.91,3.58-15.63,3.78s-.81.1-.81-.2c-.21-.31-17.37-35.86-17.68-36.27s-.2-.82,0-.82,13.8-1.22,14.2-1.22.41.1.62.41c0,0,19.1,33,19.41,33.5s.2.72-.11.82Zm41.07,7.66c.21.41.51.62-.31.82s-24.61,8.38-25.13,8.58-.81.31-1.43-.61-8.37-14.3-8.37-14.3l25.43-6.64c.62-.21.82-.31,1.23.3s8.38,11.55,8.58,11.85Zm1.64-18c-.62.11-9.91,2.46-9.91,2.46l-7.67-10.42c-.2-.31-.4-.62.11-.72s9.19-1.63,9.6-1.74.71-.2,1.23.51,7,9,7.35,9.3-.1.51-.71.61Z"/><circle class="cls-6" cx="158.61" cy="62.84" r="15.38"/><path class="cls-6" d="M147.27,70.52V94.81h25.1s-3.24-20.24-1.62-26.31Z"/><path class="cls-7" d="M197.05,103.3s-23.88-11.73-23.88-12.54-2.42-6.07-4-6.07-15.38-4.45-23.07,2L145.25,92,115.71,111.4l8.09,29.54s5.26,5.67,3.64,9.71,1.22,24.69,1.22,24.69l63.54-2V145.8s2-6.48,3.23-8.5,0-8.09,0-8.09l9.72-12.15S203.93,105.73,197.05,103.3Z"/><path class="cls-3" d="M116.72,121.31l1.82-9.91s-10.52,45.73-9.31,51,10.12,13.36,11.33,13.76,12.55-34.8,12.55-34.8Z"/><path class="cls-7" d="M122.59,110.18l-6.88,1.22s-10.52,45.73-9.31,51,10.12,13.36,11.33,13.76,12.55-34.8,12.55-34.8Z"/><path class="cls-3" d="M199.28,123.74l3.44-6.68s4.85,45.73,1.62,50.19-16.05,6.11-16.05,6.11l-.14-33.23Z"/><path class="cls-7" d="M199.88,111.8l5.27,5.26s4.85,45.73,1.61,50.19-16,6.11-16,6.11l-.14-33.23Z"/><path class="cls-2" d="M121.37,181.41s-11.73-4.45-13.76,4.05S112.47,232,112.47,232s4.45,28.73,7.28,29.54,15.38,1.21,17.41-2.43-6.07-40.87-6.07-40.87l46.94-.81s-2.83,32.37-4.45,35.21-1.62,12.54,0,12.54,19.42-.81,20.64-3.23,8.09-57.07,8.09-57.07,5.67-19-.81-17.8S121.37,181.41,121.37,181.41Z"/><path class="cls-4" d="M190.58,260.33s4-2.84,6.07,0,2.83,6.07-6.07,10.92-15.79,3.65-15.79,2.84V262.35Z"/><path class="cls-4" d="M120.56,259.11s-4-2.83-6.07,0-2.83,6.07,6.07,10.93,15.79,3.64,15.79,2.83V261.14Z"/><path class="cls-4" d="M158.71,43.44a13,13,0,0,0-4.52.65,17.08,17.08,0,0,0-3.22,1.7L144.18,50a3.2,3.2,0,0,0-1.92,3l-.84,6.35a8.21,8.21,0,0,0,.3,4.77,13.17,13.17,0,0,0,2.68,3,10.91,10.91,0,0,1,2.91,5.65c.49,2.65.18,5.85,2.28,7.54a7,7,0,0,0,4.14,1.17A61.09,61.09,0,0,0,165.67,81a4.58,4.58,0,0,0,1.81-.5,5,5,0,0,0,1.58-1.88c1.52-2.58,3.08-5.33,3.06-8.32,0-1.48-.38-3.08.33-4.37a14.56,14.56,0,0,1,1.22-1.59A8.75,8.75,0,0,0,174.86,60c.46-4.83,0-8.5-3.58-11.9A18.4,18.4,0,0,0,158.71,43.44Z"/><polygon class="cls-4" points="120.93 229.22 107.42 297.88 114.18 297.88 127.12 230.35 120.93 229.22"/><polygon class="cls-4" points="164.26 234.85 172.7 313.64 178.33 313.64 173.27 232.6 164.26 234.85"/><polygon class="cls-4" points="187.34 232.6 199.15 284.94 204.78 284.94 193.53 231.47 187.34 232.6"/><polygon class="cls-4" points="142.31 232.6 140.63 274.24 145.13 274.24 148.5 232.6 142.31 232.6"/><path class="cls-8" d="M111.36,221.91s-9-60.22,16.32-61.91S189,160,189,160s20.83-1.69,14.64,61.91c0,0,5.62,18.57-45,16.88S111.36,221.91,111.36,221.91Z"/><path class="cls-8" d="M342.1,246.5c0,10.5-6.24,14.16-13.94,14.16S314.22,257,314.22,246.5s13.94-23.86,13.94-23.86S342.1,236,342.1,246.5Z"/><polygon class="cls-2" points="327.79 250.27 333.74 239.4 327.82 248.89 327.88 244.94 331.98 237.07 327.9 243.89 328.01 236.79 332.4 230.52 328.03 235.67 328.1 222.64 327.67 239.15 323.23 232.35 327.62 240.54 327.2 248.48 327.19 248.27 322.05 241.09 327.17 249.01 327.12 250.01 327.11 250.02 327.12 250.1 326.06 260.69 327.47 260.69 327.64 259.84 332.75 251.93 327.65 259.06 327.79 250.27"/><polygon class="cls-4" points="337.06 283.44 320.44 283.44 316.14 259.16 340.43 259.16 337.06 283.44"/><rect class="cls-2" x="58.23" y="119.29" width="34.58" height="40.54"/><rect class="cls-1" x="63.59" y="125.58" width="23.85" height="27.96"/></svg>