<svg id="Layer_1" data-name="Layer 1" xmlns="http://www.w3.org/2000/svg" xmlns:xlink="http://www.w3.org/1999/xlink" viewBox="0 0 201 179"><defs><style>.cls-1,.cls-33,.cls-4,.cls-6{fill:#087fbd;}.cls-1,.cls-15,.cls-3,.cls-49,.cls-9{opacity:0.1;}.cls-1,.cls-15,.cls-21,.cls-22,.cls-25,.cls-26,.cls-29,.cls-3,.cls-30,.cls-33,.cls-39,.cls-44,.cls-49,.cls-50,.cls-52,.cls-6{isolation:isolate;}.cls-2{fill:#e6ecf8;}.cls-5{fill:#f9fafb;}.cls-22,.cls-26,.cls-30,.cls-6{opacity:0.3;}.cls-7{fill:#464a5f;}.cls-8{fill:#9c9ca1;}.cls-10{fill:#939498;}.cls-11{fill:#3a3768;}.cls-12{fill:#e6e8ec;}.cls-13,.cls-50,.cls-52{opacity:0.2;}.cls-14{fill:#be8b87;}.cls-15,.cls-32{fill:#fff;}.cls-16{fill:#efc8c4;}.cls-17{fill:#727a9c;}.cls-18,.cls-21,.cls-25,.cls-29,.cls-33{opacity:0.5;}.cls-19{fill:url(#linear-gradient);}.cls-20,.cls-21,.cls-22{fill:#f7b643;}.cls-23{fill:url(#linear-gradient-2);}.cls-24,.cls-25,.cls-26{fill:#f97878;}.cls-27{fill:url(#linear-gradient-3);}.cls-28,.cls-29,.cls-30{fill:#73b53b;}.cls-31{fill:url(#linear-gradient-4);}.cls-34{fill:#f0cbc6;}.cls-35{fill:#59393c;}.cls-36{fill:url(#linear-gradient-5);}.cls-37{fill:#ffb9b9;}.cls-38{fill:#b96b6b;}.cls-39{opacity:0.05;}.cls-40{fill:#c7c0d9;}.cls-41{fill:#caa8b1;}.cls-42,.cls-49,.cls-50{fill:none;}.cls-43{fill:#cbcdda;}.cls-44{opacity:0.03;}.cls-45{fill:#4c4c78;}.cls-46{fill:#767d9f;}.cls-47{fill:#6e6d84;}.cls-48{fill:#605b89;}.cls-49{stroke:#000;}.cls-49,.cls-50{stroke-miterlimit:10;}.cls-50{stroke:#605b89;}.cls-51{fill:#a8a8a8;}</style><linearGradient id="linear-gradient" x1="-346.39" y1="-2526.64" x2="-346.39" y2="-2511.45" gradientTransform="matrix(1, 0, 0, -1, 479.47, -2418.61)" gradientUnits="userSpaceOnUse"><stop offset="0" stop-color="gray" stop-opacity="0.25"/><stop offset="0.54" stop-color="gray" stop-opacity="0.12"/><stop offset="1" stop-color="gray" stop-opacity="0.1"/></linearGradient><linearGradient id="linear-gradient-2" x1="-902.83" y1="-3170.73" x2="-902.83" y2="-3155.6" gradientTransform="matrix(1, 0, 0, -1, 1033.16, -3057.27)" xlink:href="#linear-gradient"/><linearGradient id="linear-gradient-3" x1="-1364.62" y1="-3423.8" x2="-1364.62" y2="-3408.66" gradientTransform="matrix(1, 0, 0, -1, 1494.07, -3309.24)" xlink:href="#linear-gradient"/><linearGradient id="linear-gradient-4" x1="-1662.74" y1="-3541.4" x2="-1662.74" y2="-3526.27" gradientTransform="matrix(1, 0, 0, -1, 1791.77, -3425.82)" xlink:href="#linear-gradient"/><linearGradient id="linear-gradient-5" x1="214.34" y1="-1835.05" x2="214.34" y2="-1680.07" gradientTransform="matrix(1, 0, 0, -1, -120.94, -1665.37)" xlink:href="#linear-gradient"/></defs><title>vector image </title><ellipse class="cls-1" cx="94.82" cy="165.14" rx="24.8" ry="5.66"/><path class="cls-1" d="M55.8,11.89c6.09-5.42,15.65-6.54,24.36-6.1,27.35,1.36,52,14.56,73.39,29.49,7.71,5.41,15.34,11.23,20.35,18.68,10.22,15.15,7.19,36.15-7,48.63-4.83,4.25-10.69,7.51-16.7,10.39-10.69,5.14-22.23,9.26-34.37,10.43a112.82,112.82,0,0,1-26-1c-24-3.26-47.63-10.47-67.41-22.8C13.7,94.19,5.53,87.46,2,78.7s-1.29-19.83,7.57-25c3.66-2.14,8-3.11,12.33-4C28.17,48.33,34.58,47,40.28,44.3,46.16,41.49,53.13,36.06,52,29.84,50.71,23.17,49.71,17.32,55.8,11.89Z"/><path class="cls-2" d="M47.78,43.18l-4.11,1.59-6,2.32c-.22-.42-.56-1-1-1.67-1.42-2.36-3.78-6-5.87-9.25-2.36-3.64-4.4-6.7-4.4-6.7l1.48-.42,12-3.48Z"/><path class="cls-3" d="M47.78,43.18l-4.11,1.59a31.5,31.5,0,0,1-7,.64c-1.42-2.36-3.78-6-5.87-9.25L27.9,29l12-3.48Z"/><path class="cls-4" d="M50.83,42.2a28.57,28.57,0,0,1-15.91,2.92l-7.6-18.53L31,26l12.59-2.16,7.14,18Z"/><path class="cls-3" d="M50.69,41.83a30.83,30.83,0,0,1-5-.14,15.77,15.77,0,0,1-9-3.91C34.08,35.4,32.45,32,31,26L43.56,23.8Z"/><path class="cls-5" d="M55.37,40.79a34.54,34.54,0,0,1-9.49.36,15.89,15.89,0,0,1-5.42-1.52,16.37,16.37,0,0,1-3.55-2.39c-3.27-3-5-7.46-6.79-16.58a24.17,24.17,0,0,0,15.55-2.25S48.27,34.69,55.37,40.79Z"/><path class="cls-3" d="M45.88,41.15a15.89,15.89,0,0,1-5.42-1.52,16.7,16.7,0,0,1-3.55-2.38c2.79-.23,3.19-1.76,3.19-1.76A21.45,21.45,0,0,0,45.88,41.15Z"/><path class="cls-6" d="M34.16,24s6.36-.35,8.13-1.73l.27.87A24.47,24.47,0,0,1,34.16,25Z"/><path class="cls-6" d="M34.16,28.27A33.13,33.13,0,0,0,45,25.69l.16.36s-3.7,2.16-11,2.71Z"/><path class="cls-6" d="M34.65,29.94a33.37,33.37,0,0,0,10.81-2.58l.16.36s-3.69,2.15-11,2.71Z"/><path class="cls-6" d="M35.15,31.61A33.37,33.37,0,0,0,46,29l.16.36s-3.7,2.15-11,2.71Z"/><path class="cls-6" d="M35.64,33.28a33.23,33.23,0,0,0,10.81-2.59l.16.36s-3.69,2.16-11,2.71Z"/><path class="cls-6" d="M36.14,35A33.23,33.23,0,0,0,47,32.36l.16.36s-3.7,2.16-11,2.71Z"/><polygon class="cls-7" points="199.86 60.09 199.98 60.19 200 59.99 199.92 59.82 199.79 59.84 199.86 60.09"/><polygon class="cls-3" points="199.86 60.09 199.98 60.19 200 59.99 199.92 59.82 199.79 59.84 199.86 60.09"/><polygon class="cls-8" points="199.86 60.09 199.98 60.19 199.9 60.33 199.78 60.3 199.74 60.25 199.86 60.09"/><polygon class="cls-3" points="199.86 60.09 199.98 60.19 199.9 60.33 199.78 60.3 199.74 60.25 199.86 60.09"/><path class="cls-8" d="M177,43.88,167.2,57.49a1.15,1.15,0,0,0,.26,1.59l20.89,15.14a1.14,1.14,0,0,0,1.59-.25l9.95-13.64Z"/><path class="cls-3" d="M177,43.88,167.2,57.49a1.15,1.15,0,0,0,.26,1.59l20.89,15.14a1.14,1.14,0,0,0,1.59-.25l9.95-13.64Z"/><path class="cls-8" d="M177,43.66l-9.78,13.61a1.13,1.13,0,0,0,.25,1.58L188.3,74a1.14,1.14,0,0,0,1.59-.25l10-13.64Z"/><path class="cls-7" d="M176.83,35.23l.26,8.32L200,60l-.21-8.46a1.21,1.21,0,0,0-.52-1L177.22,35a.25.25,0,0,0-.34,0A.24.24,0,0,0,176.83,35.23Z"/><path class="cls-3" d="M176.83,35.23l.26,8.32L200,60l-.21-8.46a1.21,1.21,0,0,0-.52-1L177.22,35a.25.25,0,0,0-.34,0A.24.24,0,0,0,176.83,35.23Z"/><path class="cls-7" d="M176.69,35.33l.26,8.33L199.86,60.1l-.23-8.47a1.22,1.22,0,0,0-.51-1L177.07,35.13a.23.23,0,0,0-.33.06A.24.24,0,0,0,176.69,35.33Z"/><g class="cls-9"><path d="M177.62,47.39l-.6.83a.24.24,0,0,0,.06.32l.83.62a.23.23,0,0,0,.32,0l.6-.79a.23.23,0,0,0,0-.32h0l-.85-.67a.23.23,0,0,0-.32,0Z"/><path d="M179.16,48.5l-.59.83a.24.24,0,0,0,.05.32l.83.62a.22.22,0,0,0,.32,0l.6-.79a.23.23,0,0,0,0-.32h0l-.84-.67a.23.23,0,0,0-.32,0Z"/><path d="M180.78,49.66l-.59.83a.23.23,0,0,0,.05.32l.84.63a.22.22,0,0,0,.31,0l.6-.78a.23.23,0,0,0,0-.32l-.85-.67a.23.23,0,0,0-.32,0Z"/><path d="M182.42,50.84l-.59.83a.23.23,0,0,0,0,.32l.83.63a.24.24,0,0,0,.32,0l.6-.78a.23.23,0,0,0,0-.32l-.85-.67A.23.23,0,0,0,182.42,50.84Z"/><path d="M184.06,52l-.59.83a.24.24,0,0,0,.05.32l.83.63a.23.23,0,0,0,.32,0l.6-.79a.21.21,0,0,0,0-.31l-.85-.67a.23.23,0,0,0-.32,0Z"/><path d="M185.77,53.09l-.73,1a.11.11,0,0,0,0,.14l1,.77a.12.12,0,0,0,.15,0l.75-1a.12.12,0,0,0,0-.15l-1-.83a.11.11,0,0,0-.16,0Z"/><path d="M187.41,54.27l-.73,1a.12.12,0,0,0,0,.15l1,.77a.11.11,0,0,0,.15,0l.75-1a.12.12,0,0,0,0-.15l-1-.83a.11.11,0,0,0-.16,0Z"/><path d="M188.86,55.31l-.73,1a.1.1,0,0,0,0,.14l1,.77a.12.12,0,0,0,.15,0l.74-1a.1.1,0,0,0,0-.15l-1-.83a.11.11,0,0,0-.15,0S188.87,55.31,188.86,55.31Z"/><path d="M190.49,56.48l-.73,1.05a.09.09,0,0,0,0,.14h0l1,.77a.12.12,0,0,0,.15,0l.75-1a.12.12,0,0,0,0-.15l-1-.82a.11.11,0,0,0-.15,0Z"/><path d="M192.06,57.61l-.74,1a.11.11,0,0,0,0,.15l1,.76a.1.1,0,0,0,.15,0l.74-1a.11.11,0,0,0,0-.15l-1.05-.82a.11.11,0,0,0-.15,0Z"/><path d="M193.64,58.75l-.74,1a.11.11,0,0,0,0,.15l1,.76a.11.11,0,0,0,.15,0l.74-1a.1.1,0,0,0,0-.15l-1-.82a.11.11,0,0,0-.15,0Z"/><path d="M195.21,59.88l-.73,1a.1.1,0,0,0,0,.15l1,.76a.1.1,0,0,0,.15,0l.75-1a.11.11,0,0,0,0-.15l-1-.84a.11.11,0,0,0-.15,0S195.22,59.87,195.21,59.88Z"/><path d="M176.54,48.88l-.59.84A.24.24,0,0,0,176,50l.83.62a.23.23,0,0,0,.32,0l.6-.79a.23.23,0,0,0,0-.32l-.85-.67A.23.23,0,0,0,176.54,48.88Z"/><path d="M174.18,52.16l-.59.83a.23.23,0,0,0,0,.32l.84.63a.24.24,0,0,0,.32,0l.6-.78a.23.23,0,0,0,0-.32l-.85-.67A.24.24,0,0,0,174.18,52.16Z"/><path d="M178.08,50l-.59.84a.24.24,0,0,0,0,.32l.83.62a.23.23,0,0,0,.32,0l.6-.79a.23.23,0,0,0,0-.32L178.4,50A.23.23,0,0,0,178.08,50Z"/><path d="M179.7,51.17l-.59.83a.24.24,0,0,0,0,.32l.84.62a.23.23,0,0,0,.32,0l.59-.78a.22.22,0,0,0,0-.32l-.85-.68A.24.24,0,0,0,179.7,51.17Z"/><path d="M181.34,52.34l-.59.83a.23.23,0,0,0,.05.32l.84.63a.24.24,0,0,0,.32,0l.59-.78a.23.23,0,0,0,0-.32l-.85-.67A.23.23,0,0,0,181.34,52.34Z"/><path d="M175.77,53.22l-.59.83a.23.23,0,0,0,0,.32l.83.62a.23.23,0,0,0,.32,0l.6-.79a.22.22,0,0,0,0-.31l-.85-.67A.22.22,0,0,0,175.77,53.22Z"/><path d="M177.39,54.38l-.59.84a.21.21,0,0,0,0,.31l.83.63a.24.24,0,0,0,.32,0l.6-.78a.23.23,0,0,0,0-.32l-.85-.67A.22.22,0,0,0,177.39,54.38Z"/><path d="M179,55.56l-.59.83a.22.22,0,0,0,.05.32l.83.63a.24.24,0,0,0,.32-.05l.6-.78a.23.23,0,0,0,0-.32l-.85-.67A.22.22,0,0,0,179,55.56Z"/><path d="M183,53.52l-.59.83a.24.24,0,0,0,.05.32l.84.63a.24.24,0,0,0,.32,0l.59-.79a.21.21,0,0,0,0-.31l-.84-.69a.22.22,0,0,0-.32,0Z"/><path d="M184.62,54.69l-.59.84a.24.24,0,0,0,.05.32l.84.62a.21.21,0,0,0,.31,0l.6-.79a.23.23,0,0,0,0-.32l-.85-.67A.23.23,0,0,0,184.62,54.69Z"/><path d="M186.34,55.77l-.74,1a.12.12,0,0,0,0,.15l1,.76a.1.1,0,0,0,.15,0l.74-1a.1.1,0,0,0,0-.15l-1-.84a.11.11,0,0,0-.15,0A0,0,0,0,0,186.34,55.77Z"/><path d="M187.79,56.81l-.74,1a.11.11,0,0,0,0,.15l1,.77a.12.12,0,0,0,.15,0h0l.74-1a.1.1,0,0,0,0-.15l-1-.83a.1.1,0,0,0-.15,0Z"/><path d="M189.41,58l-.73,1a.1.1,0,0,0,0,.15l1,.76a.11.11,0,0,0,.15,0h0l.75-1a.12.12,0,0,0,0-.15l-1-.82a.09.09,0,0,0-.15,0Z"/><path d="M191,59.11l-.74,1a.11.11,0,0,0,0,.14l1,.77a.12.12,0,0,0,.15,0l.74-1a.1.1,0,0,0,0-.15l-1-.83a.1.1,0,0,0-.15,0Z"/><path d="M178.58,52.72l-.59.83a.24.24,0,0,0,0,.32l.84.62a.23.23,0,0,0,.32,0l.59-.79a.23.23,0,0,0,0-.32l-.83-.67a.22.22,0,0,0-.32,0Z"/><path d="M180.22,53.9l-.59.83a.24.24,0,0,0,.05.32l.84.62a.23.23,0,0,0,.32,0l.59-.79a.23.23,0,0,0,0-.32l-.85-.67a.25.25,0,0,0-.32,0Z"/><path d="M181.86,55.07l-.59.84a.24.24,0,0,0,0,.32l.84.62a.21.21,0,0,0,.31,0l.6-.79a.23.23,0,0,0,0-.32l-.85-.67A.23.23,0,0,0,181.86,55.07Z"/><path d="M183.51,56.25l-.59.84a.21.21,0,0,0,.05.31l.83.63a.24.24,0,0,0,.32-.05l.6-.78a.23.23,0,0,0,0-.32l-.85-.67A.22.22,0,0,0,183.51,56.25Z"/><path d="M185.22,57.33l-.74,1a.12.12,0,0,0,0,.15h0l1.05.76a.1.1,0,0,0,.15,0l.74-1a.09.09,0,0,0,0-.14l-1-.83a.11.11,0,0,0-.15,0Z"/><path d="M186.67,58.37l-.74,1a.11.11,0,0,0,0,.15l1,.76a.1.1,0,0,0,.15,0l.74-1a.11.11,0,0,0,0-.15h0l-1-.82a.1.1,0,0,0-.15,0Z"/><path d="M188.3,59.54l-.73,1a.1.1,0,0,0,0,.15l1,.76a.1.1,0,0,0,.15,0l.74-1a.1.1,0,0,0,0-.15l-1-.84a.11.11,0,0,0-.15,0Z"/><path d="M189.87,60.67l-.74,1a.12.12,0,0,0,0,.15l1,.77a.12.12,0,0,0,.15,0l.74-1a.1.1,0,0,0,0-.15l-1-.83a.1.1,0,0,0-.15,0Z"/><path d="M192.56,60.24l-.74,1a.1.1,0,0,0,0,.14l1,.77a.12.12,0,0,0,.15,0h0l.75-1a.12.12,0,0,0,0-.15l-1-.82a.12.12,0,0,0-.16,0Z"/><path d="M194.14,61.38l-.73,1a.12.12,0,0,0,0,.15l1,.76a.09.09,0,0,0,.14,0l.75-1a.11.11,0,0,0,0-.15l-1-.84a.12.12,0,0,0-.16,0Z"/><path d="M187.07,61.23l-.69,1a.15.15,0,0,0,0,.2h0l1,.72a.14.14,0,0,0,.2,0h0l.7-.92a.14.14,0,0,0,0-.2h0l-1-.78a.14.14,0,0,0-.2,0Z"/><path d="M188.65,62.36l-.69,1a.14.14,0,0,0,0,.2h0l1,.72a.14.14,0,0,0,.2,0h0l.7-.92a.14.14,0,0,0,0-.2h0l-1-.78a.14.14,0,0,0-.2,0Z"/><path d="M190.22,63.5l-.69,1a.14.14,0,0,0,0,.2h0l1,.72a.14.14,0,0,0,.2,0v0l.7-.92a.13.13,0,0,0,0-.19h0l-1-.78a.14.14,0,0,0-.21,0Z"/><path d="M191.82,64.6l-.74,1a.11.11,0,0,0,0,.15l1,.76a.1.1,0,0,0,.15,0l.74-1a.11.11,0,0,0,0-.15L192,64.57a.11.11,0,0,0-.15,0Z"/><path d="M175.37,50.43l-.63.9a.24.24,0,0,0,.06.32l2.45,1.74a.22.22,0,0,0,.31,0l.67-.87a.23.23,0,0,0,0-.32h0l-2.49-1.77a.23.23,0,0,0-.32,0Z"/><path d="M191.41,61.82l-.77,1.09a.12.12,0,0,0,0,.15l2.65,1.88a.12.12,0,0,0,.15,0l.81-1.07a.1.1,0,0,0,0-.15h0l-2.69-1.91a.11.11,0,0,0-.15,0Z"/><path d="M180.7,56.64l-.74,1a.12.12,0,0,0,0,.15L185.72,62a.1.1,0,0,0,.15,0l.81-1.06a.12.12,0,0,0,0-.15h0l-5.8-4.19a.11.11,0,0,0-.15,0Z"/></g><path class="cls-7" d="M177.59,47.23l-.59.84a.22.22,0,0,0,.05.31l.83.63a.23.23,0,0,0,.32,0l.6-.79a.23.23,0,0,0,0-.32h0l-.85-.67a.23.23,0,0,0-.32,0Z"/><path class="cls-7" d="M179.14,48.34l-.6.84a.22.22,0,0,0,.05.31l.84.63a.23.23,0,0,0,.31,0l.6-.79a.23.23,0,0,0,0-.32h0l-.85-.67A.22.22,0,0,0,179.14,48.34Z"/><path class="cls-7" d="M180.76,49.5l-.59.83a.24.24,0,0,0,.05.32l.83.63a.24.24,0,0,0,.32-.05l.6-.79a.21.21,0,0,0,0-.31h0l-.85-.68a.23.23,0,0,0-.32,0Z"/><path class="cls-7" d="M182.4,50.68l-.6.84a.24.24,0,0,0,0,.32l.84.62a.23.23,0,0,0,.32,0l.6-.79a.25.25,0,0,0,0-.32h0l-.86-.67a.21.21,0,0,0-.31,0Z"/><path class="cls-7" d="M184,51.86l-.59.84a.22.22,0,0,0,.05.31l.84.63a.24.24,0,0,0,.32,0l.6-.78a.25.25,0,0,0,0-.32l-.86-.67A.23.23,0,0,0,184,51.86Z"/><path class="cls-7" d="M185.75,52.94,185,54a.11.11,0,0,0,0,.15l1,.76a.1.1,0,0,0,.15,0l.74-1a.11.11,0,0,0,0-.15l-1.05-.84a.11.11,0,0,0-.15,0Z"/><path class="cls-7" d="M187.39,54.12l-.74,1a.12.12,0,0,0,0,.15h0l1,.76a.1.1,0,0,0,.15,0l.74-1a.11.11,0,0,0,0-.15l-1-.84a.11.11,0,0,0-.15,0Z"/><path class="cls-7" d="M188.84,55.16l-.74,1a.11.11,0,0,0,0,.15l1,.76a.1.1,0,0,0,.15,0l.75-1a.12.12,0,0,0,0-.15L189,55.13a.11.11,0,0,0-.15,0Z"/><path class="cls-7" d="M190.46,56.33l-.73,1a.11.11,0,0,0,0,.15l1.05.76a.1.1,0,0,0,.15,0l.74-1a.1.1,0,0,0,0-.15l-1-.84a.11.11,0,0,0-.15,0Z"/><path class="cls-7" d="M192,57.46l-.74,1a.11.11,0,0,0,0,.15l1,.76a.1.1,0,0,0,.15,0h0l.74-1a.1.1,0,0,0,0-.15l-1-.83a.1.1,0,0,0-.15,0Z"/><path class="cls-7" d="M193.61,58.59l-.73,1a.1.1,0,0,0,0,.15h0l1,.77a.11.11,0,0,0,.15,0l.75-1a.11.11,0,0,0,0-.15l-1-.83a.11.11,0,0,0-.16,0Z"/><path class="cls-7" d="M195.19,59.72l-.74,1a.11.11,0,0,0,0,.15l1,.76a.1.1,0,0,0,.15,0l.74-1a.1.1,0,0,0,0-.15h0l-1-.83a.11.11,0,0,0-.15,0Z"/><path class="cls-7" d="M176.51,48.73l-.59.83a.23.23,0,0,0,.05.32l.84.63a.24.24,0,0,0,.32,0l.59-.78a.23.23,0,0,0,0-.32l-.86-.67A.23.23,0,0,0,176.51,48.73Z"/><path class="cls-7" d="M174.16,52l-.59.84a.22.22,0,0,0,.05.31l.83.63a.23.23,0,0,0,.32-.05l.6-.78a.23.23,0,0,0,0-.32l-.85-.67A.23.23,0,0,0,174.16,52Z"/><path class="cls-7" d="M178.06,49.84l-.59.83a.22.22,0,0,0,.05.32l.83.63a.24.24,0,0,0,.32,0l.6-.78a.23.23,0,0,0,0-.32l-.85-.67A.22.22,0,0,0,178.06,49.84Z"/><path class="cls-7" d="M179.68,51l-.59.84a.23.23,0,0,0,0,.32l.83.62a.23.23,0,0,0,.32,0l.6-.79a.23.23,0,0,0,0-.32L180,51a.25.25,0,0,0-.33,0Z"/><path class="cls-7" d="M181.32,52.18l-.59.84a.21.21,0,0,0,.05.31l.83.63a.24.24,0,0,0,.32-.05l.6-.78a.23.23,0,0,0,0-.32l-.85-.67A.22.22,0,0,0,181.32,52.18Z"/><path class="cls-7" d="M175.74,53.06l-.59.84a.22.22,0,0,0,0,.31l.84.63a.22.22,0,0,0,.31-.05L177,54a.23.23,0,0,0,0-.32l-.85-.67A.23.23,0,0,0,175.74,53.06Z"/><path class="cls-7" d="M177.36,54.23l-.59.83a.24.24,0,0,0,0,.32l.84.62a.21.21,0,0,0,.31,0l.6-.79a.23.23,0,0,0,0-.32l-.85-.67A.24.24,0,0,0,177.36,54.23Z"/><path class="cls-7" d="M179,55.41l-.59.83a.24.24,0,0,0,.05.32l.84.62a.22.22,0,0,0,.31,0l.6-.78a.23.23,0,0,0,0-.32l-.84-.67a.22.22,0,0,0-.32,0Z"/><path class="cls-7" d="M183,53.36l-.59.84a.21.21,0,0,0,0,.31l.83.63a.24.24,0,0,0,.32,0l.6-.78a.23.23,0,0,0,0-.32l-.83-.67a.23.23,0,0,0-.33,0Z"/><path class="cls-7" d="M184.6,54.54l-.59.83a.22.22,0,0,0,.05.32l.83.63a.24.24,0,0,0,.32,0l.6-.78a.23.23,0,0,0,0-.32l-.85-.67A.22.22,0,0,0,184.6,54.54Z"/><path class="cls-7" d="M186.31,55.61l-.74,1a.11.11,0,0,0,0,.15l1,.76a.12.12,0,0,0,.15,0l.75-1a.11.11,0,0,0,0-.14h0l-1.05-.82a.1.1,0,0,0-.14,0Z"/><path class="cls-7" d="M187.76,56.66l-.73,1a.1.1,0,0,0,0,.15l1,.76a.1.1,0,0,0,.15,0l.75-1a.12.12,0,0,0,0-.15l-1.05-.83a.11.11,0,0,0-.15,0Z"/><path class="cls-7" d="M189.39,57.83l-.74,1a.12.12,0,0,0,0,.15l1.05.76a.11.11,0,0,0,.15,0l.74-1a.11.11,0,0,0,0-.16l-1-.82a.11.11,0,0,0-.15,0Z"/><path class="cls-7" d="M191,59l-.73,1a.1.1,0,0,0,0,.15l1,.76a.1.1,0,0,0,.15,0l.75-1a.12.12,0,0,0,0-.15l-1-.83a.1.1,0,0,0-.15,0Z"/><path class="cls-7" d="M178.56,52.56l-.59.84a.21.21,0,0,0,.05.31l.83.63a.24.24,0,0,0,.32-.05l.6-.78a.23.23,0,0,0,0-.32l-.85-.67A.22.22,0,0,0,178.56,52.56Z"/><path class="cls-7" d="M180.2,53.74l-.59.84a.21.21,0,0,0,0,.31l.83.63a.24.24,0,0,0,.32-.05l.6-.78a.23.23,0,0,0,0-.32l-.85-.67A.22.22,0,0,0,180.2,53.74Z"/><path class="cls-7" d="M181.84,54.92l-.59.84a.21.21,0,0,0,.05.31l.83.63a.24.24,0,0,0,.32-.05l.6-.78a.23.23,0,0,0,0-.32l-.85-.67A.22.22,0,0,0,181.84,54.92Z"/><path class="cls-7" d="M183.48,56.1l-.59.83a.23.23,0,0,0,.05.32l.83.63a.24.24,0,0,0,.32-.05l.6-.78a.23.23,0,0,0,0-.32l-.85-.68A.23.23,0,0,0,183.48,56.1Z"/><path class="cls-7" d="M185.19,57.17l-.74,1a.1.1,0,0,0,0,.14l1,.77a.12.12,0,0,0,.15,0l.75-1a.12.12,0,0,0,0-.15l-1-.83a.11.11,0,0,0-.16,0Z"/><path class="cls-7" d="M186.63,58.22l-.73,1a.11.11,0,0,0,0,.15l1,.76a.11.11,0,0,0,.15,0l.74-1a.1.1,0,0,0,0-.15l-1-.83a.1.1,0,0,0-.15,0Z"/><path class="cls-7" d="M188.27,59.38l-.74,1a.1.1,0,0,0,0,.14l1,.77a.12.12,0,0,0,.15,0l.74-1a.11.11,0,0,0,0-.15h0l-1-.83a.1.1,0,0,0-.15,0Z"/><path class="cls-7" d="M189.84,60.52l-.73,1a.1.1,0,0,0,0,.15l1,.76a.1.1,0,0,0,.15,0l.75-1a.12.12,0,0,0,0-.15L190,60.49a.11.11,0,0,0-.15,0Z"/><path class="cls-7" d="M192.54,60.09l-.74,1a.12.12,0,0,0,0,.15l1.05.76a.1.1,0,0,0,.15,0l.74-1a.1.1,0,0,0,0-.15l-1-.83a.11.11,0,0,0-.15,0A0,0,0,0,0,192.54,60.09Z"/><path class="cls-7" d="M194.11,61.22l-.74,1a.11.11,0,0,0,0,.15l1,.77a.12.12,0,0,0,.15,0l.74-1a.1.1,0,0,0,0-.15l-1-.83a.1.1,0,0,0-.15,0Z"/><path class="cls-7" d="M187.05,61.08l-.69,1a.14.14,0,0,0,0,.2h0l1,.72a.14.14,0,0,0,.2,0h0l.7-.91a.16.16,0,0,0,0-.21h0l-1-.78a.15.15,0,0,0-.21,0Z"/><path class="cls-7" d="M188.62,62.21l-.69,1a.15.15,0,0,0,0,.21h0l1,.72a.13.13,0,0,0,.2,0h0l.7-.92a.13.13,0,0,0,0-.2h0l-1-.78a.14.14,0,0,0-.2,0Z"/><path class="cls-7" d="M190.2,63.34l-.7,1a.16.16,0,0,0,0,.2l1,.72a.15.15,0,0,0,.21,0h0l.7-.92a.13.13,0,0,0,0-.2h0l-1-.78a.14.14,0,0,0-.2,0Z"/><path class="cls-7" d="M191.79,64.44l-.73,1a.11.11,0,0,0,0,.14l1,.77a.11.11,0,0,0,.14,0l.75-1a.11.11,0,0,0,0-.15l-1-.83a.11.11,0,0,0-.16,0Z"/><path class="cls-7" d="M175.33,50.28l-.62.89a.23.23,0,0,0,0,.32l2.45,1.75a.24.24,0,0,0,.32-.05l.67-.87a.25.25,0,0,0,0-.32h0l-2.49-1.77a.23.23,0,0,0-.32.05Z"/><path class="cls-7" d="M191.38,61.66l-.77,1.1a.11.11,0,0,0,0,.15l2.65,1.87a.09.09,0,0,0,.14,0l.82-1.06a.11.11,0,0,0,0-.15h0l-2.7-1.92a.1.1,0,0,0-.14,0Z"/><path class="cls-7" d="M180.67,56.49l-.74,1a.12.12,0,0,0,0,.15l5.74,4.23a.12.12,0,0,0,.15,0l.81-1.07a.11.11,0,0,0,0-.14h0l-5.8-4.18a.1.1,0,0,0-.15,0Z"/><path class="cls-3" d="M177.31,57.67l-3.25,4.49a.58.58,0,0,0,.13.81l8.37,6.19a.59.59,0,0,0,.82-.12h0l3.35-4.59a.59.59,0,0,0-.12-.82h0l-8.48-6.1A.57.57,0,0,0,177.31,57.67Z"/><path class="cls-10" d="M177.28,57.51,174,62a.6.6,0,0,0,.13.81l8.38,6.2a.59.59,0,0,0,.82-.13h0l3.35-4.59a.58.58,0,0,0-.13-.81h0l-8.48-6.1A.6.6,0,0,0,177.28,57.51Z"/><path class="cls-4" d="M177.7,36.69l.14,7L199,58.87l-.19-7a1.23,1.23,0,0,0-.49-.95L178.08,36.48a.25.25,0,0,0-.34.07A.33.33,0,0,0,177.7,36.69Z"/><rect class="cls-11" x="4.21" y="69.01" width="12.73" height="18.93" rx="0.61" transform="translate(-43.79 20.9) rotate(-35.68)"/><rect class="cls-3" x="1.87" y="71.72" width="10.56" height="3.72" rx="0.04" transform="translate(-41.57 17.98) rotate(-35.68)"/><rect class="cls-12" x="1.95" y="71.79" width="10.4" height="3.6" rx="0.7" transform="matrix(0.81, -0.58, 0.58, 0.81, -41.58, 17.99)"/><rect class="cls-3" x="5.64" y="78.38" width="2.1" height="2.33" rx="0.29" transform="translate(-45.14 18.83) rotate(-35.68)"/><rect class="cls-3" x="7.37" y="76.81" width="2.09" height="2.33" rx="0.29" transform="translate(-43.82 19.48) rotate(-35.6)"/><rect class="cls-3" x="9.81" y="75.39" width="2.1" height="2.33" rx="0.29" transform="translate(-42.61 20.7) rotate(-35.68)"/><rect class="cls-3" x="11.92" y="73.93" width="2.1" height="2.33" rx="0.33" transform="translate(-41.37 21.66) rotate(-35.68)"/><rect class="cls-3" x="7.13" y="80.47" width="2.1" height="2.33" rx="0.29" transform="translate(-46.08 20.1) rotate(-35.68)"/><rect class="cls-3" x="9.22" y="78.97" width="2.1" height="2.33" rx="0.29" transform="translate(-44.81 21.03) rotate(-35.68)"/><rect class="cls-3" x="11.3" y="77.47" width="2.1" height="2.33" rx="0.29" transform="translate(-43.55 21.97) rotate(-35.68)"/><rect class="cls-3" x="8.79" y="82.77" width="2.1" height="2.33" rx="0.29" transform="translate(-47.11 21.49) rotate(-35.68)"/><rect class="cls-3" x="10.87" y="81.27" width="2.1" height="2.33" rx="0.29" transform="translate(-45.85 22.43) rotate(-35.68)"/><rect class="cls-3" x="12.96" y="79.78" width="2.1" height="2.33" rx="0.29" transform="translate(-44.58 23.37) rotate(-35.68)"/><rect class="cls-3" x="14.61" y="82.08" width="2.1" height="2.33" rx="0.29" transform="translate(-45.61 24.76) rotate(-35.68)"/><rect class="cls-3" x="13.42" y="76.02" width="2.1" height="2.33" rx="0.19" transform="translate(-42.3 22.93) rotate(-35.68)"/><rect class="cls-3" x="10.2" y="84.32" width="4.67" height="2.33" rx="0.45" transform="translate(-47.51 23.36) rotate(-35.68)"/><rect class="cls-3" x="15.69" y="78.07" width="2.3" height="5.17" rx="0.43" transform="translate(-43.88 24.96) rotate(-35.68)"/><rect class="cls-4" x="10.88" y="72.05" width="0.92" height="0.1" transform="translate(-39.92 20.15) rotate(-35.68)"/><rect class="cls-4" x="9.78" y="72.83" width="0.92" height="0.1" transform="translate(-40.59 19.65) rotate(-35.68)"/><rect class="cls-4" x="8.69" y="73.62" width="0.92" height="0.1" transform="translate(-41.25 19.16) rotate(-35.68)"/><rect class="cls-4" x="7.6" y="74.4" width="0.92" height="0.1" transform="translate(-41.91 18.67) rotate(-35.68)"/><g class="cls-9"><path d="M132,14.71H119a.69.69,0,0,0-.68.68v8.24a.68.68,0,0,0,.68.68h10.22s.27,1.41-.6,1.56c0,0,2,.14,1.61-1.56H132a.67.67,0,0,0,.68-.68V15.39A.69.69,0,0,0,132,14.71Z"/><g class="cls-13"><rect x="120.19" y="16.9" width="10.55" height="0.64" rx="0.29"/><rect x="120.19" y="19.77" width="10.55" height="0.64" rx="0.29"/><rect x="120.19" y="21.21" width="8.85" height="0.64" rx="0.29"/><rect x="120.19" y="18.33" width="4.57" height="0.64" rx="0.29"/></g></g><path class="cls-5" d="M132.09,14.66h-13a.69.69,0,0,0-.69.68v8.23a.7.7,0,0,0,.68.69h10.23s.26,1.4-.61,1.55c0,0,1.95.14,1.61-1.55h1.81a.69.69,0,0,0,.68-.68V15.34A.69.69,0,0,0,132.09,14.66Z"/><g class="cls-13"><rect class="cls-4" x="120.3" y="16.84" width="10.55" height="0.64" rx="0.29"/><rect class="cls-4" x="120.3" y="19.71" width="10.55" height="0.64" rx="0.29"/><rect class="cls-4" x="120.3" y="21.15" width="8.85" height="0.64" rx="0.29"/><rect class="cls-4" x="120.3" y="18.28" width="4.57" height="0.64" rx="0.29"/></g><g class="cls-9"><path d="M144.55.68H128.89a.82.82,0,0,0-.82.83h0v9.89a.83.83,0,0,0,.82.82h12.29s.32,1.69-.73,1.87c0,0,2.34.17,1.93-1.87h2.17a.82.82,0,0,0,.82-.82V1.52a.82.82,0,0,0-.8-.84Z"/><g class="cls-13"><rect x="130.38" y="3.32" width="12.69" height="0.77" rx="0.35"/><rect x="130.38" y="6.77" width="10.47" height="0.77" rx="0.35"/><rect x="130.38" y="5.05" width="7.54" height="0.77" rx="0.35"/></g></g><path class="cls-5" d="M144.76.55H129.09a.82.82,0,0,0-.82.82v9.9a.83.83,0,0,0,.82.82h12.29s.32,1.69-.72,1.88c0,0,2.34.16,1.93-1.88h2.17a.82.82,0,0,0,.82-.82V1.37A.82.82,0,0,0,144.76.55Z"/><g class="cls-13"><rect class="cls-4" x="130.58" y="3.18" width="12.69" height="0.77" rx="0.35"/><rect class="cls-4" x="130.58" y="6.64" width="10.47" height="0.77" rx="0.35"/><rect class="cls-4" x="130.58" y="4.91" width="7.54" height="0.77" rx="0.35"/></g><path class="cls-14" d="M42.23,108.23,56.38,103a1.34,1.34,0,0,1,1.73.78h0a1.34,1.34,0,0,1-.79,1.73l-14.15,5.29-3-.31Z"/><path class="cls-15" d="M57.69,103.32h0a1.35,1.35,0,0,1-.79,1.73l-14.15,5.29-2.28-.23-.33.35,3,.3,14.15-5.28a1.35,1.35,0,0,0,.79-1.74h0a1.29,1.29,0,0,0-.55-.67A2,2,0,0,1,57.69,103.32Z"/><polygon class="cls-16" points="42.23 108.23 43.18 110.76 40.69 110.5 40.14 110.45 40.89 109.66 42.23 108.23"/><path class="cls-17" d="M40.89,109.66a1.07,1.07,0,0,1,.14.16.23.23,0,0,1,0,.25.71.71,0,0,1-.14.1.45.45,0,0,0-.2.34l-.55-.06Z"/><g class="cls-18"><rect class="cls-19" x="130.17" y="97.11" width="4.65" height="15.21" transform="translate(-21.94 36.38) rotate(-14.45)"/></g><rect class="cls-5" x="130.32" y="97.2" width="4.42" height="15.01" transform="translate(-21.94 36.39) rotate(-14.45)"/><rect class="cls-20" x="129.54" y="97.62" width="3.13" height="3.13" transform="translate(-20.6 35.86) rotate(-14.45)"/><rect class="cls-21" x="130.37" y="100.67" width="3.12" height="3.12" transform="translate(-21.52 36.58) rotate(-14.61)"/><rect class="cls-22" x="131.32" y="104.32" width="3.12" height="3.12" transform="translate(-22.41 36.94) rotate(-14.61)"/><g class="cls-18"><rect class="cls-23" x="128" y="98.32" width="4.64" height="15.13" transform="translate(-36.63 87.92) rotate(-32.95)"/></g><rect class="cls-5" x="128.15" y="98.4" width="4.41" height="14.93" transform="translate(-36.61 87.93) rotate(-32.95)"/><rect class="cls-24" x="125.72" y="99.55" width="3.12" height="3.12" transform="translate(-34.52 85.49) rotate(-32.95)"/><rect class="cls-25" x="127.77" y="102.71" width="3.12" height="3.12" transform="translate(-35.91 87.12) rotate(-32.95)"/><rect class="cls-26" x="129.82" y="105.88" width="3.12" height="3.12" transform="translate(-37.3 88.74) rotate(-32.95)"/><g class="cls-18"><rect class="cls-27" x="127.12" y="99.42" width="4.64" height="15.13" transform="translate(-37.83 121.85) rotate(-44.65)"/></g><rect class="cls-5" x="127.26" y="99.5" width="4.41" height="14.93" transform="translate(-37.81 121.86) rotate(-44.65)"/><rect class="cls-28" x="123.93" y="101.37" width="3.12" height="3.12" transform="translate(-36.12 117.9) rotate(-44.65)"/><rect class="cls-29" x="126.58" y="104.05" width="3.12" height="3.12" transform="translate(-37.24 120.53) rotate(-44.65)"/><rect class="cls-30" x="129.23" y="106.73" width="3.12" height="3.12" transform="translate(-38.36 123.17) rotate(-44.65)"/><g class="cls-18"><rect class="cls-31" x="126.71" y="100.45" width="4.64" height="15.13" transform="translate(-35.62 142.76) rotate(-51.85)"/></g><rect class="cls-32" x="126.84" y="100.52" width="4.41" height="14.93" transform="translate(-35.58 142.76) rotate(-51.85)"/><rect class="cls-4" x="123.04" y="102.92" width="3.12" height="3.12" transform="translate(-34.53 137.93) rotate(-51.85)"/><rect class="cls-33" x="126" y="105.25" width="3.12" height="3.12" transform="translate(-35.23 141.15) rotate(-51.85)"/><rect class="cls-6" x="128.97" y="107.58" width="3.12" height="3.12" transform="translate(-35.93 144.37) rotate(-51.85)"/><path class="cls-34" d="M172.09,117.63a3.22,3.22,0,1,0,1.57,4.28A3.22,3.22,0,0,0,172.09,117.63Zm-2.19,4.74a2,2,0,1,1,2.65-1h0a2,2,0,0,1-2.65,1Z"/><path class="cls-34" d="M168.11,109.37l-6,4.21a3,3,0,0,0-1.26,2.41c0,1.51.69,3.78,4,5.84a3,3,0,0,0,3.24-.06l5.84-3.9Z"/><path class="cls-34" d="M174.73,117.56c-1,.8-3.24-.37-5.09-2.61s-2.59-4.7-1.62-5.5,3.24.37,5.1,2.61c.11.15.23.29.34.43l.12.17a8.47,8.47,0,0,1,1.48,3l.06.29A1.67,1.67,0,0,1,174.73,117.56Z"/><ellipse class="cls-5" cx="171.37" cy="113.5" rx="1.83" ry="4.26" transform="matrix(0.77, -0.64, 0.64, 0.77, -33.01, 135.39)"/><path class="cls-3" d="M174.28,116.55l0,.07a1.17,1.17,0,0,1-.15.16c-.47.4-1.35.2-2.3-.42l-.09-.06a7.78,7.78,0,0,1-.89-.72,10.38,10.38,0,0,1-.85-.9,7.37,7.37,0,0,1-.49-.65,8.42,8.42,0,0,1-.6-1s0,0,0,0c-.63-1.23-.73-2.32-.19-2.76.77-.65,2.62.3,4.12,2.11a7.64,7.64,0,0,1,.5.66l.09.13C174.3,114.51,174.66,115.87,174.28,116.55Z"/><path class="cls-3" d="M175.06,115.67a1.29,1.29,0,0,1-.68.64l-.1,0-.21,0a1.84,1.84,0,0,1-.73-.09c-1-.31-1.44-.3-1.64-.21a6.76,6.76,0,0,1-.89-.71,10.51,10.51,0,0,1-.85-.91,6.14,6.14,0,0,1-.49-.65,8.42,8.42,0,0,1-.6-1c1,.4,2.94,1.1,3.59.8a2,2,0,0,0,.75-.73h0l.07-.1,0,0c0-.09.11-.17.15-.26A8.48,8.48,0,0,1,175.06,115.67Z"/><path class="cls-3" d="M175.12,116a1.37,1.37,0,0,1-.84.79l-.21,0h0a1.83,1.83,0,0,1-.73-.08,4,4,0,0,0-1.41-.27.59.59,0,0,0-.23,0,7.7,7.7,0,0,1-.89-.71,12.2,12.2,0,0,1-.85-.91,7.37,7.37,0,0,1-.49-.65,8.42,8.42,0,0,1-.6-1l.14,0c1,.41,2.83,1,3.45.75a2,2,0,0,0,.75-.73l.07-.1,0,0,0-.06a3.62,3.62,0,0,0,.24-.43,8.64,8.64,0,0,1,1.48,3Z"/><path class="cls-35" d="M177.5,109.44a3.08,3.08,0,0,1-.77.44,2.49,2.49,0,0,0-1.49,2.84v.06c.34,1.43.2,3.43-1,3.77l-.21,0a1.84,1.84,0,0,1-.73-.09c-1-.31-1.44-.3-1.64-.21a6.76,6.76,0,0,1-.89-.71,10.38,10.38,0,0,1-.85-.9,7.5,7.5,0,0,1-.49-.66,7,7,0,0,1-.6-1c1,.4,2.94,1.1,3.59.8a2,2,0,0,0,.75-.73l.07-.1,0,0a5,5,0,0,0,.75-2.34c.08-1.13.57-3.08,3.16-2.47a.73.73,0,0,1,.55.88A.78.78,0,0,1,177.5,109.44Z"/><path class="cls-4" d="M147.35,163.88s-8.82-.53-7.78,5.65a1.5,1.5,0,0,0,.79,1.58s0-.45.9-.3a4.42,4.42,0,0,0,1,.05,2,2,0,0,0,1.17-.49h0s2.48-1,3.45-5.07c0,0,.71-.89.68-1.11l-1.49.63a2.68,2.68,0,0,1,.11,2s0-1.93-.33-1.88c-.06,0-.78.37-.78.37a4.37,4.37,0,0,1,.21,3.23s.25-2.29-.49-3.09l-1,.61a4.64,4.64,0,0,1,.33,3.51s.18-2.42-.55-3.36l-1,.74s1,1.9.37,3.21c0,0-.07-2.81-.58-3a5.19,5.19,0,0,0-1,1.05s.66,1.38.25,2.11c0,0-.25-1.88-.46-1.88a6.21,6.21,0,0,0-.91,2.09,4.49,4.49,0,0,1,.71-2.22,2.48,2.48,0,0,0-1.27.66s.13-.88,1.47-1a6,6,0,0,1,.87-1,5.42,5.42,0,0,0-2.14.25,2.4,2.4,0,0,1,2.39-.45l.93-.77a7.63,7.63,0,0,0-2.5,0,3.08,3.08,0,0,1,2.76-.21l1-.61a9.51,9.51,0,0,0-2.39-.21,3.66,3.66,0,0,1,2.69,0l.73-.32s-1.1-.21-1.42-.25-.34-.13-.34-.13a3.92,3.92,0,0,1,2.06.23A8.9,8.9,0,0,0,147.35,163.88Z"/><ellipse class="cls-1" cx="141.28" cy="171.65" rx="6.24" ry="1.06"/><path class="cls-4" d="M164.27,147.59s-5-.3-4.38,3.19a.85.85,0,0,0,.44.89s0-.25.51-.17a2.45,2.45,0,0,0,.54,0,1.07,1.07,0,0,0,.66-.28h0a3.91,3.91,0,0,0,1.94-2.86s.41-.49.39-.62l-.83.36a1.52,1.52,0,0,1,.06,1.1s0-1.08-.19-1.06a4.59,4.59,0,0,0-.44.21,2.44,2.44,0,0,1,.12,1.82s.14-1.3-.27-1.74l-.59.34a2.6,2.6,0,0,1,.18,2,3.7,3.7,0,0,0-.31-1.89l-.53.42a2.53,2.53,0,0,1,.21,1.8s0-1.58-.33-1.7a3.71,3.71,0,0,0-.54.58s.37.78.14,1.19c0,0-.14-1.06-.26-1.06a3.57,3.57,0,0,0-.51,1.18,2.5,2.5,0,0,1,.4-1.25,1.36,1.36,0,0,0-.71.37s.07-.5.83-.54a3.31,3.31,0,0,1,.49-.56,2.93,2.93,0,0,0-1.21.14,1.36,1.36,0,0,1,1.35-.26l.53-.43a4.37,4.37,0,0,0-1.42,0,1.74,1.74,0,0,1,1.56-.11l.57-.34a5.07,5.07,0,0,0-1.35-.12,2,2,0,0,1,1.52,0l.42-.19-.8-.14c-.18,0-.19-.07-.19-.07a2.1,2.1,0,0,1,1.16.13A4.47,4.47,0,0,0,164.27,147.59Z"/><ellipse class="cls-1" cx="160.85" cy="151.98" rx="3.52" ry="0.59"/><path class="cls-4" d="M134.92,150.62s-6-.37-5.29,3.84a1,1,0,0,0,.53,1.08s0-.31.63-.21a2.35,2.35,0,0,0,.65,0,1.35,1.35,0,0,0,.8-.33h0s1.69-.69,2.34-3.45c0,0,.49-.6.47-.76l-1,.43a1.83,1.83,0,0,1,.08,1.34s0-1.31-.23-1.28c0,0-.53.26-.53.26a3,3,0,0,1,.15,2.19s.17-1.56-.33-2.1l-.72.41a3.16,3.16,0,0,1,.23,2.39,4.47,4.47,0,0,0-.38-2.29l-.64.5a3.09,3.09,0,0,1,.25,2.19s0-1.92-.39-2.06a3.53,3.53,0,0,0-.65.7s.45.94.17,1.44c0,0-.17-1.28-.31-1.28a4.08,4.08,0,0,0-.63,1.42,3.14,3.14,0,0,1,.49-1.51,1.78,1.78,0,0,0-.87.45s.09-.6,1-.65a3.73,3.73,0,0,1,.59-.68,3.6,3.6,0,0,0-1.46.17,1.61,1.61,0,0,1,1.62-.31l.64-.52a5.3,5.3,0,0,0-1.7,0,2.06,2.06,0,0,1,1.87-.14l.7-.42a7.38,7.38,0,0,0-1.63-.14,2.53,2.53,0,0,1,1.83,0l.5-.22s-.75-.15-1-.17-.23-.08-.23-.08a2.61,2.61,0,0,1,1.41.15A6.54,6.54,0,0,0,134.92,150.62Z"/><ellipse class="cls-1" cx="130.79" cy="155.91" rx="4.25" ry="0.72"/><path class="cls-36" d="M122.38,61.87s.33-1-.13-1.48l-.94-1-4.8-7s-1.17-1.38-1-2.2-1.1-1.7-1.1-1.7.7-.87.29-1.39a5.76,5.76,0,0,1-1.07-1.61c0-.28-2.5-4-5.75-4.86l.1-.07a3.39,3.39,0,0,0-.57-.1A16.11,16.11,0,0,1,102,39.2l-.11.12-.28-.12c-.57-.24-1.21-.54-2-.91S98,37.5,97,37a7,7,0,0,1-1.25-2.31,3,3,0,0,1-.09-.32,7.14,7.14,0,0,0,3.63-6.18,7,7,0,0,0-1-3.54l-.12-.2,0-.05.12-.18c.06-.13.12-.26.17-.39s.05-.14.07-.21c.09-.28.19-.55.28-.82L99.2,22a5.47,5.47,0,0,0,.35-1.54,2.1,2.1,0,0,0-.08-.66,1.69,1.69,0,0,0-.13-.31l-.09-.14c-.48-.67-1.5-1-1.72-1.74a1.64,1.64,0,0,1,0-.38V16.6a.88.88,0,0,0,0-.16,1.06,1.06,0,0,0,0-.19,0,0,0,0,0,0,0,1.22,1.22,0,0,0-.07-.17h0l-.1-.17v0a2.81,2.81,0,0,0-1.44-.92,5.72,5.72,0,0,0-3.89.25,1.27,1.27,0,0,1-.54.17c-.31,0-.55-.26-.82-.41-.86-.48-1.93,0-2.76.57a4.21,4.21,0,0,0-1.1.92c-.27.36-.42.79-.67,1.16-.79,1.18-2.38,1.56-3.52,2.42A5.73,5.73,0,0,0,80.39,24a11,11,0,0,0,.59,4.5,3.41,3.41,0,0,0,.18.48,15.32,15.32,0,0,0,.77,5c.2.72-2.33,3-2.33,3l-7.8,6.75s0-.19-1-.12-2.87,2.33-2.87,2.33l.15,0-.15.17.4,0c-1.21,1-2.63,2.29-3.37,3-.21.2-.38.37-.5.5-1,1.13-.36,4.25-.36,4.25s-.16,1.92,2.86,2.17c0,0,3.51.7,5.23,0a20.53,20.53,0,0,1,5-.86s-1.34,4.49-1.25,5.81a43.94,43.94,0,0,1-.9,6l-3,15.7s-2.8,5.46,5.63,6.26v.26l.54.06c0,.18,0,.37,0,.56-.11,1.38-.22,3-.17,3.22a1.49,1.49,0,0,0,.52.59l.33,2.78a19.55,19.55,0,0,0,.63,3.08,9.35,9.35,0,0,1,.91,3.15,9.09,9.09,0,0,0,.48,2.58s.29,1.92.39,2.39,0,5.17,0,5.17a9.36,9.36,0,0,0,1.92.69l.06.23c.3,1.25.73,3,1,3.89.39,1.51,1.23,4.15,1.23,4.15s.1,3.44.68,4.1S86.55,133.08,89,137a81.21,81.21,0,0,1,5,11.06c0,1.27-.1,2.66-.19,3.85a2.72,2.72,0,0,0-.67,1.22A14.1,14.1,0,0,1,91.07,157a12.91,12.91,0,0,1-2.63,1.76,1.53,1.53,0,0,0-.4.21c-.8.57-1.74,2.07.17,2.66a6.92,6.92,0,0,0,2.9,0,5.8,5.8,0,0,0,0,.59s-1,2.39-1.4,3.31c-.15.33-.5.81-.8,1.32-.54.89-1,1.86,0,2.27.29.12,5.32-.1,7,.44s2.89-1.23,2.89-1.23a9.3,9.3,0,0,1,.52-2.55,4,4,0,0,0-.11-2.12h0c-.14-.56-.28-1-.28-1a29.06,29.06,0,0,1-.42-4.55l2.49-1.81a2.26,2.26,0,0,0,.87-2.35l-.09-.33a18.88,18.88,0,0,0-1.63-4.59,4.25,4.25,0,0,1,.42-1.07c.78-1.13,2.21-8.15,2.57-9.22a11,11,0,0,0,.25-1.14c.45-2.21,1.13-7.59,0-10.08l-.57-6.08a38.09,38.09,0,0,1,0-6.45,32.14,32.14,0,0,0,.37-3.51v-.08l3.36.16V95.87l.3-5.52,0-.56h0a3.81,3.81,0,0,0,.45.13,2.74,2.74,0,0,0,.77-2.42,9.8,9.8,0,0,0-.11-1.62A4.07,4.07,0,0,0,109.16,84l7-6.37,0-.06c.16-.32,1-1.93,1.26-2.78s.1-5,0-6.4l1.55.11a6.28,6.28,0,0,0,1.78-.06c.59-.25,1.33-2,1.92-3.08S122.38,61.87,122.38,61.87ZM85.53,37.19s.17-1.57.19-3.5l1-.35a6.4,6.4,0,0,0,.49.42c0,.14.06.29.08.44a10.24,10.24,0,0,1,0,3.82,5.22,5.22,0,0,0-1.77,2,1.47,1.47,0,0,1-1.2.85,3.73,3.73,0,0,1-.82.07l-1.28.21Zm7,75.18c0-.11-.08-.22-.12-.31l.09-.06v-.72h0c0,.28,0,.66,0,1.09Z"/><path class="cls-37" d="M104.12,42.77s-3.52,4.5-6.33,8C96,53.09,94.45,55,94.33,55A1.93,1.93,0,0,1,94,55c-1.42-.13-6.81-.88-9.26-1.23l-1.22-.17s.07-2.12.4-4.69c.39-3.08,1.13-6.81,2.52-8.3a4.32,4.32,0,0,0,.89-1.52,9.84,9.84,0,0,0,.22-4.44,16.68,16.68,0,0,0-.64-2.71s8.94-5.27,8.47-.47a9.07,9.07,0,0,0,.33,3.66,6.25,6.25,0,0,0,2,3.13l0,0Z"/><path class="cls-3" d="M95.7,35.14a7.16,7.16,0,0,1-8.15-.49,17.8,17.8,0,0,0-.64-2.71s8.94-5.27,8.47-.47A8.94,8.94,0,0,0,95.7,35.14Z"/><path class="cls-37" d="M99.12,28.65a7.17,7.17,0,1,1-.94-3.52A7.27,7.27,0,0,1,99.12,28.65Z"/><path class="cls-3" d="M98.18,25.13a.57.57,0,0,1-.08.13,2.4,2.4,0,0,1-2.17.68,2.77,2.77,0,0,1-2.38-1.27c-.37-.78-.27-1.62-1.28-1.74s-2.06-.72-2.92-.36a2.06,2.06,0,0,0-1,1.83A5.59,5.59,0,0,1,88,26.57c-.32.62-.95,1-1.28,1.64a3.9,3.9,0,0,0-.19,2.3,4.14,4.14,0,0,1-.15,2.32,1.62,1.62,0,0,1-.1.18,7.16,7.16,0,0,1,11.39-8.67A7.67,7.67,0,0,1,98.18,25.13Z"/><path class="cls-38" d="M93.56,24.3a2.76,2.76,0,0,0,2.37,1.26,2.39,2.39,0,0,0,2.18-.68,2.84,2.84,0,0,0,.35-.77L99,22.48a3.06,3.06,0,0,0,0-2.64c-.46-.67-1.45-.95-1.66-1.74a8.4,8.4,0,0,1,0-1.13,2.15,2.15,0,0,0-1.63-1.5,5.36,5.36,0,0,0-3.76.25,1.1,1.1,0,0,1-.53.16c-.29,0-.52-.25-.78-.4-.84-.48-1.88,0-2.67.57a3.75,3.75,0,0,0-1.06.92c-.27.35-.42.78-.66,1.15-.76,1.18-2.29,1.56-3.4,2.42a5.74,5.74,0,0,0-2,3.93A11.27,11.27,0,0,0,81.4,29a3,3,0,0,0,.34.81c.45.69,1.35,1,1.79,1.67s.38,1.34.92,1.73a1.4,1.4,0,0,0,1.93-.72,4.15,4.15,0,0,0,.15-2.32,3.9,3.9,0,0,1,.19-2.3c.33-.62,1-1,1.28-1.64A5.59,5.59,0,0,0,88.35,24a2.06,2.06,0,0,1,1-1.83c.85-.36,2,.26,2.92.36S93.19,23.51,93.56,24.3Z"/><g class="cls-9"><path d="M83.15,30.5c-.44-.69-1.33-1-1.79-1.67h0s0,.09,0,.14a3.09,3.09,0,0,0,.34.82c.45.68,1.35,1,1.79,1.66l.07.13A7.19,7.19,0,0,0,83.15,30.5Z"/><path d="M97,17.16a1.28,1.28,0,0,0,.34.56c0-.24,0-.49,0-.74a1.47,1.47,0,0,0-.36-.74A4,4,0,0,0,97,17.16Z"/><path d="M91.9,21.61c-.88-.1-2.06-.71-2.92-.36a2.06,2.06,0,0,0-1,1.84,5.39,5.39,0,0,1-.35,2.16c-.32.62-1,1-1.28,1.64a3.85,3.85,0,0,0-.19,2.31A4.11,4.11,0,0,1,86,31.51a1.41,1.41,0,0,1-1.93.72,1.36,1.36,0,0,1-.38-.45c.21.5.32,1.08.76,1.39a1.4,1.4,0,0,0,1.93-.72,4.2,4.2,0,0,0,.15-2.31,3.85,3.85,0,0,1,.19-2.31c.33-.61,1-1,1.28-1.64A5.57,5.57,0,0,0,88.34,24a2.07,2.07,0,0,1,1-1.84c.85-.35,2,.26,2.92.36a1,1,0,0,1,.74.39C92.81,22.3,92.74,21.71,91.9,21.61Z"/><path d="M99.05,19.84a.64.64,0,0,0-.1-.13,4.68,4.68,0,0,1-.32,1.83l-.55,1.63a2.55,2.55,0,0,1-.35.77,2.38,2.38,0,0,1-2.18.68,2.94,2.94,0,0,1-2.25-1.06,5,5,0,0,0,.26.74,2.76,2.76,0,0,0,2.37,1.26,2.39,2.39,0,0,0,2.18-.68,2.84,2.84,0,0,0,.35-.77L99,22.48A3.06,3.06,0,0,0,99.05,19.84Z"/></g><rect class="cls-7" x="82.54" y="24.26" width="4.71" height="9.96" rx="0.97" transform="translate(-4.9 28.87) rotate(-18.77)"/><rect class="cls-8" x="82.37" y="24.26" width="4.71" height="9.96" rx="0.97" transform="translate(-4.9 28.82) rotate(-18.77)"/><circle class="cls-10" cx="83.98" cy="27.31" r="0.74"/><path class="cls-37" d="M83.48,112.75s.91,3.83,1.28,5.34,1.2,4.14,1.2,4.14.09,3.42.65,4.08.44,7.12,2.83,11.07S95,150.22,95,150.22l.42,3,4-4.67-3.34-17.11s-2-6.93-1.35-9.1-2.48-10.57-2.48-10.57Z"/><path class="cls-39" d="M99.39,148.56l-4,4.67-.42-3s-3.13-8.88-5.52-12.84S87.17,127,86.6,126.31s-.65-4.08-.65-4.08-.82-2.64-1.2-4.14l-.94-3.88c-.2-.83-.34-1.46-.34-1.46l8.76-1,.25.71c.72,2.08,2.71,8.08,2.23,9.86-.6,2.17,1.35,9.1,1.35,9.1Z"/><path class="cls-40" d="M100.73,156.37,97.22,159c-1.7,1.83-6.67,3.33-8.85,2.64-1.84-.59-.93-2.08-.16-2.65a1.41,1.41,0,0,1,.38-.21A12.55,12.55,0,0,0,91.13,157a13.84,13.84,0,0,0,2-3.8c.28-1.41,2.3-2.57,2.3-2.57s2.69-2.64,3.92-2.1c.8.35,1.62,3.2,2.1,5.14l.08.33A2.25,2.25,0,0,1,100.73,156.37Z"/><path class="cls-3" d="M100.73,156.37,97.22,159c-1.7,1.83-6.67,3.33-8.85,2.64-1.84-.59-.93-2.08-.16-2.65.75,1.17,3.49,1,3.49,1l4.86-2.17,4.93-4.08.08.33A2.27,2.27,0,0,1,100.73,156.37Z"/><path class="cls-39" d="M95.24,150s-3.13-8.88-5.53-12.83-2.26-10.42-2.82-11.08-.66-4.08-.66-4.08-.82-2.63-1.19-4.14c-.23-.9-.64-2.63-.94-3.88-.21-.83-.35-1.46-.35-1.46l8.21-.91,0-.06-8.76,1s.14.63.35,1.46c.29,1.26.71,3,.93,3.88.38,1.51,1.2,4.14,1.2,4.14s.09,3.42.65,4.08.44,7.13,2.83,11.08S94.66,150,94.66,150l.42,3,.49-.57Z"/><rect class="cls-41" x="106.2" y="56.5" width="9.79" height="11.31"/><path class="cls-41" d="M116.69,75.09c-.29.84-1.07,2.45-1.22,2.76l0,.06-7,6.55-.17.16,0-.14c-.37-1.26-3-10.13-3.33-10.62a7.11,7.11,0,0,1-.06-2.73c0-.28.06-.46.06-.46l-.21-6.15,1-2,9.67,3.06,1.35,2.66S117,74.14,116.69,75.09Z"/><path class="cls-42" d="M115.47,77.85l0,.06-7,6.55-.21,0-2.41.14-1.74-14.15.76.66c1.39,1.14,4.38,3.4,6.68,3.7A5.47,5.47,0,0,1,115.47,77.85Z"/><path class="cls-3" d="M115.47,77.85l0,.06-7,6.55-.21,0-2.41.14-1.74-14.15.76.66c1.39,1.14,4.38,3.4,6.68,3.7A5.47,5.47,0,0,1,115.47,77.85Z"/><path class="cls-3" d="M116.2,74.29a4.48,4.48,0,0,1-2.09-.72,17.54,17.54,0,0,0-2.23-1.49l2.28,2.51S115.89,75.16,116.2,74.29Z"/><path class="cls-3" d="M110.5,75.89s.14,2.56,1.7,2.59S110.5,75.89,110.5,75.89Z"/><path class="cls-3" d="M112.1,75.89s1.18,2.14,1.74,1.86S112.1,75.89,112.1,75.89Z"/><path class="cls-43" d="M79.33,55l-1.64.6a19.39,19.39,0,0,0-4.82.87c-1.66.69-5.05,0-5.05,0s5.9-7.69,6-7.72l6.25-2.29Z"/><path class="cls-44" d="M79.33,55l-1.64.6a19.39,19.39,0,0,0-4.82.87c-1.66.69-5.05,0-5.05,0s5.9-7.69,6-7.72l6.25-2.29Z"/><path class="cls-37" d="M102.81,138.86c-.35,1.07-1.73,8.07-2.48,9.19s-1.63,7.63-1.63,7.63l-.17.12-.37.25s-5.4-.25-4.77-1.22a2.6,2.6,0,0,0,.23-.91c.42-2.64.46-9.66.46-9.66l.06-11.14s1.42-3.6.44-6.25A13.6,13.6,0,0,1,93.7,122s.16-2.58-.53-3.61c-.56-.83-.67-5.27-.69-6.91v-.6l.88-1.31,9.59.66s0,.77-.08,1.78a31.25,31.25,0,0,1-.35,3.49,39,39,0,0,0,0,6.43l.54,6C104.28,130.89,103.15,137.79,102.81,138.86Z"/><path class="cls-39" d="M92.48,112.5v.07a11.29,11.29,0,0,1-8.66,1.64c-.2-.83-.34-1.46-.34-1.46l8.76-1Z"/><path class="cls-45" d="M106.6,88.18l-.12,2.44-.28,5.5L92.48,98.35v13.84a10.92,10.92,0,0,1-10.84.87s.09-4.67,0-5.14-.38-2.39-.38-2.39a9.44,9.44,0,0,1-.47-2.57,9.56,9.56,0,0,0-.88-3.13,22,22,0,0,1-.6-3.07L79,94a1.46,1.46,0,0,1-.5-.6c0-.18.06-1.83.16-3.2.08-1,.16-1.88.16-1.88l12.8-2.41Z"/><path class="cls-39" d="M92.07,100v10.85a1.58,1.58,0,0,1-.65-1.44c-.06-1.44-.17-4.86-.38-6.4a5.93,5.93,0,0,1,.78-3.2Z"/><path class="cls-3" d="M84.23,95.62a3.57,3.57,0,0,0,2.67,1.79C88.94,97.78,84.23,95.62,84.23,95.62Z"/><path class="cls-3" d="M82.25,98.44s4.33.73,5.37.69"/><path class="cls-3" d="M83.57,101.61a11.64,11.64,0,0,0,3.84-.59"/><path class="cls-3" d="M83.07,109s6.27-2.4,7-3.65"/><path class="cls-3" d="M84.54,112.06c.21,0,5.74-3.36,6.22-4.24"/><path class="cls-3" d="M103,110.2s0,.78-.08,1.78l-10.39-.52h0v-.61l.87-1.31Z"/><path class="cls-3" d="M94.47,97.78s5.29-1.3,6.4-.46S94.47,97.78,94.47,97.78Z"/><path class="cls-3" d="M89.19,88.53s1.06,10,1.94,10.64,4.62-10.64,4.62-10.64Z"/><path class="cls-45" d="M89.38,88.15s1.06,10,1.94,10.64,4.61-10.64,4.61-10.64Z"/><path class="cls-3" d="M106.6,88.18l-.12,2.44a9,9,0,0,1-2.7-1.56l-.13-.1a3.75,3.75,0,0,0-3.39-.16,6,6,0,0,0-.94.42s-13.87.47-13.87.09-2,.15-3.28.51a9.71,9.71,0,0,0-1,.34h0a6.76,6.76,0,0,1-2.43,0h0c.08-1,.16-1.87.16-1.87l12.8-2.42Z"/><path class="cls-3" d="M107,89.81a3.17,3.17,0,0,1-.44-.12,9,9,0,0,1-2.73-1.57l-.13-.1a3.72,3.72,0,0,0-3.39-.16,5.63,5.63,0,0,0-.94.42s-13.87.47-13.87.09-2,.15-3.28.51c-.36.09-.7.21-1,.33h0a6.74,6.74,0,0,1-2.43,0l-.51-.07v-.1l.68-17.41,2-15.5.72-6.49,2.35-1.15,2.36-1.15a5.76,5.76,0,0,0,.9,1,5.28,5.28,0,0,0,6.65.61,11.27,11.27,0,0,0,1-.67c1.07-.82,2.07.1,3,2.1,3.59,7.79,5.93,31.82,5.93,31.82l3.55,2.29s.12.46.24,1.1C107.74,87,108,89.16,107,89.81Z"/><path class="cls-32" d="M107,90.19a2.23,2.23,0,0,1-.44-.13,8.75,8.75,0,0,1-2.73-1.57l-.13-.1a3.78,3.78,0,0,0-3.39-.16,7.92,7.92,0,0,0-.94.42s-13.86.48-13.86.1-2,.14-3.28.51a9.15,9.15,0,0,0-1.05.33h0a6.74,6.74,0,0,1-2.43,0l-.52-.07v-.11l.69-17.4,2-15.5.72-6.5,2.35-1.14,2.36-1.15a5.7,5.7,0,0,0,.9,1,5.26,5.26,0,0,0,6.65.61,8.08,8.08,0,0,0,1-.67c1.07-.82,2.06.11,3,2.11,3.59,7.78,5.93,31.81,5.93,31.81l3.55,2.3s.12.45.24,1.09C107.74,87.36,108,89.53,107,90.19Z"/><path class="cls-3" d="M107.5,86a8.23,8.23,0,0,1-3.85,2.39,16.4,16.4,0,0,1-3.17.74l-.21-.9c-.51-2-1.8-7.09-2.54-9a21.69,21.69,0,0,1-1.2-5.14,26.81,26.81,0,0,0-1.39-7.41C94.53,65,94.19,59.94,94,55c-.08-2-.13-3.89-.17-5.62-.08-3.56-.09-6.22-.09-6.22l1.13-1.79a3.78,3.78,0,0,1,.51-2.3,6.39,6.39,0,0,1,1.15-1.44l1.24.66,6.36,4.49s-3.52,4.49-6.34,8c3.59,7.79,5.93,31.82,5.93,31.82l3.55,2.3S107.38,85.38,107.5,86Z"/><path class="cls-43" d="M106.57,74.06c-.19,3.64,2.13,9.73,2.13,9.73-.37,4.33-7.84,5.15-7.84,5.15S99,81.47,98.1,79.08a21.54,21.54,0,0,1-1.19-5.15,27.06,27.06,0,0,0-1.4-7.4C94.18,62.64,94.11,43,94.11,43l1.13-1.79a3.73,3.73,0,0,1,.51-2.29,6,6,0,0,1,1.16-1.45c1,.52,1.77,1,2.48,1.31s1.35.66,1.91.91a15.31,15.31,0,0,0,5.29,1.24,4.85,4.85,0,0,1,.55.09c3.28.75,5.83,4.65,5.83,4.92a6,6,0,0,0,1,1.6c.4.51-.29,1.39-.29,1.39s1.25.88,1.07,1.69.94,2.2.94,2.2l-7,5.33S106.76,70.42,106.57,74.06Z"/><circle class="cls-46" cx="95.21" cy="46.47" r="0.39"/><circle class="cls-46" cx="95.21" cy="51.65" r="0.39"/><circle class="cls-46" cx="96.57" cy="63.97" r="0.39"/><circle class="cls-46" cx="97.56" cy="70.28" r="0.39"/><circle class="cls-46" cx="98.52" cy="76.94" r="0.39"/><circle class="cls-46" cx="95.98" cy="57.71" r="0.39"/><path class="cls-3" d="M99.39,39.12a8.77,8.77,0,0,1-2,1.67c-.36,0-1.21-1-1.67-1.54a5.74,5.74,0,0,1,1.15-1.44C97.87,38.33,98.68,38.76,99.39,39.12Z"/><path class="cls-43" d="M99.39,38.74a8.9,8.9,0,0,1-2,1.68c-.36,0-1.21-1-1.67-1.54a5.93,5.93,0,0,1,1.15-1.44C97.87,38,98.68,38.38,99.39,38.74Z"/><path class="cls-3" d="M89,44.85s-1,2.26-1.86,3.91a7.08,7.08,0,0,1-1,1.48,10.43,10.43,0,0,0-1.45,3.53c-.38,1.39-.62,2.62-.62,2.62-.54.82-.54,11-.54,11,.92,3.9-.75,14.94-.75,14.94l-.49,5.36-.15,1.62,0,.3-1,0h0a21.66,21.66,0,0,1-2.42-.08l-.53-.06.69-17.4,2-15.5.73-6.5,2.34-1.14c.39-3.08,1.13-6.81,2.52-8.3a4.32,4.32,0,0,0,.89-1.52,5.68,5.68,0,0,1,.56-.44l.53,1c.3.6.66,1.3.83,1.67C89.59,42,89,44.85,89,44.85Z"/><path class="cls-43" d="M88.65,44.66S86.83,49,85.8,50.05s-2.07,6.15-2.07,6.15c-.54.82-.54,11-.54,11,.91,3.89-.75,14.93-.75,14.93l-.67,7.28c-12.45.58-9-6.3-9-6.3l2.89-15.65a42.92,42.92,0,0,0,.87-6c-.1-1.32,1.19-5.79,1.19-5.79s-2.28-11.86-2-12.4,8.19-1.88,8.19-1.88a3,3,0,0,0,.79-.07,1.39,1.39,0,0,0,1.16-.85,5.09,5.09,0,0,1,1.71-2l.53,1,.85,1.67C89.21,41.83,88.65,44.66,88.65,44.66Z"/><path class="cls-3" d="M88,39.86C86.79,41,85.47,45,85.47,45l-.83-3.32a1.41,1.41,0,0,0,1.15-.85,5.17,5.17,0,0,1,1.72-2Z"/><path class="cls-43" d="M88,39.48c-1.24,1.12-2.56,5.12-2.56,5.12l-.83-3.32a1.42,1.42,0,0,0,1.15-.86,5.17,5.17,0,0,1,1.72-2Z"/><path class="cls-3" d="M73.41,83.63s.17,1.91,4.07.73S73.41,83.63,73.41,83.63Z"/><path class="cls-43" d="M121.79,65.68c-.56,1.07-1.29,2.83-1.85,3.08a6,6,0,0,1-1.72,0c-1.18-.06-2.49-.21-2.49-.21s3-6.41-1.07-8H111l-2.33-2.42,6.12-5.87.91.54,4.65,6.92.91,1c.44.51.12,1.48.12,1.48S122.36,64.62,121.79,65.68Z"/><path class="cls-3" d="M99.75,58.78s1.76-13.83,7-17.61a5.25,5.25,0,0,0-.55-.09,15.2,15.2,0,0,1-5.3-1.25A13.75,13.75,0,0,0,97.2,50.05c.38,7.06,0,8.71,0,8.71h.62c1.12,2.27,5.89,11.72,8.53,13.7l.29-2.4s-6.87-7.93-7.47-11.3Z"/><path class="cls-3" d="M100.5,58.59s1.76-13.83,7-17.6a3.33,3.33,0,0,0-.55-.1,15.42,15.42,0,0,1-5.3-1.24A13.75,13.75,0,0,0,98,49.87c.38,7.06,0,8.71,0,8.71h.62c1.13,2.28,5.89,11.72,8.54,13.7l.28-2.4s-6.87-7.92-7.46-11.3Z"/><path class="cls-47" d="M98,58.1s5.76,11.93,8.77,14.18l.28-2.4s-8.08-9.32-7.47-12Z"/><path class="cls-47" d="M107.15,41c-5.26,3.77-7,17.6-7,17.6H97.57s.39-1.65,0-8.71a13.76,13.76,0,0,1,3.73-10.22,15.31,15.31,0,0,0,5.29,1.24A5,5,0,0,1,107.15,41Z"/><polygon class="cls-3" points="104.22 72.08 104.06 81.68 105.68 82.5 104.22 72.08"/><path class="cls-3" d="M107.8,51.81c1.08-.26,3.85-1.18,4-2.08S107.8,51.81,107.8,51.81Z"/><path class="cls-3" d="M108,53.62a24.73,24.73,0,0,0,4-2C112.48,51.08,107.44,52.5,108,53.62Z"/><path class="cls-3" d="M83.85,43.59s-1.5,3-.59,3.27S83.85,43.59,83.85,43.59Z"/><path class="cls-3" d="M95.34,75.89s-12,7.11-9.51,7.52S95.34,75.89,95.34,75.89Z"/><path class="cls-3" d="M102.57,90.94s3.16.6,3,1.57"/><path class="cls-37" d="M117.42,63.19l-.14,3.66s-.89,1.55-1.55,1.75a.86.86,0,0,1-.23,0h0c-1.28-.07-6.11-1.48-6.54-2.29s-7.6-4-7.6-4-6-9.11-1.51-11.33,4.28,8.59,4.28,8.59a33.39,33.39,0,0,1,4.59.95c.44.28,4.44.08,5.63,0h.31l1.28.24Z"/><path class="cls-3" d="M117.42,63.19l-.14,3.66s-.89,1.55-1.55,1.75a.86.86,0,0,1-.23,0h0l-.13,0s2.92-6.36-1-8h.32l1.28.24Z"/><path class="cls-3" d="M118.4,68.81c-1.17-.06-2.48-.21-2.48-.21s3-6.41-1.06-8h0l3.14-.31C121.94,62.85,119.21,67.58,118.4,68.81Z"/><path class="cls-43" d="M118.21,68.81c-1.17-.06-2.48-.21-2.48-.21s3-6.41-1.07-8h0l3.16-.3C121.76,62.85,119,67.58,118.21,68.81Z"/><path class="cls-37" d="M71,45.53l9.1-8.09s2.44-2.29,2.26-3S80.09,27.34,83.51,27,85.8,37.63,85.8,37.63L76,49.61Z"/><path class="cls-3" d="M65.25,54.13s-.66-3.1.34-4.23,5.55-5.09,5.55-5.09,2.29,3.55,6.34,3l-4.54,6.07s-2,2.64-4.92,2.39S65.25,54.13,65.25,54.13Z"/><path class="cls-43" d="M65.06,54.32s-.66-3.1.34-4.23S71,45,71,45s3.89,3.92,6.12,4.4l-4.34,4.7s-2,2.64-4.92,2.39S65.06,54.32,65.06,54.32Z"/><path class="cls-3" d="M72.81,46.9l-4.06-.36s1.81-2.26,2.78-2.33,1,.12,1,.12l-1.28,1.14Z"/><path class="cls-43" d="M72.81,46.71l-4.06-.36s1.81-2.26,2.78-2.33,1,.12,1,.12l-1.28,1.14Z"/><path class="cls-3" d="M73.57,47.68s-1,3.7,2.57,3.94L77.29,48A6.39,6.39,0,0,1,73.57,47.68Z"/><path class="cls-43" d="M73.76,47.49s-1.05,3.69,2.57,3.95l1.15-3.6A6.35,6.35,0,0,1,73.76,47.49Z"/><path class="cls-3" d="M103.08,127.68l-.53-6.05a38.65,38.65,0,0,1,0-6.43,29.28,29.28,0,0,0,.36-3.49c.06-1,.08-1.78.08-1.78l-9.6-.66,0,0,9.06.62s0,.78-.08,1.78a29.44,29.44,0,0,1-.36,3.5,38.66,38.66,0,0,0,0,6.43l.53,6c1.26,2.92.13,9.82-.22,10.88s-1.72,8.07-2.48,9.2-1.64,7.62-1.64,7.62l-.49.35.52,0,.54-.38s.88-6.49,1.63-7.63,2.14-8.13,2.48-9.19S104.34,130.6,103.08,127.68Z"/><polygon class="cls-45" points="104.25 94.93 106.19 96.12 106.19 111.78 92.07 111.07 91.09 99.56 93.41 96.75 104.25 94.93"/><path class="cls-3" d="M93.92,103.81s6,4.86,7.79,5.18"/><path class="cls-3" d="M98.7,155.3a2.27,2.27,0,0,0-.17.5l-.37.26s-5.4-.26-4.77-1.23a2.6,2.6,0,0,0,.23-.91c1.26-.29,3.4,1.16,3.4,1.16Z"/><path class="cls-40" d="M99.1,165.82a9.72,9.72,0,0,0-.5,2.54s-1.16,1.75-2.79,1.22-6.5-.31-6.78-.44c-.92-.41-.52-1.37,0-2.26.3-.51.62-1,.78-1.31.42-.92,1.35-3.3,1.35-3.3a5.71,5.71,0,0,1,1.32-3.61l.63-4.08c1-1.06,3.92.88,3.92.88l1.67.22c-.85,1.85,0,7,0,7s.13.43.27,1h0A4,4,0,0,1,99.1,165.82Z"/><path class="cls-3" d="M99.1,165.82a9.72,9.72,0,0,0-.5,2.54s-1.16,1.75-2.79,1.22-6.5-.31-6.78-.44c-.92-.41-.52-1.37,0-2.26,2.21.12,7.15.35,8.25-.06,1.41-.53,1.73-2.37,1.71-3.12A3.94,3.94,0,0,1,99.1,165.82Z"/><circle class="cls-48" cx="96.35" cy="159.74" r="0.32"/><circle class="cls-48" cx="92.48" cy="159.74" r="0.32"/><circle class="cls-48" cx="96.35" cy="161.49" r="0.32"/><circle class="cls-48" cx="92.4" cy="161.49" r="0.32"/><circle class="cls-48" cx="95.38" cy="165.46" r="0.32"/><circle class="cls-48" cx="92.08" cy="165.46" r="0.32"/><circle class="cls-48" cx="95.53" cy="164.57" r="0.32"/><circle class="cls-48" cx="92.16" cy="164.57" r="0.32"/><circle class="cls-48" cx="95.7" cy="163.54" r="0.32"/><circle class="cls-48" cx="92.48" cy="163.54" r="0.32"/><circle class="cls-48" cx="96.02" cy="162.52" r="0.32"/><circle class="cls-48" cx="92.48" cy="162.52" r="0.32"/><path class="cls-49" d="M93.18,157.35a2.57,2.57,0,0,0,3.64.42"/><path class="cls-50" d="M92.48,159.74s4.19,1,3.87,1.75c0,0-3.69-.53-3.95,0s3.62,1,3.62,1-3.19.49-3.54,0,3.21,1,3.21,1-3.21-.32-3.21,0,3,1,3,1-2.85-.3-3,0,2.83.42,2.89.89-3.3-.32-3.3,0,4.27-5.72,4.27-5.72"/><ellipse class="cls-1" cx="13.06" cy="165.68" rx="6.24" ry="1.06"/><path class="cls-51" d="M8.87,160.78s3.56-.11,4.63-.87,5.48-1.67,5.75-.45,5.35,6.09,1.33,6.12-9.34-.62-10.41-1.27S8.87,160.78,8.87,160.78Z"/><path class="cls-52" d="M20.65,165.16c-4,0-9.34-.63-10.41-1.28-.82-.5-1.14-2.28-1.25-3.1H8.87s.22,2.87,1.29,3.52,6.4,1.31,10.42,1.28c1.16,0,1.56-.42,1.54-1.05C22,164.92,21.51,165.15,20.65,165.16Z"/></svg>